<svg xmlns="http://www.w3.org/2000/svg" xmlns:xlink="http://www.w3.org/1999/xlink" width="552" zoomAndPan="magnify" viewBox="0 0 414 413.999985" height="552" preserveAspectRatio="xMidYMid meet" version="1.0"><defs><clipPath id="af0dbc671f"><path d="M 0 0 L 412.5 0 L 412.5 412.5 L 0 412.5 Z M 0 0 " clip-rule="nonzero"/></clipPath></defs><g clip-path="url(#af0dbc671f)"><path fill="#ffde59" d="M 412.5 206.25 C 412.5 209.625 412.417969 213 412.25 216.371094 C 412.085938 219.742188 411.835938 223.105469 411.507812 226.464844 C 411.175781 229.824219 410.761719 233.175781 410.269531 236.511719 C 409.773438 239.851562 409.195312 243.175781 408.535156 246.488281 C 407.878906 249.796875 407.140625 253.089844 406.320312 256.363281 C 405.5 259.640625 404.597656 262.890625 403.617188 266.121094 C 402.640625 269.351562 401.582031 272.554688 400.441406 275.734375 C 399.304688 278.910156 398.089844 282.058594 396.800781 285.179688 C 395.507812 288.296875 394.140625 291.382812 392.699219 294.433594 C 391.253906 297.484375 389.738281 300.5 388.144531 303.476562 C 386.554688 306.453125 384.890625 309.386719 383.15625 312.285156 C 381.421875 315.179688 379.617188 318.03125 377.742188 320.835938 C 375.863281 323.644531 373.921875 326.402344 371.910156 329.113281 C 369.902344 331.824219 367.824219 334.484375 365.683594 337.09375 C 363.542969 339.703125 361.339844 342.257812 359.070312 344.757812 C 356.804688 347.261719 354.476562 349.703125 352.089844 352.089844 C 349.703125 354.476562 347.261719 356.804688 344.757812 359.070312 C 342.257812 361.339844 339.703125 363.542969 337.09375 365.683594 C 334.484375 367.824219 331.824219 369.902344 329.113281 371.910156 C 326.402344 373.921875 323.644531 375.867188 320.835938 377.742188 C 318.03125 379.617188 315.179688 381.421875 312.285156 383.15625 C 309.386719 384.890625 306.453125 386.554688 303.476562 388.144531 C 300.5 389.738281 297.484375 391.253906 294.433594 392.699219 C 291.382812 394.140625 288.296875 395.507812 285.179688 396.800781 C 282.058594 398.089844 278.910156 399.304688 275.734375 400.441406 C 272.554688 401.582031 269.351562 402.640625 266.121094 403.617188 C 262.890625 404.597656 259.640625 405.5 256.363281 406.320312 C 253.089844 407.140625 249.796875 407.878906 246.488281 408.535156 C 243.175781 409.195312 239.851562 409.773438 236.511719 410.265625 C 233.175781 410.761719 229.824219 411.175781 226.464844 411.507812 C 223.105469 411.835938 219.742188 412.085938 216.371094 412.25 C 213 412.417969 209.625 412.5 206.25 412.5 C 202.875 412.5 199.5 412.417969 196.128906 412.25 C 192.757812 412.085938 189.394531 411.835938 186.035156 411.507812 C 182.675781 411.175781 179.324219 410.761719 175.988281 410.269531 C 172.648438 409.773438 169.324219 409.195312 166.011719 408.535156 C 162.703125 407.878906 159.410156 407.140625 156.136719 406.320312 C 152.859375 405.5 149.609375 404.597656 146.378906 403.617188 C 143.148438 402.640625 139.945312 401.582031 136.765625 400.441406 C 133.589844 399.304688 130.441406 398.089844 127.320312 396.800781 C 124.203125 395.507812 121.117188 394.140625 118.066406 392.699219 C 115.015625 391.253906 112 389.738281 109.023438 388.144531 C 106.046875 386.554688 103.113281 384.890625 100.214844 383.15625 C 97.320312 381.421875 94.46875 379.617188 91.664062 377.742188 C 88.855469 375.863281 86.097656 373.921875 83.386719 371.910156 C 80.675781 369.902344 78.015625 367.824219 75.40625 365.683594 C 72.796875 363.542969 70.242188 361.339844 67.742188 359.070312 C 65.238281 356.804688 62.796875 354.476562 60.410156 352.089844 C 58.023438 349.703125 55.695312 347.261719 53.429688 344.757812 C 51.160156 342.257812 48.957031 339.703125 46.816406 337.09375 C 44.675781 334.484375 42.597656 331.824219 40.589844 329.113281 C 38.578125 326.402344 36.632812 323.644531 34.757812 320.835938 C 32.882812 318.03125 31.078125 315.179688 29.34375 312.285156 C 27.609375 309.386719 25.945312 306.453125 24.355469 303.476562 C 22.761719 300.5 21.246094 297.484375 19.800781 294.433594 C 18.359375 291.382812 16.992188 288.296875 15.699219 285.179688 C 14.40625 282.058594 13.195312 278.910156 12.054688 275.734375 C 10.917969 272.554688 9.859375 269.351562 8.882812 266.121094 C 7.902344 262.890625 7 259.640625 6.179688 256.363281 C 5.359375 253.089844 4.621094 249.796875 3.964844 246.488281 C 3.304688 243.175781 2.726562 239.851562 2.230469 236.511719 C 1.738281 233.175781 1.324219 229.824219 0.992188 226.464844 C 0.664062 223.105469 0.414062 219.742188 0.25 216.371094 C 0.0820312 213 0 209.625 0 206.25 C 0 202.875 0.0820312 199.5 0.25 196.128906 C 0.414062 192.757812 0.664062 189.394531 0.992188 186.035156 C 1.324219 182.675781 1.738281 179.324219 2.230469 175.988281 C 2.726562 172.648438 3.304688 169.324219 3.964844 166.011719 C 4.621094 162.703125 5.359375 159.410156 6.179688 156.136719 C 7 152.859375 7.902344 149.609375 8.882812 146.378906 C 9.859375 143.148438 10.917969 139.945312 12.054688 136.765625 C 13.195312 133.589844 14.40625 130.441406 15.699219 127.320312 C 16.992188 124.203125 18.359375 121.117188 19.800781 118.066406 C 21.246094 115.015625 22.761719 112 24.355469 109.023438 C 25.945312 106.046875 27.609375 103.113281 29.34375 100.214844 C 31.078125 97.320312 32.882812 94.46875 34.757812 91.664062 C 36.632812 88.855469 38.578125 86.097656 40.589844 83.386719 C 42.597656 80.675781 44.675781 78.015625 46.816406 75.40625 C 48.957031 72.796875 51.160156 70.242188 53.429688 67.742188 C 55.695312 65.238281 58.023438 62.796875 60.410156 60.410156 C 62.796875 58.023438 65.238281 55.695312 67.742188 53.429688 C 70.242188 51.160156 72.796875 48.957031 75.40625 46.816406 C 78.015625 44.675781 80.675781 42.597656 83.386719 40.589844 C 86.097656 38.578125 88.855469 36.632812 91.664062 34.757812 C 94.46875 32.882812 97.320312 31.078125 100.214844 29.34375 C 103.113281 27.609375 106.046875 25.945312 109.023438 24.355469 C 112 22.761719 115.015625 21.246094 118.066406 19.800781 C 121.117188 18.359375 124.203125 16.992188 127.320312 15.699219 C 130.441406 14.40625 133.589844 13.195312 136.765625 12.054688 C 139.945312 10.917969 143.148438 9.859375 146.378906 8.882812 C 149.609375 7.902344 152.859375 7 156.136719 6.179688 C 159.410156 5.359375 162.703125 4.621094 166.011719 3.964844 C 169.324219 3.304688 172.648438 2.726562 175.988281 2.230469 C 179.324219 1.738281 182.675781 1.324219 186.035156 0.992188 C 189.394531 0.664062 192.757812 0.414062 196.128906 0.25 C 199.5 0.0820312 202.875 0 206.25 0 C 209.625 0 213 0.0820312 216.371094 0.25 C 219.742188 0.414062 223.105469 0.664062 226.464844 0.992188 C 229.824219 1.324219 233.175781 1.738281 236.511719 2.230469 C 239.851562 2.726562 243.175781 3.304688 246.488281 3.964844 C 249.796875 4.621094 253.089844 5.359375 256.363281 6.179688 C 259.640625 7 262.890625 7.902344 266.121094 8.882812 C 269.351562 9.859375 272.554688 10.917969 275.734375 12.054688 C 278.910156 13.195312 282.058594 14.40625 285.179688 15.699219 C 288.296875 16.992188 291.382812 18.359375 294.433594 19.800781 C 297.484375 21.246094 300.5 22.761719 303.476562 24.355469 C 306.453125 25.945312 309.386719 27.609375 312.285156 29.34375 C 315.179688 31.078125 318.03125 32.882812 320.835938 34.757812 C 323.644531 36.632812 326.402344 38.578125 329.113281 40.589844 C 331.824219 42.597656 334.484375 44.675781 337.09375 46.816406 C 339.703125 48.957031 342.257812 51.160156 344.757812 53.429688 C 347.261719 55.695312 349.703125 58.023438 352.089844 60.410156 C 354.476562 62.796875 356.804688 65.238281 359.070312 67.742188 C 361.339844 70.242188 363.542969 72.796875 365.683594 75.40625 C 367.824219 78.015625 369.902344 80.675781 371.910156 83.386719 C 373.921875 86.097656 375.867188 88.855469 377.742188 91.664062 C 379.617188 94.46875 381.421875 97.320312 383.15625 100.214844 C 384.890625 103.113281 386.554688 106.046875 388.144531 109.023438 C 389.738281 112 391.253906 115.015625 392.699219 118.066406 C 394.140625 121.117188 395.507812 124.203125 396.800781 127.320312 C 398.089844 130.441406 399.304688 133.589844 400.441406 136.765625 C 401.582031 139.945312 402.640625 143.148438 403.617188 146.378906 C 404.597656 149.609375 405.5 152.859375 406.320312 156.136719 C 407.140625 159.410156 407.878906 162.703125 408.535156 166.011719 C 409.195312 169.324219 409.773438 172.648438 410.265625 175.988281 C 410.761719 179.324219 411.175781 182.675781 411.507812 186.035156 C 411.835938 189.394531 412.085938 192.757812 412.25 196.128906 C 412.417969 199.5 412.5 202.875 412.5 206.25 Z M 412.5 206.25 " fill-opacity="1" fill-rule="nonzero"/></g><path fill="#ffffff" d="M 210.734375 108.355469 L 210.734375 125.542969 C 232.40625 127.039062 251.835938 136.753906 266.03125 151.699219 L 269.023438 131.523438 C 252.582031 117.324219 232.40625 109.851562 210.734375 108.355469 Z M 286.210938 201.765625 L 303.398438 201.765625 C 303.398438 188.316406 299.660156 174.863281 293.683594 162.90625 L 272.757812 160.664062 C 280.976562 172.621094 285.460938 186.820312 286.210938 201.765625 Z M 205.503906 312.363281 C 176.359375 312.363281 150.203125 300.40625 130.773438 280.976562 C 89.675781 239.878906 89.675781 172.621094 130.773438 130.773438 C 169.632812 91.914062 231.65625 89.675781 274.253906 124.796875 L 280.976562 119.566406 C 235.394531 79.960938 167.390625 82.199219 124.796875 124.796875 C 79.960938 169.632812 79.960938 242.121094 124.796875 286.957031 C 169.632812 331.792969 242.121094 331.792969 286.957031 286.957031 C 322.078125 251.835938 331.046875 198.03125 308.628906 153.941406 L 301.902344 159.171875 C 321.332031 200.273438 313.113281 248.84375 280.976562 280.976562 C 261.550781 300.40625 234.648438 312.363281 205.503906 312.363281 Z M 209.238281 286.957031 L 209.238281 303.398438 C 260.054688 301.902344 301.15625 261.550781 303.398438 210.734375 L 286.210938 210.734375 C 284.714844 251.835938 251.085938 284.714844 209.238281 286.957031 Z M 125.542969 210.734375 L 108.355469 210.734375 C 110.597656 260.800781 150.949219 301.15625 201.019531 303.398438 L 201.019531 286.210938 C 159.917969 283.96875 127.785156 251.085938 125.542969 210.734375 Z M 108.355469 201.765625 L 125.542969 201.765625 C 127.785156 160.664062 160.664062 127.785156 201.765625 125.542969 L 201.765625 108.355469 C 150.949219 110.597656 110.597656 150.949219 108.355469 201.765625 Z M 290.691406 122.554688 L 277.242188 133.015625 L 275 146.46875 L 311.617188 118.070312 L 313.859375 103.871094 Z M 280.230469 153.191406 L 294.429688 154.6875 L 331.046875 125.542969 L 316.847656 124.796875 Z M 215.21875 186.820312 L 206.25 157.675781 L 197.28125 186.820312 C 195.789062 189.808594 192.800781 192.050781 189.808594 192.050781 L 159.917969 192.050781 L 183.832031 209.238281 C 186.820312 211.480469 187.566406 214.46875 186.820312 217.460938 L 177.105469 246.601562 L 201.765625 228.667969 C 204.007812 226.425781 207.746094 226.425781 210.734375 228.667969 L 234.648438 246.601562 L 225.679688 217.460938 C 224.183594 214.46875 225.679688 211.480469 227.921875 209.238281 L 252.582031 192.050781 L 231.65625 192.050781 L 208.492188 209.238281 C 206.996094 210.734375 204.007812 210.734375 202.511719 208.492188 C 201.019531 206.996094 201.765625 204.007812 203.261719 202.511719 L 218.953125 190.558594 C 217.460938 189.808594 215.964844 188.316406 215.21875 186.820312 Z M 212.976562 152.445312 L 223.4375 183.085938 L 228.667969 183.085938 L 260.054688 158.425781 C 246.601562 143.476562 227.921875 133.761719 206.25 133.761719 C 166.644531 133.761719 133.761719 166.644531 133.761719 206.25 C 133.761719 245.855469 166.644531 277.988281 206.25 277.988281 C 245.855469 277.988281 277.988281 245.855469 277.988281 206.25 C 277.988281 190.558594 273.503906 176.359375 265.285156 165.148438 L 242.121094 183.085938 L 255.570312 183.085938 C 263.042969 183.085938 266.03125 192.800781 260.054688 196.535156 L 233.898438 215.964844 L 243.613281 246.601562 C 245.855469 253.328125 238.382812 259.308594 232.40625 254.824219 L 206.25 236.140625 L 180.09375 254.824219 C 174.117188 259.308594 165.898438 253.328125 168.136719 246.601562 L 178.601562 215.964844 L 152.445312 196.535156 C 146.46875 192.800781 149.457031 183.085938 156.929688 183.085938 L 189.0625 183.085938 L 198.777344 152.445312 C 201.019531 145.71875 210.734375 145.71875 212.976562 152.445312 Z M 201.765625 65.011719 C 201.765625 62.023438 204.007812 60.53125 206.25 60.53125 C 208.492188 60.53125 210.734375 62.023438 210.734375 65.011719 L 210.734375 82.949219 C 239.128906 83.695312 266.78125 94.90625 287.703125 113.585938 L 316.847656 91.167969 C 320.585938 88.179688 324.320312 91.167969 324.320312 94.90625 L 320.585938 116.574219 L 342.253906 118.070312 C 345.992188 118.816406 347.488281 123.300781 344.496094 125.542969 L 315.351562 148.710938 C 323.574219 165.148438 328.804688 183.085938 329.550781 201.765625 L 347.488281 201.765625 C 349.726562 201.765625 351.96875 204.007812 351.96875 206.25 C 351.96875 208.492188 349.726562 210.734375 347.488281 210.734375 L 329.550781 210.734375 C 327.308594 275.746094 274.253906 327.308594 209.238281 329.550781 L 209.238281 347.488281 C 209.238281 349.726562 207.746094 351.96875 204.753906 351.96875 C 202.511719 351.96875 201.019531 349.726562 201.019531 347.488281 L 201.019531 329.550781 C 136.753906 326.5625 85.191406 275 82.949219 210.734375 L 65.011719 210.734375 C 62.023438 210.734375 60.53125 208.492188 60.53125 206.25 C 60.53125 204.007812 62.023438 201.765625 65.011719 201.765625 L 82.949219 201.765625 C 85.191406 137.5 137.5 85.191406 201.765625 82.949219 Z M 201.765625 65.011719 " fill-opacity="1" fill-rule="evenodd"/></svg>