<svg xmlns="http://www.w3.org/2000/svg" xmlns:xlink="http://www.w3.org/1999/xlink" width="281" zoomAndPan="magnify" viewBox="0 0 210.75 210.749996" height="281" preserveAspectRatio="xMidYMid meet" version="1.0"><path fill="#ff66c4" d="M 209.75 104.875 C 209.75 106.59375 209.710938 108.308594 209.625 110.023438 C 209.539062 111.734375 209.414062 113.445312 209.246094 115.15625 C 209.078125 116.863281 208.867188 118.566406 208.617188 120.265625 C 208.363281 121.960938 208.070312 123.652344 207.734375 125.335938 C 207.402344 127.019531 207.023438 128.691406 206.609375 130.359375 C 206.191406 132.023438 205.734375 133.675781 205.234375 135.320312 C 204.738281 136.960938 204.199219 138.589844 203.621094 140.207031 C 203.042969 141.824219 202.425781 143.425781 201.769531 145.007812 C 201.109375 146.59375 200.414062 148.164062 199.683594 149.714844 C 198.949219 151.265625 198.175781 152.800781 197.367188 154.3125 C 196.558594 155.828125 195.710938 157.320312 194.832031 158.792969 C 193.949219 160.265625 193.03125 161.714844 192.078125 163.140625 C 191.121094 164.570312 190.136719 165.972656 189.113281 167.351562 C 188.089844 168.726562 187.035156 170.082031 185.945312 171.40625 C 184.855469 172.734375 183.734375 174.035156 182.582031 175.304688 C 181.429688 176.578125 180.246094 177.820312 179.035156 179.035156 C 177.820312 180.246094 176.578125 181.429688 175.304688 182.582031 C 174.035156 183.734375 172.734375 184.855469 171.40625 185.945312 C 170.082031 187.035156 168.726562 188.089844 167.351562 189.113281 C 165.972656 190.136719 164.570312 191.121094 163.140625 192.078125 C 161.714844 193.03125 160.265625 193.949219 158.792969 194.832031 C 157.320312 195.710938 155.828125 196.558594 154.3125 197.367188 C 152.800781 198.175781 151.265625 198.949219 149.714844 199.683594 C 148.164062 200.414062 146.59375 201.109375 145.007812 201.769531 C 143.425781 202.425781 141.824219 203.042969 140.207031 203.621094 C 138.589844 204.199219 136.960938 204.738281 135.320312 205.234375 C 133.675781 205.734375 132.023438 206.191406 130.359375 206.609375 C 128.691406 207.023438 127.019531 207.402344 125.335938 207.734375 C 123.652344 208.070312 121.960938 208.363281 120.265625 208.617188 C 118.566406 208.867188 116.863281 209.078125 115.15625 209.246094 C 113.445312 209.414062 111.734375 209.539062 110.023438 209.625 C 108.308594 209.710938 106.59375 209.75 104.875 209.75 C 103.160156 209.75 101.445312 209.710938 99.730469 209.625 C 98.015625 209.539062 96.304688 209.414062 94.597656 209.246094 C 92.886719 209.078125 91.183594 208.867188 89.488281 208.617188 C 87.789062 208.363281 86.097656 208.070312 84.414062 207.734375 C 82.730469 207.402344 81.058594 207.023438 79.394531 206.609375 C 77.726562 206.191406 76.074219 205.734375 74.433594 205.234375 C 72.789062 204.738281 71.160156 204.199219 69.542969 203.621094 C 67.929688 203.042969 66.328125 202.425781 64.742188 201.769531 C 63.15625 201.109375 61.585938 200.414062 60.035156 199.683594 C 58.484375 198.949219 56.953125 198.175781 55.4375 197.367188 C 53.925781 196.558594 52.429688 195.710938 50.957031 194.832031 C 49.488281 193.949219 48.035156 193.03125 46.609375 192.078125 C 45.183594 191.121094 43.78125 190.136719 42.402344 189.113281 C 41.023438 188.089844 39.671875 187.035156 38.34375 185.945312 C 37.015625 184.855469 35.71875 183.734375 34.445312 182.582031 C 33.171875 181.429688 31.929688 180.246094 30.71875 179.035156 C 29.503906 177.820312 28.320312 176.578125 27.167969 175.304688 C 26.015625 174.035156 24.894531 172.734375 23.804688 171.40625 C 22.71875 170.082031 21.660156 168.726562 20.640625 167.351562 C 19.617188 165.972656 18.628906 164.570312 17.675781 163.140625 C 16.722656 161.714844 15.804688 160.265625 14.921875 158.792969 C 14.039062 157.320312 13.191406 155.828125 12.382812 154.3125 C 11.574219 152.800781 10.804688 151.265625 10.070312 149.714844 C 9.335938 148.164062 8.640625 146.59375 7.984375 145.007812 C 7.328125 143.425781 6.707031 141.824219 6.128906 140.207031 C 5.550781 138.589844 5.015625 136.960938 4.515625 135.320312 C 4.019531 133.675781 3.558594 132.023438 3.144531 130.359375 C 2.726562 128.691406 2.351562 127.019531 2.015625 125.335938 C 1.679688 123.652344 1.386719 121.960938 1.136719 120.265625 C 0.882812 118.566406 0.671875 116.863281 0.503906 115.15625 C 0.335938 113.445312 0.210938 111.734375 0.125 110.023438 C 0.0429688 108.308594 0 106.59375 0 104.875 C 0 103.160156 0.0429688 101.445312 0.125 99.730469 C 0.210938 98.015625 0.335938 96.304688 0.503906 94.597656 C 0.671875 92.886719 0.882812 91.183594 1.136719 89.488281 C 1.386719 87.789062 1.679688 86.097656 2.015625 84.414062 C 2.351562 82.730469 2.726562 81.058594 3.144531 79.394531 C 3.558594 77.726562 4.019531 76.074219 4.515625 74.433594 C 5.015625 72.789062 5.550781 71.160156 6.128906 69.542969 C 6.707031 67.929688 7.328125 66.328125 7.984375 64.742188 C 8.640625 63.15625 9.335938 61.585938 10.070312 60.035156 C 10.804688 58.484375 11.574219 56.953125 12.382812 55.4375 C 13.191406 53.925781 14.039062 52.429688 14.921875 50.957031 C 15.804688 49.488281 16.722656 48.035156 17.675781 46.609375 C 18.628906 45.183594 19.617188 43.78125 20.640625 42.402344 C 21.660156 41.023438 22.71875 39.671875 23.804688 38.34375 C 24.894531 37.015625 26.015625 35.71875 27.167969 34.445312 C 28.320312 33.171875 29.503906 31.929688 30.71875 30.71875 C 31.929688 29.503906 33.171875 28.320312 34.445312 27.167969 C 35.71875 26.015625 37.015625 24.894531 38.34375 23.804688 C 39.671875 22.71875 41.023438 21.660156 42.402344 20.640625 C 43.78125 19.617188 45.183594 18.628906 46.609375 17.675781 C 48.035156 16.722656 49.488281 15.804688 50.957031 14.921875 C 52.429688 14.039062 53.925781 13.191406 55.4375 12.382812 C 56.953125 11.574219 58.484375 10.804688 60.035156 10.070312 C 61.585938 9.335938 63.15625 8.640625 64.742188 7.984375 C 66.328125 7.328125 67.929688 6.707031 69.542969 6.128906 C 71.160156 5.550781 72.789062 5.015625 74.433594 4.515625 C 76.074219 4.019531 77.726562 3.558594 79.394531 3.144531 C 81.058594 2.726562 82.730469 2.351562 84.414062 2.015625 C 86.097656 1.679688 87.789062 1.386719 89.488281 1.136719 C 91.183594 0.882812 92.886719 0.671875 94.597656 0.503906 C 96.304688 0.335938 98.015625 0.210938 99.730469 0.125 C 101.445312 0.0429688 103.160156 0 104.875 0 C 106.59375 0 108.308594 0.0429688 110.023438 0.125 C 111.734375 0.210938 113.445312 0.335938 115.15625 0.503906 C 116.863281 0.671875 118.566406 0.882812 120.265625 1.136719 C 121.960938 1.386719 123.652344 1.679688 125.335938 2.015625 C 127.019531 2.351562 128.691406 2.726562 130.359375 3.144531 C 132.023438 3.558594 133.675781 4.019531 135.320312 4.515625 C 136.960938 5.015625 138.589844 5.550781 140.207031 6.128906 C 141.824219 6.707031 143.425781 7.328125 145.007812 7.984375 C 146.59375 8.640625 148.164062 9.335938 149.714844 10.070312 C 151.265625 10.804688 152.800781 11.574219 154.3125 12.382812 C 155.828125 13.191406 157.320312 14.039062 158.792969 14.921875 C 160.265625 15.804688 161.714844 16.722656 163.140625 17.675781 C 164.570312 18.628906 165.972656 19.617188 167.351562 20.640625 C 168.726562 21.660156 170.082031 22.71875 171.40625 23.804688 C 172.734375 24.894531 174.035156 26.015625 175.304688 27.167969 C 176.578125 28.320312 177.820312 29.503906 179.035156 30.71875 C 180.246094 31.929688 181.429688 33.171875 182.582031 34.445312 C 183.734375 35.71875 184.855469 37.015625 185.945312 38.34375 C 187.035156 39.671875 188.089844 41.023438 189.113281 42.402344 C 190.136719 43.78125 191.121094 45.183594 192.078125 46.609375 C 193.03125 48.035156 193.949219 49.488281 194.832031 50.957031 C 195.710938 52.429688 196.558594 53.925781 197.367188 55.4375 C 198.175781 56.953125 198.949219 58.484375 199.683594 60.035156 C 200.414062 61.585938 201.109375 63.15625 201.769531 64.742188 C 202.425781 66.328125 203.042969 67.929688 203.621094 69.542969 C 204.199219 71.160156 204.738281 72.789062 205.234375 74.433594 C 205.734375 76.074219 206.191406 77.726562 206.609375 79.394531 C 207.023438 81.058594 207.402344 82.730469 207.734375 84.414062 C 208.070312 86.097656 208.363281 87.789062 208.617188 89.488281 C 208.867188 91.183594 209.078125 92.886719 209.246094 94.597656 C 209.414062 96.304688 209.539062 98.015625 209.625 99.730469 C 209.710938 101.445312 209.75 103.160156 209.75 104.875 Z M 209.75 104.875 " fill-opacity="1" fill-rule="nonzero"/><path fill="#ffffff" d="M 118.359375 56.933594 L 118.359375 46.445312 C 118.359375 45.695312 119.109375 44.945312 119.859375 44.945312 L 126.601562 44.945312 C 127.347656 44.945312 127.347656 45.695312 127.347656 46.445312 L 127.347656 65.921875 C 127.347656 66.671875 127.347656 66.671875 128.097656 66.671875 L 145.328125 83.902344 C 145.328125 83.902344 145.328125 84.648438 145.328125 84.648438 C 145.328125 85.398438 145.328125 86.148438 143.828125 86.148438 C 142.332031 86.148438 140.832031 86.148438 138.585938 86.148438 L 138.585938 105.625 C 138.585938 105.625 138.585938 106.375 139.335938 105.625 C 143.082031 101.878906 148.324219 96.636719 153.566406 94.386719 C 155.066406 90.640625 155.816406 87.644531 157.3125 84.648438 C 158.0625 81.652344 160.308594 76.410156 164.804688 78.65625 C 164.804688 78.65625 165.554688 78.65625 165.554688 78.65625 C 167.800781 74.910156 170.796875 74.160156 173.792969 77.160156 C 173.792969 77.90625 173.792969 77.90625 174.542969 77.90625 C 176.042969 77.90625 177.539062 78.65625 178.289062 80.902344 C 179.039062 82.402344 179.039062 84.648438 179.039062 86.898438 C 178.289062 92.140625 176.789062 97.382812 176.042969 101.878906 C 175.292969 104.125 174.542969 106.375 173.042969 108.621094 C 168.550781 114.613281 164.804688 121.355469 158.0625 125.851562 C 152.070312 131.09375 146.078125 135.589844 140.082031 140.082031 C 138.585938 141.582031 137.085938 143.828125 135.589844 147.574219 C 134.089844 152.820312 133.34375 158.0625 132.59375 164.054688 C 132.59375 164.804688 131.84375 165.554688 131.09375 164.804688 C 130.34375 164.804688 129.597656 164.804688 129.597656 163.304688 C 130.34375 157.3125 131.09375 152.070312 132.59375 148.324219 C 134.089844 143.828125 136.339844 139.335938 140.082031 136.339844 C 146.078125 131.84375 151.320312 127.347656 157.3125 123.601562 C 158.8125 122.105469 161.058594 120.605469 162.558594 118.359375 C 165.554688 114.613281 167.800781 111.617188 170.046875 107.871094 C 173.792969 101.878906 174.542969 95.136719 176.042969 88.394531 C 176.789062 85.398438 176.789062 83.902344 176.042969 81.652344 C 176.042969 80.15625 174.542969 80.15625 173.792969 80.902344 C 173.042969 81.652344 172.296875 82.402344 172.296875 83.152344 C 168.550781 92.140625 166.300781 101.878906 158.8125 107.871094 C 152.820312 113.117188 145.328125 117.609375 137.085938 121.355469 C 137.085938 121.355469 137.085938 121.355469 136.339844 121.355469 C 135.589844 120.605469 135.589844 119.859375 136.339844 119.109375 C 140.832031 115.363281 145.328125 111.617188 149.074219 107.871094 C 151.320312 105.625 155.816406 100.382812 155.066406 98.132812 C 154.316406 97.382812 153.566406 96.636719 152.820312 97.382812 C 148.324219 99.632812 145.328125 103.378906 141.582031 107.121094 C 139.335938 108.621094 137.085938 110.867188 134.839844 112.367188 C 131.84375 114.613281 128.847656 116.863281 126.601562 119.109375 C 122.855469 122.105469 121.355469 125.851562 119.859375 129.597656 C 118.359375 134.839844 114.613281 146.078125 109.371094 165.554688 C 109.371094 165.554688 108.621094 166.300781 108.621094 166.300781 C 107.871094 166.300781 107.871094 165.554688 107.121094 165.554688 C 107.121094 165.554688 106.375 164.804688 107.121094 164.054688 L 116.113281 131.84375 C 116.113281 131.84375 116.113281 131.84375 115.363281 131.84375 C 113.863281 131.84375 113.117188 130.34375 113.117188 128.847656 C 113.117188 123.601562 113.117188 118.359375 113.117188 113.863281 C 113.117188 113.117188 113.117188 113.117188 112.367188 113.117188 L 97.382812 113.117188 C 97.382812 119.859375 97.382812 124.351562 97.382812 128.847656 C 97.382812 130.34375 96.636719 131.09375 94.386719 131.84375 C 94.386719 131.84375 94.386719 131.84375 94.386719 132.59375 L 103.378906 164.054688 C 103.378906 164.804688 103.378906 164.804688 103.378906 165.554688 C 103.378906 165.554688 102.628906 165.554688 102.628906 165.554688 C 101.878906 166.300781 101.128906 165.554688 101.128906 164.804688 C 98.132812 155.066406 95.136719 144.578125 92.140625 134.089844 C 89.144531 125.101562 86.148438 119.859375 78.65625 114.613281 C 74.910156 111.617188 70.417969 108.621094 66.671875 104.875 C 64.421875 102.628906 59.929688 98.132812 56.933594 97.382812 C 56.183594 97.382812 56.183594 97.382812 56.183594 97.382812 C 54.683594 98.132812 54.683594 99.632812 55.433594 101.128906 C 56.933594 103.378906 59.179688 105.625 61.425781 107.871094 C 65.171875 111.617188 68.917969 115.363281 74.160156 119.109375 C 74.160156 119.109375 74.160156 119.859375 74.160156 120.605469 C 74.160156 120.605469 74.160156 121.355469 73.414062 121.355469 C 72.664062 121.355469 72.664062 120.605469 72.664062 120.605469 C 65.921875 117.609375 59.179688 113.863281 53.1875 109.371094 C 48.691406 106.375 44.945312 101.878906 42.699219 95.886719 C 41.199219 92.140625 39.703125 87.644531 38.203125 83.152344 C 38.203125 82.402344 37.457031 80.902344 35.957031 80.15625 C 32.960938 80.902344 33.710938 86.148438 34.460938 87.644531 C 35.207031 94.386719 36.707031 101.128906 39.703125 106.375 C 41.949219 110.121094 44.945312 114.613281 47.941406 118.359375 C 49.441406 120.605469 51.6875 122.105469 54.683594 124.351562 C 60.679688 128.847656 65.921875 132.59375 70.417969 137.085938 C 77.90625 143.082031 79.40625 154.316406 80.902344 164.054688 C 80.902344 164.054688 80.15625 164.804688 79.40625 164.804688 C 79.40625 165.554688 78.65625 164.804688 78.65625 164.054688 C 77.90625 164.054688 77.90625 164.054688 77.90625 163.304688 C 77.160156 155.816406 75.660156 146.078125 70.417969 140.082031 C 69.667969 139.335938 66.671875 137.085938 62.925781 134.089844 C 59.179688 131.09375 55.433594 128.847656 52.4375 126.601562 C 49.441406 124.351562 47.941406 122.855469 46.445312 120.605469 C 41.949219 116.113281 38.953125 110.867188 36.707031 106.375 C 34.460938 101.878906 32.960938 96.636719 32.210938 91.390625 C 31.460938 88.394531 31.460938 85.398438 31.460938 83.152344 C 31.460938 79.40625 32.960938 77.90625 35.957031 77.90625 C 35.957031 77.90625 36.707031 77.90625 36.707031 77.160156 C 39.703125 74.160156 42.699219 74.910156 44.945312 78.65625 C 44.945312 78.65625 45.695312 78.65625 45.695312 78.65625 C 49.441406 76.410156 52.4375 81.652344 53.1875 85.398438 C 54.683594 88.394531 55.433594 91.390625 56.183594 93.640625 C 56.933594 94.386719 56.933594 94.386719 56.933594 94.386719 C 58.429688 95.136719 59.929688 95.886719 61.425781 96.636719 C 64.421875 98.882812 68.167969 101.878906 71.164062 105.625 C 71.914062 106.375 71.914062 106.375 71.914062 105.625 L 71.914062 86.898438 C 71.914062 86.148438 71.914062 86.148438 71.164062 86.148438 L 65.921875 86.148438 C 65.171875 86.148438 64.421875 85.398438 64.421875 85.398438 C 64.421875 84.648438 64.421875 83.902344 65.171875 83.152344 C 77.160156 70.417969 89.144531 57.679688 101.128906 45.695312 C 101.878906 44.199219 104.125 44.199219 105.625 45.695312 L 118.359375 57.679688 C 118.359375 57.679688 118.359375 57.679688 118.359375 56.933594 Z M 68.917969 83.152344 C 68.917969 83.152344 68.917969 83.152344 69.667969 83.152344 L 140.082031 83.152344 C 140.832031 83.152344 140.832031 83.152344 140.832031 83.152344 L 103.378906 47.195312 Z M 121.355469 59.929688 C 121.355469 60.679688 121.355469 60.679688 121.355469 60.679688 L 124.351562 63.675781 C 124.351562 63.675781 125.101562 63.675781 125.101562 63.675781 L 124.351562 47.941406 L 121.355469 47.941406 Z M 52.4375 105.625 C 47.195312 97.382812 46.445312 86.898438 41.949219 78.65625 C 41.199219 77.90625 40.453125 77.90625 39.703125 78.65625 C 38.953125 78.65625 38.953125 79.40625 38.953125 80.15625 C 41.199219 83.902344 42.699219 88.394531 44.199219 93.640625 C 46.445312 98.132812 48.691406 101.878906 52.4375 105.625 C 53.1875 105.625 53.1875 105.625 52.4375 105.625 Z M 169.300781 84.648438 C 169.300781 83.152344 170.046875 81.652344 171.546875 80.15625 C 171.546875 79.40625 171.546875 79.40625 171.546875 79.40625 C 170.796875 78.65625 170.796875 78.65625 170.046875 77.90625 C 170.046875 77.90625 169.300781 77.90625 169.300781 78.65625 C 167.800781 79.40625 167.050781 80.902344 167.050781 82.402344 C 164.804688 86.898438 163.304688 92.140625 161.058594 98.132812 C 161.058594 99.632812 160.308594 101.128906 158.8125 102.628906 C 156.5625 106.375 157.3125 107.121094 160.308594 103.378906 C 164.054688 98.132812 166.300781 92.140625 169.300781 84.648438 Z M 53.9375 95.136719 C 52.4375 90.640625 50.941406 86.148438 49.441406 82.402344 C 49.441406 82.402344 49.441406 82.402344 48.691406 82.402344 C 47.941406 80.902344 47.941406 80.902344 47.195312 80.902344 C 46.445312 80.902344 46.445312 81.652344 46.445312 81.652344 L 51.6875 98.132812 C 52.4375 98.882812 52.4375 98.882812 52.4375 98.132812 Z M 156.5625 95.136719 L 158.0625 98.882812 L 164.054688 81.652344 C 163.304688 80.902344 163.304688 80.902344 163.304688 80.902344 C 162.558594 80.902344 162.558594 80.902344 162.558594 80.902344 C 161.808594 81.652344 161.058594 82.402344 160.308594 83.152344 C 159.5625 86.898438 158.0625 90.640625 156.5625 95.136719 Z M 115.363281 111.617188 C 116.113281 111.617188 116.113281 112.367188 116.113281 113.117188 C 116.113281 118.359375 116.113281 123.601562 116.113281 128.847656 C 116.113281 128.847656 116.113281 128.847656 116.863281 128.847656 C 119.859375 122.105469 123.601562 116.863281 129.597656 113.117188 C 131.09375 111.617188 133.34375 110.121094 134.839844 108.621094 C 135.589844 108.621094 135.589844 107.871094 135.589844 107.871094 L 135.589844 86.148438 L 74.910156 86.148438 L 74.910156 107.871094 C 74.910156 107.871094 74.910156 108.621094 74.910156 108.621094 C 83.152344 114.613281 89.894531 119.109375 92.890625 128.847656 C 93.640625 128.847656 93.640625 128.847656 93.640625 128.847656 C 94.386719 128.847656 94.386719 128.847656 94.386719 128.847656 C 94.386719 123.601562 94.386719 118.359375 94.386719 113.117188 C 94.386719 111.617188 95.136719 110.121094 96.636719 110.121094 C 101.878906 110.121094 107.871094 110.121094 113.117188 110.121094 C 114.613281 110.121094 115.363281 110.867188 115.363281 111.617188 Z M 152.070312 108.621094 C 152.070312 108.621094 150.570312 109.371094 149.074219 110.867188 C 147.574219 112.367188 146.824219 113.863281 146.824219 113.863281 C 146.824219 113.863281 148.324219 113.117188 149.824219 111.617188 C 151.320312 110.121094 152.070312 108.621094 152.070312 108.621094 Z M 59.179688 109.371094 C 59.929688 110.867188 61.425781 112.367188 62.925781 113.117188 C 62.925781 113.117188 63.675781 113.117188 62.925781 113.117188 C 61.425781 111.617188 60.679688 110.121094 59.179688 109.371094 C 58.429688 108.621094 58.429688 108.621094 59.179688 109.371094 Z M 59.179688 109.371094 " fill-opacity="1" fill-rule="evenodd"/><path fill="#ffffff" d="M 97.382812 100.382812 C 97.382812 101.128906 96.636719 101.878906 95.886719 101.878906 L 84.648438 101.878906 C 83.902344 101.878906 83.152344 101.128906 83.152344 100.382812 L 83.152344 89.144531 C 83.152344 88.394531 83.902344 87.644531 84.648438 87.644531 L 95.886719 87.644531 C 96.636719 87.644531 97.382812 88.394531 97.382812 89.144531 Z M 95.136719 90.640625 C 95.136719 90.640625 94.386719 90.640625 94.386719 90.640625 L 86.148438 90.640625 L 86.148438 98.882812 L 94.386719 98.882812 C 94.386719 98.882812 95.136719 98.882812 95.136719 98.882812 Z M 95.136719 90.640625 " fill-opacity="1" fill-rule="evenodd"/><path fill="#ffffff" d="M 126.601562 100.382812 C 126.601562 101.128906 125.851562 101.878906 125.101562 101.878906 L 113.863281 101.878906 C 113.117188 101.878906 112.367188 101.128906 112.367188 100.382812 L 112.367188 89.144531 C 112.367188 88.394531 113.117188 87.644531 113.863281 87.644531 L 125.101562 87.644531 C 125.851562 87.644531 126.601562 88.394531 126.601562 89.144531 Z M 123.601562 90.640625 L 115.363281 90.640625 L 115.363281 98.882812 L 123.601562 98.882812 Z M 123.601562 90.640625 " fill-opacity="1" fill-rule="evenodd"/></svg>