<svg xmlns="http://www.w3.org/2000/svg" xmlns:xlink="http://www.w3.org/1999/xlink" width="5000" zoomAndPan="magnify" viewBox="0 0 3750 3749.999967" height="5000" preserveAspectRatio="xMidYMid meet" version="1.0"><path fill="#8c52ff" d="M 3750 1875 C 3750 1905.6875 3749.246094 1936.351562 3747.742188 1967 C 3746.234375 1997.652344 3743.980469 2028.242188 3740.972656 2058.78125 C 3737.964844 2089.320312 3734.207031 2119.765625 3729.703125 2150.121094 C 3725.203125 2180.472656 3719.957031 2210.699219 3713.972656 2240.792969 C 3707.984375 2270.890625 3701.261719 2300.820312 3693.808594 2330.585938 C 3686.351562 2360.355469 3678.171875 2389.917969 3669.261719 2419.285156 C 3660.355469 2448.648438 3650.730469 2477.777344 3640.394531 2506.667969 C 3630.054688 2535.558594 3619.015625 2564.179688 3607.273438 2592.53125 C 3595.53125 2620.878906 3583.097656 2648.925781 3569.976562 2676.664062 C 3556.859375 2704.40625 3543.066406 2731.804688 3528.601562 2758.867188 C 3514.136719 2785.929688 3499.015625 2812.621094 3483.238281 2838.941406 C 3467.464844 2865.261719 3451.050781 2891.179688 3434.003906 2916.695312 C 3416.957031 2942.207031 3399.292969 2967.289062 3381.011719 2991.9375 C 3362.734375 3016.582031 3343.859375 3040.765625 3324.394531 3064.488281 C 3304.925781 3088.207031 3284.890625 3111.4375 3264.28125 3134.171875 C 3243.675781 3156.910156 3222.523438 3179.125 3200.824219 3200.824219 C 3179.125 3222.523438 3156.910156 3243.675781 3134.171875 3264.28125 C 3111.4375 3284.890625 3088.207031 3304.925781 3064.488281 3324.394531 C 3040.765625 3343.859375 3016.582031 3362.734375 2991.9375 3381.011719 C 2967.289062 3399.292969 2942.207031 3416.957031 2916.695312 3434.003906 C 2891.179688 3451.054688 2865.261719 3467.464844 2838.941406 3483.242188 C 2812.621094 3499.015625 2785.929688 3514.136719 2758.867188 3528.601562 C 2731.804688 3543.066406 2704.40625 3556.859375 2676.664062 3569.980469 C 2648.925781 3583.097656 2620.878906 3595.53125 2592.53125 3607.273438 C 2564.179688 3619.015625 2535.558594 3630.054688 2506.667969 3640.394531 C 2477.777344 3650.734375 2448.648438 3660.355469 2419.285156 3669.261719 C 2389.917969 3678.171875 2360.355469 3686.351562 2330.585938 3693.808594 C 2300.820312 3701.265625 2270.890625 3707.984375 2240.792969 3713.972656 C 2210.699219 3719.957031 2180.472656 3725.203125 2150.121094 3729.707031 C 2119.765625 3734.207031 2089.320312 3737.964844 2058.78125 3740.972656 C 2028.242188 3743.980469 1997.652344 3746.234375 1967 3747.742188 C 1936.351562 3749.246094 1905.6875 3750 1875 3750 C 1844.3125 3750 1813.648438 3749.246094 1783 3747.742188 C 1752.347656 3746.234375 1721.753906 3743.980469 1691.21875 3740.972656 C 1660.679688 3737.964844 1630.234375 3734.207031 1599.878906 3729.707031 C 1569.527344 3725.203125 1539.300781 3719.957031 1509.207031 3713.972656 C 1479.109375 3707.984375 1449.179688 3701.265625 1419.410156 3693.808594 C 1389.644531 3686.351562 1360.082031 3678.171875 1330.714844 3669.261719 C 1301.351562 3660.355469 1272.222656 3650.730469 1243.332031 3640.394531 C 1214.4375 3630.054688 1185.816406 3619.015625 1157.46875 3607.273438 C 1129.117188 3595.53125 1101.074219 3583.097656 1073.335938 3569.976562 C 1045.59375 3556.859375 1018.191406 3543.066406 991.132812 3528.601562 C 964.070312 3514.136719 937.378906 3499.015625 911.058594 3483.238281 C 884.738281 3467.464844 858.820312 3451.050781 833.304688 3434.003906 C 807.792969 3416.957031 782.710938 3399.292969 758.0625 3381.011719 C 733.417969 3362.734375 709.234375 3343.859375 685.511719 3324.394531 C 661.792969 3304.925781 638.5625 3284.890625 615.828125 3264.28125 C 593.089844 3243.675781 570.871094 3222.523438 549.175781 3200.824219 C 527.476562 3179.125 506.324219 3156.910156 485.714844 3134.171875 C 465.109375 3111.4375 445.070312 3088.207031 425.605469 3064.488281 C 406.136719 3040.765625 387.265625 3016.582031 368.984375 2991.9375 C 350.707031 2967.289062 333.042969 2942.207031 315.996094 2916.695312 C 298.945312 2891.179688 282.535156 2865.261719 266.757812 2838.941406 C 250.984375 2812.621094 235.863281 2785.929688 221.398438 2758.867188 C 206.933594 2731.804688 193.140625 2704.40625 180.019531 2676.664062 C 166.898438 2648.925781 154.46875 2620.878906 142.726562 2592.53125 C 130.984375 2564.179688 119.941406 2535.558594 109.605469 2506.667969 C 99.265625 2477.777344 89.644531 2448.648438 80.738281 2419.285156 C 71.828125 2389.917969 63.648438 2360.355469 56.191406 2330.585938 C 48.734375 2300.820312 42.015625 2270.890625 36.027344 2240.792969 C 30.042969 2210.699219 24.796875 2180.472656 20.292969 2150.121094 C 15.792969 2119.765625 12.035156 2089.320312 9.027344 2058.78125 C 6.019531 2028.242188 3.765625 1997.652344 2.257812 1967 C 0.753906 1936.351562 0 1905.6875 0 1875 C 0 1844.3125 0.753906 1813.648438 2.257812 1783 C 3.765625 1752.347656 6.019531 1721.753906 9.027344 1691.21875 C 12.035156 1660.679688 15.792969 1630.234375 20.292969 1599.878906 C 24.796875 1569.527344 30.042969 1539.300781 36.027344 1509.207031 C 42.015625 1479.109375 48.734375 1449.179688 56.191406 1419.410156 C 63.648438 1389.644531 71.828125 1360.082031 80.738281 1330.714844 C 89.644531 1301.351562 99.265625 1272.222656 109.605469 1243.332031 C 119.941406 1214.4375 130.984375 1185.816406 142.726562 1157.46875 C 154.46875 1129.117188 166.898438 1101.074219 180.019531 1073.335938 C 193.140625 1045.59375 206.933594 1018.195312 221.398438 991.132812 C 235.863281 964.070312 250.984375 937.378906 266.757812 911.058594 C 282.535156 884.738281 298.945312 858.820312 315.996094 833.304688 C 333.042969 807.792969 350.707031 782.710938 368.984375 758.0625 C 387.265625 733.417969 406.136719 709.234375 425.605469 685.511719 C 445.070312 661.792969 465.109375 638.5625 485.714844 615.828125 C 506.324219 593.089844 527.476562 570.871094 549.175781 549.175781 C 570.871094 527.476562 593.089844 506.324219 615.828125 485.714844 C 638.5625 465.109375 661.792969 445.070312 685.511719 425.605469 C 709.234375 406.136719 733.417969 387.265625 758.0625 368.984375 C 782.710938 350.707031 807.792969 333.042969 833.304688 315.996094 C 858.820312 298.945312 884.738281 282.535156 911.058594 266.757812 C 937.378906 250.984375 964.070312 235.863281 991.132812 221.398438 C 1018.191406 206.933594 1045.59375 193.140625 1073.332031 180.019531 C 1101.074219 166.898438 1129.117188 154.46875 1157.46875 142.726562 C 1185.816406 130.984375 1214.4375 119.941406 1243.332031 109.605469 C 1272.222656 99.265625 1301.351562 89.644531 1330.714844 80.738281 C 1360.082031 71.828125 1389.644531 63.648438 1419.410156 56.191406 C 1449.179688 48.734375 1479.109375 42.015625 1509.207031 36.027344 C 1539.300781 30.042969 1569.527344 24.796875 1599.878906 20.292969 C 1630.234375 15.792969 1660.679688 12.035156 1691.21875 9.027344 C 1721.753906 6.019531 1752.347656 3.765625 1782.996094 2.257812 C 1813.648438 0.753906 1844.3125 0 1875 0 C 1905.6875 0 1936.351562 0.753906 1967 2.257812 C 1997.652344 3.765625 2028.242188 6.019531 2058.78125 9.027344 C 2089.320312 12.035156 2119.765625 15.792969 2150.121094 20.292969 C 2180.472656 24.796875 2210.699219 30.042969 2240.792969 36.027344 C 2270.890625 42.015625 2300.820312 48.734375 2330.585938 56.191406 C 2360.355469 63.648438 2389.917969 71.828125 2419.285156 80.738281 C 2448.648438 89.644531 2477.777344 99.265625 2506.667969 109.605469 C 2535.558594 119.941406 2564.179688 130.984375 2592.53125 142.726562 C 2620.878906 154.46875 2648.925781 166.898438 2676.664062 180.019531 C 2704.40625 193.140625 2731.804688 206.933594 2758.867188 221.398438 C 2785.929688 235.863281 2812.621094 250.984375 2838.941406 266.757812 C 2865.261719 282.535156 2891.179688 298.945312 2916.695312 315.996094 C 2942.207031 333.042969 2967.289062 350.707031 2991.9375 368.984375 C 3016.582031 387.265625 3040.765625 406.136719 3064.488281 425.605469 C 3088.207031 445.070312 3111.4375 465.109375 3134.171875 485.714844 C 3156.910156 506.324219 3179.125 527.476562 3200.824219 549.175781 C 3222.523438 570.871094 3243.675781 593.089844 3264.28125 615.828125 C 3284.890625 638.5625 3304.925781 661.792969 3324.394531 685.511719 C 3343.859375 709.234375 3362.734375 733.417969 3381.011719 758.0625 C 3399.292969 782.710938 3416.957031 807.792969 3434.003906 833.304688 C 3451.054688 858.820312 3467.464844 884.738281 3483.242188 911.058594 C 3499.015625 937.378906 3514.136719 964.070312 3528.601562 991.132812 C 3543.066406 1018.195312 3556.859375 1045.59375 3569.980469 1073.335938 C 3583.097656 1101.074219 3595.53125 1129.117188 3607.273438 1157.46875 C 3619.015625 1185.816406 3630.054688 1214.4375 3640.394531 1243.332031 C 3650.734375 1272.222656 3660.355469 1301.351562 3669.261719 1330.714844 C 3678.171875 1360.082031 3686.351562 1389.644531 3693.808594 1419.414062 C 3701.265625 1449.179688 3707.984375 1479.109375 3713.972656 1509.207031 C 3719.957031 1539.300781 3725.203125 1569.527344 3729.707031 1599.878906 C 3734.207031 1630.234375 3737.964844 1660.679688 3740.972656 1691.21875 C 3743.980469 1721.753906 3746.234375 1752.347656 3747.742188 1782.996094 C 3749.246094 1813.648438 3750 1844.3125 3750 1875 Z M 3750 1875 " fill-opacity="1" fill-rule="nonzero"/><path fill="#ffffff" d="M 1692.871094 3065.550781 C 1606.703125 3065.550781 1520.953125 3056.316406 1437.863281 3037.992188 C 1254.195312 2997.425781 1085.636719 2914.476562 936.660156 2791.378906 C 806.289062 2683.667969 702.496094 2553.574219 628.21875 2404.738281 C 556.875 2261.777344 515.609375 2108.046875 505.820312 1947.878906 C 496.027344 1787.152344 518.269531 1628.945312 571.984375 1477.730469 C 627.519531 1321.339844 713.824219 1180.476562 828.808594 1059.058594 C 979.605469 899.871094 1168.027344 785.304688 1373.796875 727.953125 C 1566.976562 674.097656 1773.304688 670.183594 1970.539062 716.902344 C 1975.996094 718.164062 1981.453125 719.5625 1986.90625 720.960938 L 1991.242188 722.078125 C 2002.152344 724.738281 2012.785156 727.675781 2022.996094 730.613281 L 2024.394531 731.03125 C 2029.570312 732.570312 2034.886719 733.96875 2040.203125 735.648438 L 2045.238281 737.1875 C 2054.890625 740.125 2064.820312 743.339844 2074.195312 746.417969 L 2077.691406 747.539062 C 2082.726562 749.214844 2087.621094 751.035156 2092.519531 752.714844 L 2098.8125 754.953125 C 2107.207031 758.03125 2115.738281 761.105469 2123.851562 764.324219 L 2125.671875 765.023438 C 2127.351562 765.582031 2128.886719 766.28125 2130.425781 766.84375 C 2134.902344 768.519531 2139.378906 770.339844 2143.855469 772.15625 C 2146.234375 773.136719 2148.613281 773.976562 2150.988281 775.09375 L 2151.96875 775.515625 C 2158.824219 778.453125 2165.679688 781.390625 2172.53125 784.328125 L 2174.070312 785.027344 C 2176.730469 786.144531 2179.386719 787.40625 2182.183594 788.523438 C 2186.242188 790.34375 2190.15625 792.019531 2193.933594 793.839844 C 2197.429688 795.519531 2200.929688 797.058594 2204.425781 798.734375 C 2209.742188 801.113281 2215.058594 803.769531 2220.371094 806.429688 C 2224.570312 808.527344 2228.765625 810.484375 2232.960938 812.722656 C 2236.320312 814.402344 2239.675781 816.082031 2243.171875 817.898438 C 2247.371094 820.136719 2251.566406 822.375 2255.761719 824.613281 C 2259.679688 826.710938 2263.597656 828.808594 2267.375 830.910156 C 2272.550781 833.707031 2277.585938 836.363281 2282.480469 839.300781 C 2285.277344 840.839844 2288.214844 842.660156 2291.152344 844.199219 C 2296.050781 847.136719 2301.085938 850.074219 2305.839844 852.871094 C 2308.5 854.410156 2311.015625 855.949219 2313.675781 857.625 C 2319.269531 861.125 2325.003906 864.621094 2330.742188 868.257812 C 2333.117188 869.796875 2335.496094 871.335938 2337.875 872.875 C 2343.46875 876.511719 2349.066406 880.148438 2354.519531 883.785156 L 2358.71875 886.722656 C 2365.011719 890.917969 2371.167969 895.117188 2377.183594 899.589844 C 2379.28125 900.992188 2381.238281 902.390625 2383.335938 903.789062 C 2389.351562 908.125 2395.226562 912.460938 2401.101562 916.9375 L 2403.199219 918.476562 C 2409.496094 923.230469 2415.929688 928.128906 2422.222656 933.023438 L 2427.398438 937.21875 C 2433.695312 942.117188 2439.851562 947.152344 2445.863281 952.1875 L 2446.703125 952.886719 C 2452.859375 958.0625 2459.015625 963.378906 2465.308594 968.832031 L 2470.066406 972.890625 C 2476.21875 978.347656 2482.375 983.800781 2488.527344 989.535156 C 2498.320312 998.488281 2499.859375 1013.457031 2492.027344 1024.367188 C 2484.191406 1035.140625 2469.503906 1038.355469 2457.753906 1031.78125 C 2426.140625 1014.15625 2392.988281 997.929688 2359.835938 983.800781 C 2236.320312 931.625 2105.949219 905.886719 1972.359375 907.144531 C 1729.941406 909.664062 1498.851562 1001.988281 1321.621094 1167.050781 C 1296.023438 1190.828125 1271.542969 1216.289062 1248.601562 1242.726562 C 1180.757812 1321.339844 1126.203125 1409.328125 1086.753906 1504.589844 C 1081.578125 1517.039062 1076.683594 1529.628906 1072.066406 1542.21875 C 1049.128906 1604.605469 1032.621094 1669.652344 1022.96875 1735.675781 C 1021.011719 1748.683594 1019.472656 1761.972656 1017.933594 1775.121094 C 1017.375 1781.699219 1016.675781 1788.273438 1016.113281 1794.847656 C 1013.316406 1827.71875 1012.199219 1861.152344 1012.898438 1894.023438 C 1012.898438 1900.597656 1013.175781 1907.3125 1013.457031 1913.886719 C 1014.15625 1933.609375 1015.554688 1953.613281 1017.652344 1973.339844 C 1020.3125 1999.636719 1024.085938 2026.074219 1028.84375 2051.953125 C 1032.480469 2071.535156 1036.675781 2091.261719 1041.433594 2110.285156 C 1046.328125 2129.726562 1051.785156 2149.03125 1057.941406 2168.054688 C 1065.914062 2193.515625 1075.144531 2218.972656 1085.355469 2243.453125 C 1090.53125 2255.902344 1095.988281 2268.351562 1101.582031 2280.382812 C 1107.179688 2292.691406 1113.195312 2304.863281 1119.347656 2316.890625 C 1141.171875 2359.277344 1166.488281 2400.402344 1194.605469 2439.152344 C 1279.933594 2557.351562 1383.449219 2651.214844 1501.929688 2718.21875 C 1526.96875 2732.207031 1553.128906 2745.496094 1579.566406 2757.386719 C 1592.996094 2763.261719 1606.5625 2768.996094 1620.132812 2774.3125 C 1667.832031 2793.054688 1718.609375 2808.441406 1770.925781 2820.054688 C 1785.894531 2823.410156 1801 2826.488281 1815.828125 2829.007812 C 1845.484375 2834.320312 1875.28125 2838.238281 1904.515625 2840.757812 C 1919.203125 2842.015625 1933.890625 2842.996094 1948.4375 2843.554688 C 1955.710938 2843.832031 1962.988281 2843.972656 1970.261719 2844.113281 C 1977.535156 2844.253906 1984.808594 2844.394531 1992.082031 2844.253906 C 1999.355469 2844.253906 2006.628906 2844.113281 2013.765625 2843.832031 C 2056.847656 2842.714844 2100.074219 2838.378906 2142.597656 2831.105469 C 2247.789062 2813.199219 2352.5625 2776.410156 2453.976562 2721.714844 C 2465.589844 2715.558594 2479.855469 2718.636719 2487.691406 2729.128906 C 2495.382812 2739.621094 2494.40625 2754.308594 2485.171875 2763.539062 C 2484.890625 2763.820312 2484.613281 2763.960938 2484.332031 2764.238281 C 2479.15625 2769.136719 2473.980469 2774.03125 2468.527344 2778.789062 C 2467.40625 2779.765625 2466.148438 2780.886719 2464.890625 2782.003906 L 2463.351562 2783.265625 C 2459.574219 2786.621094 2455.65625 2789.980469 2451.878906 2793.335938 C 2450.0625 2794.875 2447.964844 2796.691406 2446.144531 2798.230469 C 2442.226562 2801.589844 2438.3125 2804.804688 2434.253906 2808.023438 L 2429.21875 2812.359375 C 2423.484375 2816.835938 2417.886719 2821.3125 2412.152344 2825.648438 L 2408.515625 2828.445312 C 2404.039062 2831.945312 2399.421875 2835.441406 2394.808594 2838.796875 C 2392.988281 2840.195312 2391.171875 2841.457031 2389.351562 2842.855469 L 2388.09375 2843.832031 C 2384.457031 2846.492188 2380.679688 2849.148438 2376.902344 2851.808594 C 2374.523438 2853.484375 2372.144531 2855.164062 2369.628906 2856.984375 C 2365.851562 2859.640625 2361.933594 2862.296875 2358.15625 2864.816406 L 2355.78125 2866.496094 C 2354.242188 2867.472656 2352.703125 2868.453125 2351.304688 2869.433594 C 2345.566406 2873.210938 2339.832031 2876.984375 2333.957031 2880.761719 C 2332.28125 2881.882812 2330.601562 2883 2328.921875 2883.980469 L 2326.402344 2885.660156 C 2322.765625 2887.898438 2319.128906 2890.136719 2315.492188 2892.375 C 2312.414062 2894.332031 2309.476562 2896.148438 2306.402344 2897.828125 C 2303.183594 2899.789062 2299.964844 2901.746094 2296.75 2903.5625 C 2293.53125 2905.523438 2290.3125 2907.480469 2287.097656 2909.160156 C 2284.300781 2910.839844 2281.5 2912.375 2278.703125 2913.914062 L 2277.585938 2914.613281 C 2271.289062 2918.113281 2264.996094 2921.46875 2258.699219 2924.828125 L 2256.042969 2926.226562 C 2254.222656 2927.203125 2252.265625 2928.324219 2250.449219 2929.164062 C 2247.089844 2930.980469 2243.734375 2932.660156 2240.375 2934.339844 L 2237.296875 2935.878906 C 2235.199219 2936.996094 2233.101562 2938.117188 2231.003906 2939.09375 C 2226.945312 2941.191406 2222.890625 2943.152344 2218.832031 2945.109375 C 2216.457031 2946.230469 2213.9375 2947.488281 2211.558594 2948.605469 C 2207.363281 2950.703125 2203.167969 2952.804688 2198.832031 2954.621094 L 2193.933594 2957 C 2178.546875 2963.992188 2162.601562 2970.847656 2146.792969 2977.28125 L 2141.898438 2979.242188 C 2137 2981.199219 2131.964844 2983.296875 2126.789062 2985.117188 L 2122.59375 2986.792969 C 2099.375 2995.609375 2075.453125 3003.859375 2051.671875 3011.273438 L 2048.875 3012.113281 C 2043 3013.933594 2037.125 3015.609375 2031.390625 3017.289062 L 2030.128906 3017.710938 L 2022.4375 2992.53125 L 2029.851562 3017.847656 C 2004.8125 3024.984375 1979.492188 3031.558594 1954.035156 3037.152344 L 1951.9375 3037.574219 C 1867.027344 3056.175781 1779.878906 3065.550781 1693.289062 3065.550781 Z M 1692.871094 3065.550781 " fill-opacity="1" fill-rule="evenodd"/><path fill="#ffffff" d="M 2839.21875 2426.421875 C 2831.105469 2426.421875 2823.410156 2422.785156 2818.234375 2416.070312 L 2814.738281 2411.453125 C 2813.617188 2410.054688 2812.640625 2408.796875 2811.800781 2407.535156 L 2699.894531 2253.664062 C 2664.363281 2204.707031 2628.832031 2155.746094 2593.300781 2106.785156 C 2494.683594 2139.101562 2394.667969 2171.554688 2297.867188 2203.027344 L 2237.4375 2222.609375 C 2235.898438 2223.171875 2234.222656 2223.589844 2232.121094 2224.148438 L 2229.046875 2224.988281 C 2218.273438 2227.925781 2206.804688 2223.871094 2200.507812 2214.777344 C 2194.074219 2205.542969 2194.074219 2193.515625 2200.507812 2184.421875 L 2202.886719 2181.066406 C 2204.285156 2179.105469 2205.40625 2177.429688 2206.523438 2175.890625 L 2244.710938 2123.292969 C 2303.882812 2042.019531 2364.871094 1958.089844 2425.160156 1875.417969 C 2362.773438 1789.8125 2300.664062 1704.34375 2238.558594 1618.871094 L 2205.40625 1573.269531 C 2204.425781 1572.011719 2203.585938 1570.613281 2202.328125 1568.65625 L 2200.230469 1565.71875 C 2193.933594 1556.484375 2194.214844 1544.175781 2200.929688 1535.082031 C 2207.644531 1525.992188 2219.394531 1522.351562 2230.023438 1525.710938 L 2247.648438 1531.445312 C 2259.820312 1535.363281 2271.429688 1539.140625 2283.039062 1542.917969 L 2322.628906 1555.785156 C 2411.3125 1584.601562 2502.9375 1614.398438 2593.300781 1643.914062 C 2654.292969 1559.5625 2715.421875 1475.492188 2776.550781 1391.421875 L 2809.5625 1346.101562 C 2810.960938 1344 2812.5 1342.042969 2814.457031 1339.527344 L 2817.816406 1334.910156 C 2824.53125 1325.816406 2836.417969 1321.898438 2847.191406 1325.539062 C 2857.960938 1329.035156 2865.375 1339.246094 2865.375 1350.578125 L 2865.375 1431.707031 C 2865.375 1530.1875 2865.375 1632.023438 2865.097656 1732.320312 C 2965.390625 1764.632812 3066.949219 1797.644531 3165.285156 1829.675781 L 3225.15625 1849.121094 C 3226.414062 1849.542969 3228.09375 1850.101562 3229.214844 1850.660156 C 3229.351562 1850.800781 3230.050781 1851.21875 3231.03125 1851.640625 L 3231.449219 1851.917969 L 3232.429688 1852.480469 C 3241.800781 1857.515625 3247.117188 1867.585938 3246.277344 1878.078125 C 3245.300781 1888.570312 3238.164062 1897.519531 3228.234375 1900.878906 L 3011.972656 1971.101562 C 2963.015625 1986.90625 2914.195312 2002.851562 2865.375 2018.519531 C 2865.375 2122.59375 2865.375 2226.667969 2865.375 2330.601562 L 2865.375 2399.984375 C 2865.375 2411.171875 2858.242188 2421.246094 2847.46875 2424.882812 C 2844.8125 2425.863281 2841.875 2426.421875 2839.078125 2426.421875 Z M 2839.21875 2426.421875 " fill-opacity="1" fill-rule="evenodd"/></svg>