<svg xmlns="http://www.w3.org/2000/svg" xmlns:xlink="http://www.w3.org/1999/xlink" width="575" zoomAndPan="magnify" viewBox="0 0 431.25 431.249985" height="575" preserveAspectRatio="xMidYMid meet" version="1.0"><defs><clipPath id="431d096fb5"><path d="M 0 0 L 430.5 0 L 430.5 430.5 L 0 430.5 Z M 0 0 " clip-rule="nonzero"/></clipPath></defs><g clip-path="url(#431d096fb5)"><path fill="#5271ff" d="M 431.25 215.625 C 431.25 219.152344 431.164062 222.679688 430.992188 226.207031 C 430.816406 229.730469 430.558594 233.246094 430.210938 236.761719 C 429.867188 240.273438 429.433594 243.773438 428.917969 247.265625 C 428.398438 250.753906 427.796875 254.230469 427.105469 257.691406 C 426.417969 261.152344 425.644531 264.59375 424.789062 268.015625 C 423.929688 271.441406 422.988281 274.839844 421.964844 278.21875 C 420.941406 281.59375 419.835938 284.945312 418.644531 288.265625 C 417.457031 291.589844 416.1875 294.878906 414.835938 298.140625 C 413.484375 301.402344 412.054688 304.625 410.546875 307.816406 C 409.039062 311.007812 407.453125 314.15625 405.789062 317.269531 C 404.125 320.382812 402.386719 323.453125 400.574219 326.476562 C 398.757812 329.503906 396.871094 332.484375 394.910156 335.417969 C 392.949219 338.355469 390.917969 341.238281 388.816406 344.074219 C 386.714844 346.90625 384.542969 349.6875 382.304688 352.414062 C 380.066406 355.144531 377.761719 357.816406 375.390625 360.429688 C 373.023438 363.042969 370.589844 365.597656 368.09375 368.09375 C 365.597656 370.589844 363.042969 373.023438 360.429688 375.390625 C 357.816406 377.761719 355.144531 380.066406 352.414062 382.304688 C 349.6875 384.542969 346.90625 386.714844 344.074219 388.816406 C 341.238281 390.917969 338.355469 392.949219 335.417969 394.910156 C 332.484375 396.871094 329.503906 398.757812 326.476562 400.574219 C 323.453125 402.386719 320.382812 404.125 317.269531 405.789062 C 314.15625 407.453125 311.007812 409.039062 307.816406 410.546875 C 304.625 412.054688 301.402344 413.484375 298.140625 414.835938 C 294.878906 416.1875 291.589844 417.457031 288.265625 418.644531 C 284.945312 419.835938 281.59375 420.941406 278.21875 421.964844 C 274.839844 422.988281 271.441406 423.929688 268.015625 424.789062 C 264.59375 425.644531 261.152344 426.417969 257.691406 427.105469 C 254.230469 427.796875 250.753906 428.398438 247.265625 428.917969 C 243.773438 429.433594 240.273438 429.867188 236.761719 430.210938 C 233.246094 430.558594 229.730469 430.816406 226.207031 430.988281 C 222.679688 431.164062 219.152344 431.25 215.625 431.25 C 212.097656 431.25 208.570312 431.164062 205.042969 430.988281 C 201.519531 430.816406 198 430.558594 194.488281 430.210938 C 190.976562 429.867188 187.476562 429.433594 183.984375 428.917969 C 180.496094 428.398438 177.019531 427.796875 173.558594 427.105469 C 170.097656 426.417969 166.65625 425.644531 163.230469 424.789062 C 159.808594 423.929688 156.410156 422.988281 153.03125 421.964844 C 149.65625 420.941406 146.304688 419.835938 142.984375 418.644531 C 139.660156 417.457031 136.367188 416.1875 133.109375 414.835938 C 129.847656 413.484375 126.625 412.054688 123.433594 410.546875 C 120.242188 409.039062 117.09375 407.453125 113.980469 405.789062 C 110.867188 404.125 107.796875 402.386719 104.773438 400.574219 C 101.746094 398.757812 98.765625 396.871094 95.832031 394.910156 C 92.894531 392.949219 90.011719 390.917969 87.175781 388.816406 C 84.34375 386.714844 81.5625 384.542969 78.832031 382.304688 C 76.105469 380.066406 73.433594 377.761719 70.820312 375.390625 C 68.207031 373.023438 65.648438 370.589844 63.15625 368.09375 C 60.660156 365.597656 58.226562 363.042969 55.855469 360.429688 C 53.488281 357.816406 51.183594 355.144531 48.945312 352.414062 C 46.707031 349.6875 44.535156 346.90625 42.433594 344.074219 C 40.332031 341.238281 38.300781 338.355469 36.339844 335.417969 C 34.378906 332.484375 32.492188 329.503906 30.675781 326.476562 C 28.863281 323.453125 27.125 320.382812 25.460938 317.269531 C 23.796875 314.15625 22.210938 311.007812 20.703125 307.816406 C 19.195312 304.625 17.765625 301.402344 16.414062 298.140625 C 15.0625 294.878906 13.792969 291.589844 12.605469 288.265625 C 11.414062 284.945312 10.308594 281.59375 9.285156 278.21875 C 8.261719 274.839844 7.320312 271.441406 6.460938 268.015625 C 5.605469 264.59375 4.832031 261.152344 4.144531 257.691406 C 3.453125 254.230469 2.851562 250.753906 2.332031 247.265625 C 1.816406 243.773438 1.382812 240.273438 1.039062 236.761719 C 0.691406 233.246094 0.433594 229.730469 0.257812 226.207031 C 0.0859375 222.679688 0 219.152344 0 215.625 C 0 212.097656 0.0859375 208.570312 0.257812 205.042969 C 0.433594 201.519531 0.691406 198 1.039062 194.488281 C 1.382812 190.976562 1.816406 187.476562 2.332031 183.984375 C 2.851562 180.496094 3.453125 177.019531 4.144531 173.558594 C 4.832031 170.097656 5.605469 166.65625 6.460938 163.230469 C 7.320312 159.808594 8.261719 156.410156 9.285156 153.03125 C 10.308594 149.65625 11.414062 146.304688 12.605469 142.984375 C 13.792969 139.660156 15.0625 136.367188 16.414062 133.109375 C 17.765625 129.847656 19.195312 126.625 20.703125 123.433594 C 22.210938 120.242188 23.796875 117.09375 25.460938 113.980469 C 27.125 110.867188 28.863281 107.796875 30.675781 104.773438 C 32.492188 101.746094 34.378906 98.765625 36.339844 95.832031 C 38.300781 92.894531 40.332031 90.011719 42.433594 87.175781 C 44.535156 84.34375 46.707031 81.5625 48.945312 78.832031 C 51.183594 76.105469 53.488281 73.433594 55.855469 70.820312 C 58.226562 68.207031 60.660156 65.648438 63.15625 63.15625 C 65.648438 60.660156 68.207031 58.226562 70.820312 55.855469 C 73.433594 53.488281 76.105469 51.183594 78.832031 48.945312 C 81.5625 46.707031 84.34375 44.535156 87.175781 42.433594 C 90.011719 40.332031 92.894531 38.300781 95.832031 36.339844 C 98.765625 34.378906 101.746094 32.492188 104.773438 30.675781 C 107.796875 28.863281 110.867188 27.125 113.980469 25.460938 C 117.09375 23.796875 120.242188 22.210938 123.433594 20.703125 C 126.625 19.195312 129.847656 17.765625 133.109375 16.414062 C 136.367188 15.0625 139.660156 13.792969 142.984375 12.605469 C 146.304688 11.414062 149.65625 10.308594 153.03125 9.285156 C 156.410156 8.261719 159.808594 7.320312 163.230469 6.460938 C 166.65625 5.605469 170.097656 4.832031 173.558594 4.144531 C 177.019531 3.453125 180.496094 2.851562 183.984375 2.332031 C 187.476562 1.816406 190.976562 1.382812 194.488281 1.039062 C 198 0.691406 201.519531 0.433594 205.042969 0.257812 C 208.570312 0.0859375 212.097656 0 215.625 0 C 219.152344 0 222.679688 0.0859375 226.207031 0.257812 C 229.730469 0.433594 233.246094 0.691406 236.761719 1.039062 C 240.273438 1.382812 243.773438 1.816406 247.265625 2.332031 C 250.753906 2.851562 254.230469 3.453125 257.691406 4.144531 C 261.152344 4.832031 264.59375 5.605469 268.015625 6.460938 C 271.441406 7.320312 274.839844 8.261719 278.21875 9.285156 C 281.59375 10.308594 284.945312 11.414062 288.265625 12.605469 C 291.589844 13.792969 294.878906 15.0625 298.140625 16.414062 C 301.402344 17.765625 304.625 19.195312 307.816406 20.703125 C 311.007812 22.210938 314.15625 23.796875 317.269531 25.460938 C 320.382812 27.125 323.453125 28.863281 326.476562 30.675781 C 329.503906 32.492188 332.484375 34.378906 335.417969 36.339844 C 338.355469 38.300781 341.238281 40.332031 344.074219 42.433594 C 346.90625 44.535156 349.6875 46.707031 352.414062 48.945312 C 355.144531 51.183594 357.816406 53.488281 360.429688 55.855469 C 363.042969 58.226562 365.597656 60.660156 368.09375 63.15625 C 370.589844 65.648438 373.023438 68.207031 375.390625 70.820312 C 377.761719 73.433594 380.066406 76.105469 382.304688 78.832031 C 384.542969 81.5625 386.714844 84.34375 388.816406 87.175781 C 390.917969 90.011719 392.949219 92.894531 394.910156 95.832031 C 396.871094 98.765625 398.757812 101.746094 400.574219 104.773438 C 402.386719 107.796875 404.125 110.867188 405.789062 113.980469 C 407.453125 117.09375 409.039062 120.242188 410.546875 123.433594 C 412.054688 126.625 413.484375 129.847656 414.835938 133.109375 C 416.1875 136.367188 417.457031 139.660156 418.644531 142.984375 C 419.835938 146.304688 420.941406 149.65625 421.964844 153.03125 C 422.988281 156.410156 423.929688 159.808594 424.789062 163.230469 C 425.644531 166.65625 426.417969 170.097656 427.105469 173.558594 C 427.796875 177.019531 428.398438 180.496094 428.917969 183.984375 C 429.433594 187.476562 429.867188 190.976562 430.210938 194.488281 C 430.558594 198 430.816406 201.519531 430.992188 205.042969 C 431.164062 208.570312 431.25 212.097656 431.25 215.625 Z M 431.25 215.625 " fill-opacity="1" fill-rule="nonzero"/></g><path fill="#ffffff" d="M 217.871094 321.941406 C 209.636719 326.433594 202.898438 330.925781 195.410156 334.667969 C 178.191406 342.902344 160.222656 345.148438 143 338.410156 C 131.023438 333.917969 119.042969 329.425781 107.8125 324.1875 C 92.089844 316.699219 83.855469 303.972656 82.355469 286.75 C 81.609375 283.757812 82.355469 280.011719 83.105469 277.019531 C 84.601562 269.53125 86.101562 262.042969 85.351562 253.808594 C 84.601562 245.574219 86.847656 238.085938 90.59375 230.597656 C 92.839844 226.105469 95.085938 221.613281 98.078125 217.121094 C 106.316406 203.644531 119.792969 196.160156 133.269531 189.421875 C 139.257812 186.425781 140.007812 186.425781 139.257812 180.4375 C 138.507812 166.960938 139.257812 154.230469 143 142.253906 C 148.242188 126.53125 157.226562 114.550781 170.703125 106.316406 C 176.691406 102.570312 182.683594 98.078125 187.921875 93.585938 C 190.917969 91.339844 193.164062 89.09375 196.160156 87.597656 C 211.132812 77.117188 226.105469 81.609375 241.082031 88.347656 C 243.328125 89.09375 244.824219 91.339844 246.320312 92.089844 C 253.058594 97.332031 259.050781 103.320312 267.285156 107.8125 C 279.265625 114.550781 287.5 125.78125 292.742188 139.257812 C 297.234375 150.488281 298.730469 163.214844 296.484375 175.945312 C 296.484375 177.441406 296.484375 178.9375 296.484375 181.183594 C 295.734375 184.929688 297.234375 187.921875 301.726562 190.167969 C 310.710938 193.914062 318.195312 198.40625 325.683594 205.144531 C 340.65625 217.871094 348.894531 233.59375 349.640625 253.808594 C 349.640625 260.546875 351.140625 267.285156 352.636719 274.023438 C 356.378906 290.496094 349.640625 308.464844 336.164062 318.945312 C 328.679688 324.1875 320.441406 327.179688 312.207031 329.425781 C 309.960938 330.175781 306.964844 330.925781 305.46875 332.421875 C 298.730469 339.910156 290.496094 340.65625 281.511719 341.40625 C 262.792969 343.652344 244.824219 339.910156 229.101562 327.929688 C 225.359375 325.683594 221.613281 324.1875 217.871094 321.941406 Z M 252.3125 291.992188 C 254.558594 290.496094 257.550781 289.746094 259.050781 287.5 C 260.546875 286.003906 262.042969 283.007812 262.792969 280.011719 C 267.285156 267.285156 271.777344 255.304688 283.007812 246.320312 C 288.25 241.828125 287.5 233.59375 282.257812 228.351562 C 278.515625 224.609375 274.023438 220.117188 269.53125 217.871094 C 261.296875 212.628906 259.050781 205.144531 256.054688 196.90625 C 254.558594 193.164062 254.558594 188.671875 253.808594 184.179688 C 253.808594 181.183594 253.808594 178.191406 252.3125 175.945312 C 250.066406 168.457031 247.820312 166.210938 238.835938 167.707031 C 230.597656 169.207031 222.363281 170.703125 214.128906 170.703125 C 207.390625 170.703125 200.652344 168.457031 193.914062 166.960938 C 190.167969 166.210938 187.921875 166.960938 186.425781 169.207031 C 182.683594 174.445312 181.183594 179.6875 181.183594 185.675781 C 181.183594 195.410156 177.441406 204.394531 171.453125 211.882812 C 167.707031 217.121094 162.46875 220.117188 157.226562 223.859375 C 143 235.089844 145.996094 239.582031 156.476562 249.316406 C 164.714844 257.550781 171.453125 266.535156 172.199219 277.765625 C 172.949219 280.761719 174.445312 283.007812 175.195312 286.003906 C 177.441406 290.496094 182.683594 291.242188 186.425781 289.746094 C 194.660156 286.75 202.148438 283.757812 210.382812 280.761719 C 212.628906 280.011719 214.875 279.265625 217.121094 280.011719 C 226.855469 281.511719 236.589844 283.757812 244.824219 288.996094 C 247.070312 290.496094 249.316406 290.496094 252.3125 291.992188 Z M 127.277344 315.949219 C 143.75 317.449219 158.722656 303.972656 160.222656 281.511719 C 160.96875 268.035156 144.5 251.5625 130.273438 250.8125 C 107.8125 250.8125 96.582031 265.039062 95.085938 282.257812 C 92.839844 300.226562 110.058594 318.195312 127.277344 315.949219 Z M 310.710938 315.949219 C 319.695312 318.195312 325.683594 312.207031 332.421875 306.21875 C 339.160156 299.480469 341.40625 291.242188 340.65625 282.257812 C 339.910156 263.542969 326.433594 250.8125 306.964844 252.3125 C 286.003906 253.058594 277.019531 264.289062 276.269531 285.253906 C 275.519531 299.480469 291.992188 319.695312 310.710938 315.949219 Z M 217.121094 158.722656 C 238.085938 160.222656 249.316406 145.246094 250.066406 124.285156 C 250.8125 113.054688 237.335938 95.085938 220.117188 94.335938 C 202.898438 92.839844 184.929688 109.308594 184.929688 122.785156 C 184.929688 145.246094 201.398438 160.96875 217.121094 158.722656 Z M 97.332031 248.566406 C 109.308594 241.828125 119.792969 239.582031 131.023438 238.085938 C 132.519531 238.085938 136.261719 235.839844 136.261719 234.34375 C 138.507812 223.859375 145.996094 217.121094 154.230469 211.132812 C 157.976562 208.136719 162.46875 205.144531 163.964844 199.902344 C 159.472656 196.160156 155.730469 194.660156 150.488281 196.160156 C 134.765625 199.902344 121.289062 208.136719 110.808594 219.367188 C 106.316406 224.609375 104.070312 232.097656 100.324219 238.835938 C 99.578125 241.082031 98.828125 244.074219 97.332031 248.566406 Z M 263.542969 121.289062 C 264.289062 134.015625 257.550781 144.5 254.558594 154.980469 C 257.550781 160.222656 260.546875 163.964844 262.042969 168.457031 C 264.289062 175.195312 265.789062 183.429688 267.285156 190.917969 C 268.035156 195.410156 270.28125 198.40625 274.023438 200.652344 C 280.761719 196.90625 283.757812 190.167969 284.503906 183.429688 C 285.253906 170.703125 286.003906 157.976562 281.511719 145.246094 C 277.765625 135.515625 272.527344 128.027344 263.542969 121.289062 Z M 290.496094 327.179688 C 290.496094 327.179688 290.496094 326.433594 291.242188 325.683594 C 286.75 322.6875 282.257812 319.695312 278.515625 315.949219 C 276.269531 314.453125 274.023438 312.207031 272.527344 309.960938 C 268.78125 303.972656 264.289062 300.976562 258.300781 301.726562 C 249.316406 303.222656 241.828125 300.226562 234.34375 297.234375 C 229.101562 294.988281 223.113281 292.742188 216.375 293.488281 C 215.625 303.222656 220.117188 309.210938 227.605469 313.703125 C 233.59375 316.699219 239.582031 321.191406 245.574219 324.1875 C 256.054688 329.425781 266.535156 332.421875 277.765625 330.175781 C 282.257812 329.425781 286.003906 327.929688 290.496094 327.179688 Z M 166.960938 186.425781 C 167.707031 184.929688 167.707031 184.179688 168.457031 182.683594 C 172.199219 174.445312 175.945312 165.460938 179.6875 157.226562 C 181.183594 153.484375 181.183594 151.238281 178.9375 148.242188 C 174.445312 140.753906 172.949219 133.269531 173.699219 124.285156 C 173.699219 122.785156 172.949219 121.289062 172.199219 119.792969 C 171.453125 120.539062 171.453125 120.539062 170.703125 120.539062 C 154.980469 134.765625 151.238281 153.484375 150.488281 173.699219 C 150.488281 174.445312 151.238281 175.945312 151.984375 177.441406 C 154.230469 184.179688 160.96875 184.179688 166.960938 186.425781 Z M 143.75 327.179688 C 147.492188 327.929688 149.738281 328.679688 152.734375 328.679688 C 168.457031 332.421875 182.683594 329.425781 195.410156 321.191406 C 208.136719 313.703125 208.136719 313.703125 203.644531 299.480469 C 202.898438 299.480469 202.898438 298.730469 201.398438 297.980469 C 199.152344 298.730469 195.410156 298.730469 192.414062 299.480469 C 189.421875 300.226562 186.425781 301.726562 183.429688 301.726562 C 178.9375 302.472656 173.699219 300.226562 169.953125 302.472656 C 165.460938 304.71875 163.964844 309.960938 160.222656 313.703125 C 155.730469 318.195312 149.738281 321.941406 143.75 327.179688 Z M 292.742188 200.652344 C 291.242188 202.898438 289.746094 204.394531 288.25 206.640625 C 283.757812 212.628906 284.503906 213.378906 289.746094 218.621094 C 293.488281 223.113281 297.980469 228.351562 300.226562 233.59375 C 302.472656 237.335938 303.972656 238.835938 308.464844 238.835938 C 316.699219 239.582031 324.933594 241.082031 332.421875 245.574219 C 333.171875 246.320312 334.667969 246.320312 336.914062 247.070312 C 330.925781 221.613281 315.203125 204.394531 292.742188 200.652344 Z M 292.742188 200.652344 " fill-opacity="1" fill-rule="evenodd"/></svg>