<?xml version="1.0" encoding="UTF-8"?>
<svg id="Layer_2" xmlns="http://www.w3.org/2000/svg" viewBox="0 0 64 42.28">
  <defs>
    <style>
      .cls-1 {
        fill: #424242;
      }
    </style>
  </defs>
  <g id="Layer_1-2" data-name="Layer_1">
    <g>
      <path class="cls-1" d="M47.33,5.29c-.14,0-.25-.11-.25-.25v-2.6c0-.54.43-.98.95-.98h.89c.25,0,.45-.22.45-.48,0-.54.43-.98.95-.98h3.09c.14,0,.25.11.25.25s-.11.25-.25.25h-3.09c-.25,0-.45.22-.45.48,0,.54-.43.98-.95.98h-.89c-.25,0-.45.22-.45.48v2.6c0,.14-.11.25-.25.25Z"/>
      <path class="cls-1" d="M48.25,5.29c-.14,0-.25-.11-.25-.25v-1.59c0-.52.43-.95.95-.95h.89c.25,0,.45-.2.45-.45,0-.52.43-.95.95-.95h3.09c.14,0,.25.11.25.25s-.11.25-.25.25h-3.09c-.25,0-.45.2-.45.45,0,.52-.43.95-.95.95h-.89c-.25,0-.45.2-.45.45v1.59c0,.14-.11.25-.25.25Z"/>
      <path class="cls-1" d="M58.62,42.28h-7.32c-.14,0-.25-.11-.25-.25v-10.32c0-.14.11-.25.25-.25h7.32c.14,0,.25.11.25.25v10.32c0,.14-.11.25-.25.25ZM51.54,41.78h6.83v-9.82h-6.83v9.82Z"/>
      <path class="cls-1" d="M63.75,42.28H.25c-.14,0-.25-.11-.25-.25s.11-.25.25-.25h63.5c.14,0,.25.11.25.25s-.11.25-.25.25Z"/>
      <g>
        <path class="cls-1" d="M49.43,14.69h-3.73c-.14,0-.25-.11-.25-.25v-2.36c0-.14.11-.25.25-.25h3.73c.14,0,.25.11.25.25v2.36c0,.14-.11.25-.25.25ZM45.95,14.19h3.24v-1.86h-3.24v1.86Z"/>
        <path class="cls-1" d="M49.43,19.58h-3.73c-.14,0-.25-.11-.25-.25v-2.53c0-.14.11-.25.25-.25h3.73c.14,0,.25.11.25.25v2.53c0,.14-.11.25-.25.25ZM45.95,19.08h3.24v-2.03h-3.24v2.03Z"/>
        <path class="cls-1" d="M49.43,17.05h-3.73c-.14,0-.25-.11-.25-.25v-2.36c0-.14.11-.25.25-.25h3.73c.14,0,.25.11.25.25v2.36c0,.14-.11.25-.25.25ZM45.95,16.55h3.24v-1.86h-3.24v1.86Z"/>
        <path class="cls-1" d="M49.43,7.62h-3.73c-.14,0-.25-.11-.25-.25v-1.67c0-.14.11-.25.25-.25h3.73c.14,0,.25.11.25.25v1.67c0,.14-.11.25-.25.25ZM45.95,7.12h3.24v-1.17h-3.24v1.17Z"/>
        <path class="cls-1" d="M49.43,12.33h-3.73c-.14,0-.25-.11-.25-.25v-2.36c0-.14.11-.25.25-.25h3.73c.14,0,.25.11.25.25v2.36c0,.14-.11.25-.25.25ZM45.95,11.84h3.24v-1.86h-3.24v1.86Z"/>
        <path class="cls-1" d="M49.43,9.98h-3.73c-.14,0-.25-.11-.25-.25v-2.36c0-.14.11-.25.25-.25h3.73c.14,0,.25.11.25.25v2.36c0,.14-.11.25-.25.25ZM45.95,9.48h3.24v-1.86h-3.24v1.86Z"/>
      </g>
      <path class="cls-1" d="M58.62,31.96h-7.32c-.14,0-.25-.11-.25-.25v-1.59c0-.06.02-.13.07-.17l2.5-2.59v-7.78c0-.14.11-.25.25-.25h2.19c.14,0,.25.11.25.25v7.78l2.5,2.59s.07.11.07.17v1.59c0,.14-.11.25-.25.25ZM51.54,31.46h6.83v-1.24l-2.5-2.59s-.07-.11-.07-.17v-7.64h-1.7v7.64c0,.06-.02.13-.07.17l-2.5,2.59v1.24Z"/>
      <path class="cls-1" d="M14.48,42.21H5.4c-.14,0-.25-.11-.25-.25v-4.04c0-.14.11-.25.25-.25h9.07c.14,0,.25.11.25.25v4.04c0,.14-.11.25-.25.25ZM5.65,41.71h8.58v-3.54H5.65v3.54Z"/>
      <path class="cls-1" d="M39.61,42.21h-14.65c-.14,0-.25-.11-.25-.25v-12.44c0-.14.11-.25.25-.25h14.65c.14,0,.25.11.25.25v12.44c0,.14-.11.25-.25.25ZM25.21,41.71h14.15v-11.94h-14.15v11.94Z"/>
      <path class="cls-1" d="M32.95,23.7s-.09-.01-.13-.04l-.53-.33-.53.33c-.08.05-.17.05-.25,0-.08-.04-.13-.13-.13-.22v-6.96c0-1.45,1.18-2.62,2.62-2.62h5.49c1.45,0,2.62,1.18,2.62,2.62v2.84c0,.14-.11.25-.25.25h-1.32c-.14,0-.25-.11-.25-.25v-2.84c0-.44-.36-.8-.8-.8h-5.49c-.44,0-.8.36-.8.8v6.96c0,.09-.05.17-.13.22-.04.02-.08.03-.12.03ZM32.29,22.79s.09.01.13.04l.28.18v-6.51c0-.72.58-1.3,1.3-1.3h5.49c.72,0,1.3.58,1.3,1.3v2.59h.83v-2.59c0-1.17-.95-2.12-2.12-2.12h-5.49c-1.17,0-2.12.95-2.12,2.12v6.51l.28-.18s.09-.04.13-.04Z"/>
      <path class="cls-1" d="M51.3,42.21h-11.69c-.14,0-.25-.11-.25-.25v-14.22l-3.89-2.43c-.07-.05-.12-.12-.12-.21v-5.78c0-.14.11-.25.25-.25h15.69c.14,0,.25.11.25.25v22.63c0,.14-.11.25-.25.25ZM39.86,41.71h11.19v-22.14h-15.19v5.4l3.89,2.43c.07.05.12.12.12.21v14.1Z"/>
      <path class="cls-1" d="M27.61,26.2s-.08-.01-.12-.03c-.08-.04-.13-.13-.13-.22v-10.02c0-.44-.36-.8-.8-.8h-9.46c-.44,0-.8.36-.8.8v7.5c0,.09-.05.17-.13.22-.08.04-.18.04-.25,0l-.51-.32-.55.34c-.08.05-.17.05-.25,0-.08-.04-.13-.13-.13-.22v-7.53c0-1.45,1.18-2.62,2.62-2.62h9.46c1.45,0,2.62,1.18,2.62,2.62v9.19c0,.09-.04.17-.12.21l-1.32.83s-.09.04-.13.04ZM17.1,14.64h9.46c.72,0,1.3.58,1.3,1.3v9.57l.83-.52v-9.05c0-1.17-.95-2.12-2.12-2.12h-9.46c-1.17,0-2.12.95-2.12,2.12v7.08l.3-.19c.08-.05.18-.05.26,0l.26.16v-7.05c0-.72.58-1.3,1.3-1.3ZM28.94,25.13h0,0Z"/>
      <path class="cls-1" d="M39.61,29.77h-14.65c-.14,0-.25-.11-.25-.25v-1.91c0-.09.04-.17.12-.21l7.32-4.57c.08-.05.18-.05.26,0l3.32,2.07h0l4,2.5c.07.05.12.12.12.21v1.91c0,.14-.11.25-.25.25ZM25.21,29.27h14.15v-1.53l-7.08-4.42-7.08,4.42v1.53Z"/>
      <path class="cls-1" d="M44.78,24.25h-2.52c-.14,0-.25-.11-.25-.25v-2.52c0-.14.11-.25.25-.25h2.52c.14,0,.25.11.25.25v2.52c0,.14-.11.25-.25.25ZM42.51,23.75h2.03v-2.03h-2.03v2.03Z"/>
      <path class="cls-1" d="M40.5,24.25h-2.52c-.14,0-.25-.11-.25-.25v-2.52c0-.14.11-.25.25-.25h2.52c.14,0,.25.11.25.25v2.52c0,.14-.11.25-.25.25ZM38.22,23.75h2.03v-2.03h-2.03v2.03Z"/>
      <path class="cls-1" d="M49.07,24.25h-2.52c-.14,0-.25-.11-.25-.25v-2.52c0-.14.11-.25.25-.25h2.52c.14,0,.25.11.25.25v2.52c0,.14-.11.25-.25.25ZM46.8,23.75h2.03v-2.03h-2.03v2.03Z"/>
      <path class="cls-1" d="M44.82,28.22h-2.52c-.14,0-.25-.11-.25-.25v-2.52c0-.14.11-.25.25-.25h2.52c.14,0,.25.11.25.25v2.52c0,.14-.11.25-.25.25ZM42.54,27.72h2.03v-2.03h-2.03v2.03Z"/>
      <path class="cls-1" d="M49.1,28.22h-2.52c-.14,0-.25-.11-.25-.25v-2.52c0-.14.11-.25.25-.25h2.52c.14,0,.25.11.25.25v2.52c0,.14-.11.25-.25.25ZM46.83,27.72h2.03v-2.03h-2.03v2.03Z"/>
      <path class="cls-1" d="M44.85,32.19h-2.52c-.14,0-.25-.11-.25-.25v-2.52c0-.14.11-.25.25-.25h2.52c.14,0,.25.11.25.25v2.52c0,.14-.11.25-.25.25ZM42.57,31.69h2.03v-2.03h-2.03v2.03Z"/>
      <path class="cls-1" d="M49.14,32.19h-2.52c-.14,0-.25-.11-.25-.25v-2.52c0-.14.11-.25.25-.25h2.52c.14,0,.25.11.25.25v2.52c0,.14-.11.25-.25.25ZM46.86,31.69h2.03v-2.03h-2.03v2.03Z"/>
      <path class="cls-1" d="M44.88,36.16h-2.52c-.14,0-.25-.11-.25-.25v-2.52c0-.14.11-.25.25-.25h2.52c.14,0,.25.11.25.25v2.52c0,.14-.11.25-.25.25ZM42.61,35.66h2.03v-2.03h-2.03v2.03Z"/>
      <path class="cls-1" d="M49.17,36.16h-2.52c-.14,0-.25-.11-.25-.25v-2.52c0-.14.11-.25.25-.25h2.52c.14,0,.25.11.25.25v2.52c0,.14-.11.25-.25.25ZM46.89,35.66h2.03v-2.03h-2.03v2.03Z"/>
      <path class="cls-1" d="M44.91,40.12h-2.52c-.14,0-.25-.11-.25-.25v-2.52c0-.14.11-.25.25-.25h2.52c.14,0,.25.11.25.25v2.52c0,.14-.11.25-.25.25ZM42.64,39.63h2.03v-2.03h-2.03v2.03Z"/>
      <path class="cls-1" d="M49.2,40.12h-2.52c-.14,0-.25-.11-.25-.25v-2.52c0-.14.11-.25.25-.25h2.52c.14,0,.25.11.25.25v2.52c0,.14-.11.25-.25.25ZM46.92,39.63h2.03v-2.03h-2.03v2.03Z"/>
      <path class="cls-1" d="M15.89,32.41h-7.8c-.14,0-.25-.11-.25-.25s.11-.25.25-.25h7.8c.14,0,.25.11.25.25s-.11.25-.25.25Z"/>
      <path class="cls-1" d="M19.95,32.41h-2.73c-.14,0-.25-.11-.25-.25s.11-.25.25-.25h2.73c.14,0,.25.11.25.25s-.11.25-.25.25Z"/>
      <path class="cls-1" d="M22.74,36.88h-4.52c-.14,0-.25-.11-.25-.25s.11-.25.25-.25h4.52c.14,0,.25.11.25.25s-.11.25-.25.25Z"/>
      <path class="cls-1" d="M39.61,33.4h-6.42c-.14,0-.25-.11-.25-.25s.11-.25.25-.25h6.42c.14,0,.25.11.25.25s-.11.25-.25.25Z"/>
      <path class="cls-1" d="M31.41,33.4h-3.77c-.14,0-.25-.11-.25-.25s.11-.25.25-.25h3.77c.14,0,.25.11.25.25s-.11.25-.25.25Z"/>
      <path class="cls-1" d="M30.86,39.03h-3.22c-.14,0-.25-.11-.25-.25s.11-.25.25-.25h3.22c.14,0,.25.11.25.25s-.11.25-.25.25Z"/>
      <path class="cls-1" d="M39.61,39.03h-6.58c-.14,0-.25-.11-.25-.25s.11-.25.25-.25h6.58c.14,0,.25.11.25.25s-.11.25-.25.25Z"/>
      <path class="cls-1" d="M55.63,34.89h-4.33c-.14,0-.25-.11-.25-.25s.11-.25.25-.25h4.33c.14,0,.25.11.25.25s-.11.25-.25.25Z"/>
      <path class="cls-1" d="M58.62,39.9h-4.36c-.14,0-.25-.11-.25-.25s.11-.25.25-.25h4.36c.14,0,.25.11.25.25s-.11.25-.25.25Z"/>
      <path class="cls-1" d="M22.74,42.21h-8.26c-.14,0-.25-.11-.25-.25v-3.79h-6.14c-.14,0-.25-.11-.25-.25v-8.4c0-.14.11-.25.25-.25h14.65c.14,0,.25.11.25.25v12.44c0,.14-.11.25-.25.25ZM14.72,41.71h7.76v-11.94h-14.15v7.91h6.14c.14,0,.25.11.25.25v3.79Z"/>
      <path class="cls-1" d="M22.74,29.77h-14.65c-.14,0-.25-.11-.25-.25v-1.91c0-.09.04-.17.12-.21l7.32-4.57c.08-.05.18-.05.26,0l7.32,4.57c.07.05.12.12.12.21v1.91c0,.14-.11.25-.25.25ZM8.34,29.27h14.15v-1.53l-2.67-1.67h0l-4.41-2.75-7.08,4.42v1.53Z"/>
      <g>
        <path class="cls-1" d="M22.74,20.04h-2.79c-.14,0-.25-.11-.25-.25v-2.43c0-.14.11-.25.25-.25h2.79c.14,0,.25.11.25.25v2.43c0,.14-.11.25-.25.25ZM20.2,19.55h2.29v-1.93h-2.29v1.93Z"/>
        <path class="cls-1" d="M22.74,27.86s-.09-.01-.13-.04l-2.79-1.74c-.07-.05-.12-.12-.12-.21v-2.82c0-.14.11-.25.25-.25h2.79c.14,0,.25.11.25.25v4.56c0,.09-.05.17-.13.22-.04.02-.08.03-.12.03ZM20.2,25.73l2.29,1.43v-3.86h-2.29v2.43Z"/>
        <path class="cls-1" d="M22.74,23.3h-2.79c-.14,0-.25-.11-.25-.25v-3.26c0-.14.11-.25.25-.25h2.79c.14,0,.25.11.25.25v3.26c0,.14-.11.25-.25.25ZM20.2,22.8h2.29v-2.76h-2.29v2.76Z"/>
      </g>
    </g>
  </g>
</svg>