<?xml version="1.0" encoding="UTF-8"?>
<svg id="Layer_2" xmlns="http://www.w3.org/2000/svg" viewBox="0 0 64 42">
  <defs>
    <style>
      .cls-1 {
        fill: #fff;
      }

      .cls-2 {
        fill: none;
      }
    </style>
  </defs>
  <g id="Layer_1-2" data-name="Layer_1">
    <g>
      <path class="cls-1" d="M25.77.96h.1c.23.04.46.03.69.07.7.12,1.42.44,1.98.88,1.01.8,1.64,1.88,1.79,3.17.13,1.18-.25,2.41-.99,3.33-.75.94-1.85,1.52-3.05,1.64-.04,0-.08,0-.11.01-.04,0-.08,0-.11,0-.04,0-.08,0-.11,0-.04,0-.08,0-.11,0-.04,0-.08,0-.11,0-.04,0-.08,0-.11,0-.04,0-.08,0-.11,0-.04,0-.08,0-.11,0-.04,0-.08,0-.11-.01-.04,0-.08,0-.11-.02-.04,0-.08-.01-.11-.02-.04,0-.07-.01-.11-.02-.04,0-.07-.02-.11-.02-.04,0-.07-.02-.11-.03-.04,0-.07-.02-.11-.03-.04-.01-.07-.02-.11-.03-.04-.01-.07-.02-.11-.03-.04-.01-.07-.02-.11-.04-.04-.01-.07-.03-.11-.04-.04-.01-.07-.03-.11-.04-.04-.01-.07-.03-.1-.05-.03-.02-.07-.03-.1-.05-.03-.02-.07-.03-.1-.05-.03-.02-.07-.03-.1-.05s-.07-.04-.1-.06c-.03-.02-.07-.04-.1-.06-.03-.02-.06-.04-.1-.06-.03-.02-.06-.04-.1-.06-.03-.02-.06-.04-.09-.06-.03-.02-.06-.04-.09-.07-.03-.02-.06-.05-.09-.07-.03-.02-.06-.05-.09-.07-.03-.02-.06-.05-.08-.07-.03-.02-.05-.05-.08-.07-.03-.02-.05-.05-.08-.07-.03-.02-.05-.05-.08-.08-.03-.03-.05-.05-.08-.08-.03-.03-.05-.05-.07-.08s-.05-.05-.07-.08c-.02-.03-.05-.05-.07-.08-.02-.03-.05-.06-.07-.08-.02-.03-.04-.06-.07-.09-.02-.03-.04-.06-.06-.09-.02-.03-.04-.06-.06-.09-.02-.03-.04-.06-.06-.09-.02-.03-.04-.06-.06-.09-.02-.03-.04-.06-.06-.09-.02-.03-.04-.06-.05-.09-.02-.03-.03-.06-.05-.1-.02-.03-.03-.06-.05-.1-.02-.03-.03-.07-.05-.1-.01-.03-.03-.07-.04-.1-.01-.03-.03-.07-.04-.1-.01-.03-.03-.07-.04-.1-.01-.03-.02-.07-.04-.1-.01-.03-.02-.07-.03-.1-.01-.03-.02-.07-.03-.1,0-.03-.02-.07-.03-.11,0-.04-.02-.07-.03-.11,0-.04-.02-.07-.02-.11,0-.04-.01-.07-.02-.11,0-.04-.01-.07-.02-.11,0-.04-.01-.07-.02-.11,0-.04,0-.07-.01-.11,0-.04,0-.08-.01-.11,0-.04,0-.08,0-.11,0-.04,0-.08,0-.11,0-.04,0-.08,0-.11s0-.08,0-.11c0-.04,0-.08,0-.11,0-.04,0-.08,0-.11,0-.04,0-.08,0-.11,0-.04,0-.08.01-.11,0-.04,0-.07.01-.11,0-.04.01-.07.02-.11,0-.04.01-.07.02-.11,0-.04.02-.07.02-.11,0-.04.02-.07.03-.11,0-.04.02-.07.03-.11.01-.04.02-.07.03-.11.01-.04.02-.07.03-.11.01-.04.02-.07.04-.11.01-.04.03-.07.04-.11.01-.04.03-.07.04-.11.01-.03.03-.07.05-.1.02-.03.03-.07.05-.1.02-.03.03-.07.05-.1.02-.03.03-.07.05-.1.02-.03.04-.07.06-.1.02-.03.04-.07.06-.1.02-.03.04-.06.06-.1.02-.03.04-.06.06-.09.02-.03.04-.06.06-.09.02-.03.04-.06.07-.09.02-.03.05-.06.07-.09.02-.03.05-.06.07-.09.92-1.11,2.07-1.58,3.47-1.71ZM25.67,1.62c-1.08.08-2.08.51-2.8,1.34-.02.02-.04.05-.06.08-.02.03-.04.05-.06.08-.02.03-.04.05-.06.08-.02.03-.04.05-.06.08-.02.03-.04.05-.06.08-.02.03-.04.05-.06.08-.02.03-.04.06-.05.08-.02.03-.03.06-.05.09-.02.03-.03.06-.05.09-.02.03-.03.06-.05.09-.02.03-.03.06-.04.09-.01.03-.03.06-.04.09-.01.03-.03.06-.04.09-.01.03-.03.06-.04.09-.01.03-.02.06-.04.09s-.02.06-.03.09c-.01.03-.02.06-.03.09,0,.03-.02.06-.03.1,0,.03-.02.06-.03.1,0,.03-.02.06-.02.1,0,.03-.01.06-.02.1,0,.03-.01.06-.02.1,0,.03-.01.07-.02.1,0,.03,0,.07-.01.1,0,.03,0,.07-.01.1,0,.03,0,.07,0,.1,0,.03,0,.07,0,.1,0,.03,0,.07,0,.1,0,.03,0,.07,0,.1,0,.03,0,.07,0,.1,0,.03,0,.07,0,.1,0,.03,0,.07,0,.1,0,.03,0,.06,0,.09,0,.03,0,.06.01.09,0,.03,0,.06.01.09,0,.03.01.06.02.09,0,.03.01.06.02.09,0,.03.01.06.02.09,0,.03.01.06.02.09,0,.03.02.06.02.09,0,.03.02.06.03.09,0,.03.02.06.03.09,0,.03.02.06.03.09.01.03.02.06.03.09.01.03.02.06.04.09.01.03.02.06.04.08.01.03.03.06.04.08.01.03.03.06.04.08.01.03.03.05.04.08.01.03.03.05.05.08.02.03.03.05.05.08.02.03.03.05.05.08.02.03.03.05.05.08.02.03.04.05.05.08.02.03.04.05.05.07.02.02.04.05.06.07.02.02.04.05.06.07.02.02.04.05.06.07.02.02.04.05.06.07.02.02.04.05.06.07.02.02.04.04.07.07.02.02.04.04.07.06.02.02.05.04.07.06.02.02.05.04.07.06.8.69,1.74,1.05,2.8,1.03,1.15-.12,2.12-.55,2.87-1.46.02-.02.04-.05.06-.07.02-.03.04-.05.06-.08.02-.03.04-.05.06-.08.02-.03.04-.05.05-.08.02-.03.04-.05.05-.08.02-.03.03-.05.05-.08.02-.03.03-.05.05-.08.02-.03.03-.06.05-.08.01-.03.03-.06.04-.08.01-.03.03-.06.04-.09.01-.03.03-.06.04-.09.01-.03.03-.06.04-.09.01-.03.02-.06.04-.09.01-.03.02-.06.03-.09.01-.03.02-.06.03-.09,0-.03.02-.06.03-.09,0-.03.02-.06.03-.09,0-.03.02-.06.02-.09,0-.03.01-.06.02-.09,0-.03.01-.06.02-.09,0-.03.01-.06.02-.09,0-.03.01-.06.01-.09,0-.03,0-.06.01-.09,0-.03,0-.06.01-.1s0-.06,0-.1c0-.03,0-.06,0-.1s0-.06,0-.1c0-.03,0-.06,0-.1,0-.03,0-.06,0-.1,0-.03,0-.06,0-.1,0-.03,0-.06,0-.1,0-.03,0-.06,0-.1-.1-1.02-.59-2.01-1.4-2.66-.74-.6-1.69-.95-2.64-.89Z"/>
      <path class="cls-1" d="M38.08.96h.26c.22.04.45.04.67.08.08.01.17.03.25.05.08.02.17.04.25.06.08.02.16.05.24.08.08.03.16.06.24.09.08.03.16.07.23.1.08.04.15.08.23.12.07.04.15.08.22.13.07.05.14.09.21.14.03.02.06.04.09.07.03.02.06.05.09.07.03.02.06.05.09.07.03.02.06.05.09.07.03.02.06.05.08.08.03.03.06.05.08.08.03.03.05.05.08.08.03.03.05.05.08.08.03.03.05.06.08.08.03.03.05.06.07.09s.05.06.07.09c.02.03.05.06.07.09.02.03.05.06.07.09.02.03.04.06.07.09.02.03.04.06.06.09.02.03.04.06.06.1.02.03.04.06.06.1.02.03.04.07.06.1.02.03.04.07.05.1.02.03.03.07.05.1.02.03.03.07.05.1s.03.07.05.1c.01.03.03.07.04.1.01.04.03.07.04.11.01.04.03.07.04.11.01.04.02.07.04.11.01.04.02.07.03.11.01.04.02.07.03.11,0,.04.02.07.03.11,0,.04.02.07.02.11,0,.04.01.07.02.11,0,.04.01.07.02.11,0,.04.01.08.02.11,0,.04.01.08.02.11,0,.04,0,.08.01.11,0,.04,0,.08,0,.11,0,.04,0,.08,0,.11,0,.04,0,.08,0,.11,0,.04,0,.08,0,.11,0,.04,0,.08,0,.11,0,.04,0,.08,0,.11,0,.04,0,.08,0,.11,0,.04,0,.08-.01.11,0,.04,0,.08-.01.11,0,.04-.01.08-.02.11,0,.04-.01.08-.02.11,0,.04-.01.07-.02.11,0,.04-.02.07-.02.11,0,.04-.02.07-.03.11,0,.04-.02.07-.03.11-.01.04-.02.07-.03.11-.01.04-.02.07-.04.11-.01.04-.03.07-.04.11-.01.04-.03.07-.04.11-.01.04-.03.07-.04.11-.01.04-.03.07-.05.1-.02.03-.03.07-.05.1-.02.03-.03.07-.05.1-.02.03-.04.07-.05.1-.02.03-.04.07-.06.1-.02.03-.04.07-.06.1-.02.03-.04.06-.06.1-.02.03-.04.06-.06.09-.02.03-.04.06-.07.09-.02.03-.04.06-.07.09-.02.03-.05.06-.07.09-.02.03-.05.06-.07.09-.02.03-.05.06-.07.08-.02.03-.05.05-.08.08-.03.03-.05.05-.08.08-.03.03-.05.05-.08.08-.03.03-.05.05-.08.08-.03.03-.05.05-.08.07-.03.02-.06.05-.08.07-.03.02-.06.05-.09.07-.03.02-.06.05-.09.07-.03.02-.06.04-.09.07-.03.02-.06.04-.09.06-.03.02-.06.04-.09.06-.03.02-.06.04-.09.06-.03.02-.06.04-.1.06-.03.02-.06.04-.1.05-.03.02-.07.04-.1.05-.03.02-.07.03-.1.05-.03.02-.07.03-.1.05-.03.02-.07.03-.1.04-.03.01-.07.03-.1.04-.03.01-.07.03-.1.04-.03.01-.07.03-.1.04-.04.01-.07.02-.11.03-.04.01-.07.02-.11.03-.04.01-.07.02-.11.03-.04,0-.07.02-.11.03-.04,0-.07.02-.11.02-.04,0-.07.01-.11.02-.04,0-.07.01-.11.02-1.16.18-2.42-.11-3.37-.81-.03-.02-.06-.05-.09-.07-.03-.02-.06-.05-.09-.07-.03-.02-.06-.05-.09-.07-.03-.02-.06-.05-.09-.08-.03-.03-.06-.05-.09-.08-.03-.03-.06-.05-.08-.08-.03-.03-.05-.05-.08-.08-.03-.03-.05-.06-.08-.08-.03-.03-.05-.06-.08-.09-.03-.03-.05-.06-.07-.09-.02-.03-.05-.06-.07-.09s-.05-.06-.07-.09c-.02-.03-.05-.06-.07-.09-.02-.03-.04-.06-.07-.09-.02-.03-.04-.06-.06-.1s-.04-.07-.06-.1c-.02-.03-.04-.07-.06-.1-.02-.03-.04-.07-.06-.1-.02-.03-.04-.07-.05-.1-.02-.03-.03-.07-.05-.1-.02-.03-.03-.07-.05-.1-.02-.04-.03-.07-.05-.11-.01-.04-.03-.07-.04-.11-.01-.04-.03-.07-.04-.11-.01-.04-.03-.07-.04-.11-.01-.04-.02-.07-.04-.11-.01-.04-.02-.07-.03-.11-.01-.04-.02-.07-.03-.11,0-.04-.02-.07-.03-.11,0-.04-.02-.08-.02-.11,0-.04-.01-.08-.02-.11,0-.04-.01-.08-.02-.11-.17-1.18.17-2.45.88-3.4.6-.79,1.52-1.44,2.48-1.68.32-.08.64-.11.96-.15ZM37.89,1.62s-.07,0-.1.01c-.03,0-.06,0-.1.01-.03,0-.06,0-.1.02-.03,0-.06.01-.1.02-.03,0-.06.01-.1.02-.03,0-.06.01-.1.02-.03,0-.06.02-.09.02s-.06.02-.09.03c-.03,0-.06.02-.09.03-.03.01-.06.02-.09.03-.03.01-.06.02-.09.03-.03.01-.06.02-.09.04-.03.01-.06.03-.09.04-.03.01-.06.03-.09.04-.03.01-.06.03-.09.04-.03.01-.06.03-.09.05-.03.02-.06.03-.09.05-.03.02-.06.03-.08.05-.03.02-.06.03-.08.05-.03.02-.05.04-.08.05-.03.02-.05.04-.08.06-.03.02-.05.04-.08.06-.03.02-.05.04-.08.06-.03.02-.05.04-.08.06-.03.02-.05.04-.07.06-.02.02-.05.04-.07.07-.02.02-.05.04-.07.07-.02.02-.05.05-.07.07-.02.02-.05.05-.07.07-.02.02-.04.05-.07.07-.02.02-.04.05-.06.07-.02.02-.04.05-.06.08-.02.02-.04.05-.06.08-.02.03-.04.05-.06.08-.02.03-.04.05-.06.08-.02.03-.04.05-.05.08-.02.03-.03.05-.05.08-.02.03-.03.05-.05.08-.02.03-.03.06-.05.08-.02.03-.03.06-.05.08-.01.03-.03.06-.04.09-.01.03-.03.06-.04.09-.01.03-.03.06-.04.09-.01.03-.03.06-.04.09-.01.03-.02.06-.04.09-.01.03-.02.06-.03.09-.01.03-.02.06-.03.09,0,.03-.02.06-.03.09,0,.03-.02.06-.03.09,0,.03-.02.06-.02.09,0,.03-.01.06-.02.09,0,.03-.01.06-.02.09,0,.03-.01.06-.02.09,0,.03-.01.06-.01.09,0,.03,0,.06-.01.1,0,.03,0,.06-.01.1,0,.03,0,.06,0,.1,0,.03,0,.06,0,.1,0,.03,0,.06,0,.1,0,.03,0,.06,0,.1,0,.03,0,.06,0,.1,0,.03,0,.06,0,.1,0,.03,0,.06,0,.1,0,.03,0,.06,0,.1.12,1.09.65,2.05,1.51,2.74.79.64,1.82.92,2.83.82,1.09-.14,2.05-.64,2.74-1.52.63-.82.9-1.91.76-2.93,0-.03,0-.06-.01-.1,0-.03-.01-.06-.02-.1,0-.03-.01-.06-.02-.1,0-.03-.01-.06-.02-.1,0-.03-.02-.06-.02-.1,0-.03-.02-.06-.03-.09,0-.03-.02-.06-.03-.09,0-.03-.02-.06-.03-.09-.01-.03-.02-.06-.03-.09-.01-.03-.02-.06-.03-.09-.01-.03-.02-.06-.04-.09-.01-.03-.03-.06-.04-.09-.01-.03-.03-.06-.04-.09s-.03-.06-.04-.09c-.01-.03-.03-.06-.05-.09-.02-.03-.03-.06-.05-.09-.02-.03-.03-.06-.05-.08-.02-.03-.03-.06-.05-.08-.02-.03-.04-.05-.05-.08-.02-.03-.04-.05-.06-.08-.02-.03-.04-.05-.06-.08-.02-.03-.04-.05-.06-.08-.02-.03-.04-.05-.06-.08-.02-.03-.04-.05-.06-.07-.02-.02-.04-.05-.07-.07-.02-.02-.04-.05-.07-.07-.02-.02-.05-.05-.07-.07-.02-.02-.05-.05-.07-.07-.02-.02-.05-.04-.07-.07-.02-.02-.05-.04-.07-.06-.02-.02-.05-.04-.08-.06-.03-.02-.05-.04-.08-.06-.79-.6-1.75-.86-2.74-.78,0,0,0,0,0,0Z"/>
      <path class="cls-1" d="M37.02,4.41c0-.54-.08-1.11.31-1.55.23-.26.52-.36.86-.38.34.02.67.14.91.38.43.43.35,1,.34,1.56.21-.01.54-.06.71.1.06.06.08.21.1.29.07.44.07.9.1,1.34.03.41.08.83.08,1.24,0,.28-.06.5-.27.7-.45.45-1.19.35-1.77.34-.48,0-1.35.09-1.76-.12-.24-.12-.43-.35-.51-.61-.03-.09-.03-.17-.03-.26,0-.36.05-.72.07-1.07.03-.49.03-1,.09-1.49.01-.09.03-.25.08-.32.13-.18.47-.14.66-.14ZM38.11,2.71c-.29.06-.55.17-.72.43-.22.34-.16.89-.13,1.28h1.05s.82,0,.82,0c0-.48.1-1.08-.27-1.45-.17-.17-.43-.27-.68-.27-.02,0-.05,0-.07,0ZM37.25,4.65c0,.11.03.26-.03.34-.05.02-.08.03-.13.02-.07-.04-.08-.06-.1-.14,0-.04-.02-.08-.02-.11h-.03c-.07.08-.09.14-.08.25,0,.05.03.11.05.15.09.07.17.12.28.11.09,0,.17-.05.23-.12,0,0,.01-.02.02-.03,0,0,.01-.02.02-.03,0,0,0-.02.01-.03,0,0,0-.02,0-.03,0-.01,0-.02,0-.03,0-.01,0-.02,0-.03,0-.01,0-.02,0-.03,0-.01,0-.02,0-.03-.02-.09-.07-.16-.15-.21-.03-.02-.05-.03-.08-.05ZM39.46,4.68c0,.09.02.21-.05.28-.03.03-.09.05-.13.04-.1-.01-.15-.12-.2-.2-.04.02-.05.08-.06.12-.02.09.02.17.07.24.08.07.17.11.28.09.01,0,.02,0,.03,0,.01,0,.02,0,.03,0,.01,0,.02,0,.03-.01,0,0,.02-.01.03-.02,0,0,.02-.01.03-.02,0,0,.02-.01.02-.02,0,0,.02-.02.02-.02s.01-.02.02-.03c0,0,.01-.02.02-.03,0,0,0-.02.01-.03,0,0,0-.02.01-.03,0,0,0-.02,0-.03,0,0,0-.02,0-.03,0,0,0-.02,0-.03,0,0,0-.02,0-.03,0,0,0-.02,0-.03-.02-.09-.1-.18-.17-.23Z"/>
      <path class="cls-1" d="M23.36,4.96c.23-.25.5-.46.76-.68.6-.52,1.22-1.02,1.79-1.56.15.1.29.24.42.36.29.26.58.52.87.79.39.36.81.7,1.18,1.09-.07.12-.15.24-.23.36-.14-.14-2.14-2.02-2.2-2.05-.03-.01-.04,0-.07,0-.5.45-.99.91-1.49,1.36-.25.23-.5.53-.8.69-.07-.13-.15-.24-.24-.36Z"/>
      <path class="cls-1" d="M23.99,5.26c.66-.57,1.31-1.15,1.94-1.76.38.32.73.69,1.09,1.03.25.23.52.45.75.7-.05.62.02,1.27.02,1.9-.16,0-.32,0-.48.01,0-.61-.06-1.23-.16-1.83h-1.23c-.44,0-.89-.02-1.33.02-.08.6-.16,1.19-.2,1.8h-.37c-.06-.61-.02-1.25-.02-1.86Z"/>
      <path class="cls-1" d="M18,9.76c-.74.02-1.42-.18-2-.66-.57-.47-.94-1.19-1-1.93,0-.05,0-.09,0-.14,0-.05,0-.09,0-.14,0-.05,0-.09,0-.14,0-.05,0-.09.01-.14,0-.05.01-.09.02-.14,0-.05.02-.09.03-.14,0-.05.02-.09.03-.14.01-.05.02-.09.04-.14.01-.05.03-.09.05-.13.02-.04.03-.09.05-.13.02-.04.04-.09.06-.13.02-.04.04-.08.07-.13.02-.04.05-.08.07-.12.02-.04.05-.08.08-.12s.05-.08.08-.11c.03-.04.06-.07.09-.11.52-.62,1.23-.94,2.03-1.01.71-.04,1.42.21,1.97.64.59.46.92,1.08,1,1.82.09.8-.13,1.53-.63,2.16-.51.64-1.22,1-2.03,1.08ZM17.91,5.16c-.05.02-.1.02-.12.08-.03.06-.02.19-.01.26-.31.04-.63.14-.84.4,0,.01-.02.02-.02.03,0,.01-.01.02-.02.03,0,.01-.01.02-.02.03,0,.01-.01.02-.02.03,0,.01-.01.02-.02.03,0,.01,0,.02-.01.04,0,.01,0,.02-.01.04,0,.01,0,.02-.01.04,0,.01,0,.02,0,.04,0,.01,0,.03,0,.04,0,.01,0,.03,0,.04,0,.01,0,.03,0,.04,0,.01,0,.03,0,.04,0,.01,0,.03,0,.04,0,.01,0,.03,0,.04,0,.01,0,.03,0,.04.04.22.18.39.36.52.2.13.43.21.66.26v.84c-.1-.01-.19-.02-.28-.05,0,0-.01,0-.02-.01-.14-.12-.22-.37-.42-.35-.08,0-.24.06-.29.12-.04.05-.04.15-.03.21.02.15.13.25.24.33.2.13.4.18.63.21.04,0,.12,0,.14.02.04.02.04.07.05.11.07,0,.16.02.23-.02,0-.03.01-.05.02-.08.12-.06.27-.07.4-.1.27-.08.52-.34.61-.6.07-.19.07-.41-.03-.6-.14-.27-.42-.39-.69-.47-.08-.02-.17-.05-.25-.07v-.78c.07.02.15.03.21.07.17.1.22.23.44.24.06,0,.13,0,.19-.03.04-.02.07-.06.08-.1.03-.09-.02-.2-.07-.28-.12-.18-.37-.29-.58-.32-.08-.01-.16,0-.24,0-.01-.1-.01-.26-.09-.32-.04-.03-.1-.04-.15-.04Z"/>
      <path class="cls-1" d="M46.55,9.74c-.79.03-1.5-.17-2.11-.68-.58-.48-.96-1.16-1.03-1.91-.07-.73.15-1.5.62-2.06.54-.63,1.18-.96,2.01-1.03.04,0,.09,0,.13,0,.04,0,.09,0,.13,0,.04,0,.09,0,.13,0,.04,0,.09,0,.13.01.04,0,.09.01.13.02.04,0,.09.02.13.02.04,0,.09.02.13.03.04.01.09.02.13.04.04.01.08.03.13.04.04.01.08.03.12.05.04.02.08.03.12.05.04.02.08.04.12.06.04.02.08.04.12.06.04.02.08.04.11.07.04.02.07.05.11.07.04.03.07.05.11.08.58.45,1,1.14,1.09,1.87,0,.02,0,.05,0,.07,0,.02,0,.05,0,.07,0,.02,0,.05,0,.07,0,.02,0,.05,0,.07,0,.02,0,.05,0,.07,0,.02,0,.05,0,.07,0,.02,0,.05,0,.07,0,.02,0,.05,0,.07s0,.05,0,.07c0,.02,0,.05,0,.07,0,.02,0,.05,0,.07,0,.02,0,.05-.01.07,0,.02,0,.05-.01.07,0,.02,0,.05-.01.07,0,.02-.01.05-.02.07,0,.02-.01.05-.02.07,0,.02-.01.05-.02.07,0,.02-.01.05-.02.07,0,.02-.02.05-.02.07,0,.02-.02.04-.03.07,0,.02-.02.04-.03.07,0,.02-.02.04-.03.07,0,.02-.02.04-.03.06-.01.02-.02.04-.03.06-.01.02-.02.04-.03.06-.01.02-.02.04-.04.06-.01.02-.02.04-.04.06-.01.02-.03.04-.04.06-.01.02-.03.04-.04.06-.01.02-.03.04-.04.06-.01.02-.03.04-.04.06-.01.02-.03.04-.04.06-.51.64-1.15.98-1.95,1.07ZM46.24,5.22c-.25.04-.46.13-.61.34-.1.14-.16.36-.13.54.01.07.04.13.1.17.04.02.02.02.06.01.12-.27-.16-.62.37-.84.11-.04.21-.05.32-.04h.03c.17.05.33.14.41.3.12.24,0,.41.04.62.05.01.09,0,.13-.02.04-.02.06-.09.06-.14.04-.22-.03-.45-.16-.63-.13-.17-.32-.27-.53-.29-.03,0-.07,0-.1,0ZM46.02,6.37c-.28.23-1.16-.16-1.21.29,0,.08,0,.16,0,.24h1.77s1.14,0,1.14,0c0-.13.03-.3-.05-.41-.19-.11-.74-.05-.97-.03-.13-.12-.27-.11-.45-.1-.08,0-.16,0-.24.01ZM44.82,7c-.02.52-.04,1.05-.02,1.57.97,0,1.94.03,2.91,0,.07-.15.02-1.33,0-1.57-.97.04-1.94,0-2.9,0Z"/>
      <path class="cls-1" d="M25.19,6.8c0-.38,0-.76,0-1.14h.66s0,1.14,0,1.14c-.22,0-.44,0-.66,0Z"/>
      <path class="cls-1" d="M26.02,6.79c-.02-.38,0-.77,0-1.15h.6c0,.38.01.77,0,1.15h-.6Z"/>
      <path class="cls-1" d="M17.54,6.6c-.08-.06-.14-.12-.17-.23-.02-.07,0-.15.04-.21.09-.13.2-.17.35-.21h.03c.05.09.01.61.01.74-.1-.03-.18-.05-.26-.1Z"/>
      <path class="cls-1" d="M23.71,7.66c0-.13,0-.25.01-.38.95,0,1.89.01,2.84,0,.52,0,1.04,0,1.56.01,0,.12,0,.24,0,.36h-4.4Z"/>
      <path class="cls-1" d="M18.12,8.09c0-.26,0-.53-.01-.79.1.03.2.06.29.13.07.06.13.13.13.22,0,.12-.05.2-.12.29-.09.06-.18.1-.28.14Z"/>
      <path class="cls-1" d="M28.53,8.11c-.51,0-5.08.02-5.11,0,0,0-.01-.01-.02-.02-.01-.09,0-.16.01-.25h3.87c.2,0,1.08-.04,1.2,0,.04.01.07.05.08.08.02.06,0,.14-.03.18Z"/>
      <path class="cls-1" d="M27.34,10.42c.24-.11.49-.2.73-.31.08.07.97,2.2,1.06,2.43-.24.1-.48.2-.72.31h-.02c-.14-.2-.26-.58-.37-.82l-.43-1.01c-.09-.2-.18-.4-.24-.61Z"/>
      <path class="cls-1" d="M34.96,12.57c.28-.81.63-1.61.96-2.41.25.11.51.2.77.31-.17.49-.38.96-.57,1.45-.13.32-.23.66-.38.98-.26-.09-.52-.21-.78-.32Z"/>
      <path class="cls-1" d="M16.74,19.38c-1.19,0-2.28-.36-3.18-1.15-.03-.02-.06-.05-.08-.08-.03-.03-.05-.05-.08-.08-.03-.03-.05-.05-.08-.08-.03-.03-.05-.05-.08-.08-.03-.03-.05-.06-.08-.08-.02-.03-.05-.06-.07-.09-.02-.03-.05-.06-.07-.09-.02-.03-.05-.06-.07-.09-.02-.03-.05-.06-.07-.09-.02-.03-.04-.06-.07-.09-.02-.03-.04-.06-.06-.09-.02-.03-.04-.06-.06-.09-.02-.03-.04-.06-.06-.1-.02-.03-.04-.07-.06-.1-.02-.03-.04-.07-.05-.1-.02-.03-.03-.07-.05-.1-.02-.03-.03-.07-.05-.1-.02-.03-.03-.07-.05-.1-.01-.03-.03-.07-.04-.1-.01-.03-.03-.07-.04-.1-.01-.04-.03-.07-.04-.11-.01-.04-.02-.07-.04-.11-.01-.04-.02-.07-.03-.11-.01-.04-.02-.07-.03-.11,0-.04-.02-.07-.03-.11,0-.04-.02-.07-.02-.11,0-.04-.02-.07-.02-.11,0-.04-.01-.07-.02-.11,0-.04-.01-.07-.02-.11,0-.04,0-.07-.01-.11,0-.04,0-.07-.01-.11,0-.04,0-.07,0-.11-.07-1.15.36-2.33,1.13-3.19.86-.97,2-1.51,3.3-1.59,1.17-.03,2.27.35,3.15,1.12.93.82,1.44,1.93,1.52,3.17,0,.04,0,.08,0,.11,0,.04,0,.08,0,.11,0,.04,0,.08,0,.11,0,.04,0,.08,0,.11,0,.04,0,.08,0,.11,0,.04,0,.07,0,.11,0,.04,0,.07-.01.11s0,.07-.01.11c0,.04-.01.07-.02.11,0,.04-.01.07-.02.11,0,.04-.01.07-.02.11,0,.04-.02.07-.03.11,0,.04-.02.07-.03.11,0,.04-.02.07-.03.11-.01.04-.02.07-.03.11-.01.04-.02.07-.04.11-.01.04-.03.07-.04.11s-.03.07-.04.1c-.01.03-.03.07-.04.1-.01.03-.03.07-.05.1-.02.03-.03.07-.05.1-.02.03-.03.07-.05.1-.02.03-.04.07-.05.1-.02.03-.04.07-.06.1s-.04.06-.06.1c-.02.03-.04.06-.06.1-.02.03-.04.06-.06.09-.02.03-.04.06-.06.09-.02.03-.04.06-.07.09-.02.03-.05.06-.07.09-.02.03-.05.06-.07.09-.02.03-.05.06-.07.09-.85.95-1.94,1.4-3.2,1.47ZM16.38,10.94c-1.16.12-2.16.56-2.9,1.49-.62.77-.95,1.84-.84,2.83,0,.03,0,.06.01.1,0,.03,0,.06.01.1,0,.03.01.06.02.1,0,.03.01.06.02.1,0,.03.01.06.02.09,0,.03.02.06.02.09,0,.03.02.06.03.09,0,.03.02.06.03.09,0,.03.02.06.03.09.01.03.02.06.03.09.01.03.02.06.04.09.01.03.02.06.04.09.01.03.03.06.04.09.01.03.03.06.04.09.01.03.03.06.04.09.02.03.03.06.05.09.02.03.03.06.05.08.02.03.03.06.05.08.02.03.03.05.05.08.02.03.04.05.05.08.02.03.04.05.06.08.02.03.04.05.06.08s.04.05.06.08c.02.03.04.05.06.07.02.02.04.05.06.07.02.02.04.05.07.07.02.02.04.05.07.07.02.02.05.05.07.07.02.02.05.04.07.07.02.02.05.04.07.06.02.02.05.04.07.06.03.02.05.04.08.06.77.6,1.66.87,2.63.85,1.04-.04,2-.46,2.7-1.23.75-.82,1.09-1.81,1.03-2.91,0-.03,0-.06,0-.1,0-.03,0-.06,0-.1,0-.03,0-.06-.01-.1,0-.03,0-.06-.01-.1,0-.03-.01-.06-.02-.1,0-.03-.01-.06-.02-.1,0-.03-.01-.06-.02-.1,0-.03-.01-.06-.02-.09,0-.03-.02-.06-.03-.09,0-.03-.02-.06-.03-.09,0-.03-.02-.06-.03-.09-.01-.03-.02-.06-.03-.09-.01-.03-.02-.06-.03-.09-.01-.03-.02-.06-.04-.09-.01-.03-.03-.06-.04-.09-.01-.03-.03-.06-.04-.09-.01-.03-.03-.06-.04-.09-.01-.03-.03-.06-.05-.09-.02-.03-.03-.06-.05-.09-.02-.03-.03-.06-.05-.08-.02-.03-.03-.06-.05-.08-.02-.03-.04-.05-.05-.08-.02-.03-.04-.05-.06-.08-.02-.03-.04-.05-.06-.08-.02-.03-.04-.05-.06-.08-.02-.03-.04-.05-.06-.08-.02-.02-.04-.05-.06-.07-.02-.02-.04-.05-.07-.07-.02-.02-.04-.05-.07-.07-.02-.02-.05-.05-.07-.07-.02-.02-.05-.05-.07-.07-.02-.02-.05-.04-.07-.07-.73-.65-1.75-.99-2.72-.93-.02,0-.04,0-.07,0Z"/>
      <path class="cls-1" d="M47.72,19.36s-.07,0-.11,0c-.04,0-.07,0-.11,0-.04,0-.07,0-.11,0-.04,0-.07,0-.11,0-.04,0-.07,0-.11,0-.04,0-.07,0-.11,0-.04,0-.07,0-.11-.01-.04,0-.07,0-.11-.01-.04,0-.07,0-.11-.02-.04,0-.07-.01-.11-.02-.04,0-.07-.01-.11-.02-.04,0-.07-.01-.11-.02-.04,0-.07-.02-.11-.03-.04,0-.07-.02-.11-.03-.03,0-.07-.02-.1-.03-.03-.01-.07-.02-.1-.03-.03-.01-.07-.02-.1-.04-.03-.01-.07-.02-.1-.04-.03-.01-.07-.03-.1-.04-.03-.01-.07-.03-.1-.04-.03-.01-.07-.03-.1-.04-.03-.02-.07-.03-.1-.05-.03-.02-.06-.03-.1-.05-.03-.02-.06-.03-.1-.05-.03-.02-.06-.04-.09-.05-.03-.02-.06-.04-.09-.06-.03-.02-.06-.04-.09-.06-.03-.02-.06-.04-.09-.06-.03-.02-.06-.04-.09-.06-.03-.02-.06-.04-.09-.06-.03-.02-.06-.04-.09-.07-.03-.02-.06-.05-.08-.07-.95-.8-1.5-1.89-1.6-3.13-.09-1.14.3-2.37,1.05-3.24.84-.98,1.97-1.52,3.25-1.61.02,0,.03,0,.05,0,1.15-.05,2.37.37,3.23,1.15.89.82,1.48,1.95,1.52,3.17.05,1.19-.37,2.41-1.19,3.29-.81.87-1.89,1.39-3.08,1.44ZM47.37,10.93c-1.07.03-2.08.45-2.82,1.23-.02.02-.04.05-.07.07-.02.02-.04.05-.06.07-.02.02-.04.05-.06.07-.02.03-.04.05-.06.08-.02.03-.04.05-.06.08-.02.03-.04.05-.06.08s-.04.05-.05.08c-.02.03-.04.05-.05.08-.02.03-.03.06-.05.08-.02.03-.03.06-.05.08-.02.03-.03.06-.05.09-.02.03-.03.06-.04.09-.01.03-.03.06-.04.09-.01.03-.03.06-.04.09-.01.03-.03.06-.04.09-.01.03-.02.06-.04.09-.01.03-.02.06-.03.09-.01.03-.02.06-.03.09,0,.03-.02.06-.03.09,0,.03-.02.06-.03.09,0,.03-.02.06-.02.09,0,.03-.01.06-.02.09,0,.03-.01.06-.02.09,0,.03-.01.06-.02.1,0,.03-.01.06-.01.1,0,.03,0,.06-.01.1,0,.03,0,.06-.01.1,0,.03,0,.06,0,.1,0,.03,0,.06,0,.1,0,.03,0,.06,0,.1,0,.03,0,.06,0,.1,0,.03,0,.06,0,.1.03,1,.45,2.01,1.19,2.69.77.72,1.76,1.1,2.81,1.09.03,0,.06,0,.1,0,.03,0,.06,0,.1,0,.03,0,.06,0,.1,0,.03,0,.06,0,.1,0,.03,0,.06,0,.1-.01.03,0,.06,0,.1-.01.03,0,.06,0,.1-.02.03,0,.06-.01.09-.02.03,0,.06-.01.09-.02.03,0,.06-.01.09-.02.03,0,.06-.02.09-.02.03,0,.06-.02.09-.03.03,0,.06-.02.09-.03.03-.01.06-.02.09-.03.03-.01.06-.02.09-.03.03-.01.06-.02.09-.04.03-.01.06-.03.09-.04.03-.01.06-.03.09-.04.03-.01.06-.03.09-.04.03-.01.06-.03.09-.04.03-.02.06-.03.08-.05.03-.02.06-.03.08-.05.03-.02.05-.03.08-.05.03-.02.05-.03.08-.05.03-.02.05-.04.08-.05.03-.02.05-.04.08-.06.03-.02.05-.04.08-.06.03-.02.05-.04.08-.06.02-.02.05-.04.07-.06.02-.02.05-.04.07-.06.02-.02.05-.04.07-.07.02-.02.05-.04.07-.07.77-.78,1.12-1.81,1.1-2.89-.02-1.04-.47-2.02-1.22-2.74-.76-.73-1.74-1.04-2.77-1.06Z"/>
      <path class="cls-1" d="M17.09,12.19c-.19,0-.98.04-1.1-.02-.01-.05-.02-.12,0-.17.02-.1.12-.16.2-.21.22-.02.47-.03.68,0,.13.01.28.04.36.15.06.08.05.15.03.24-.05.03-.11.02-.17.02Z"/>
      <path class="cls-1" d="M47.66,17.73c-.18.01-.34,0-.5-.09-.18-.09-2.09-2.02-2.28-2.25-.02-.02-.03-.04-.05-.07-.02-.02-.03-.05-.04-.07-.01-.02-.02-.05-.04-.07-.01-.03-.02-.05-.03-.08-.06-.2-.04-.41.07-.59.2-.37,1.05-1.11,1.39-1.46.24-.24.45-.53.72-.75.12-.1.25-.15.4-.2.21-.02.42-.01.6.1.18.11.64.63.81.81l.83.84c.16.17.35.33.49.51.09.11.16.26.19.39.05.23,0,.45-.12.65-.21.35-.82.87-1.13,1.18-.31.31-.62.69-.96.96-.11.09-.22.14-.36.17ZM47.34,12.5c-.14.04-.24.09-.35.17-.28.22-.52.51-.77.77-.28.28-.86.78-1.04,1.1-.09.16-.12.35-.06.53.05.14.13.25.22.36.22.26,1.76,1.81,1.98,1.9.1.04.21.05.31.04.13-.04.22-.1.33-.19.3-.25.56-.56.83-.84.28-.28.57-.54.83-.84.07-.08.13-.17.18-.26.09-.18.1-.39.03-.58-.03-.08-.07-.15-.13-.22-.17-.2-1.76-1.81-1.92-1.89-.15-.07-.29-.08-.45-.07Z"/>
      <path class="cls-1" d="M14.88,12.92c0-.1-.01-.21.03-.3.05-.1.15-.14.25-.17.53-.04,1.08,0,1.61,0,.43,0,.88-.04,1.31,0,.08,0,.13.02.19.07.12.11.13.27.14.42h-.24c-1.1-.01-2.2-.02-3.3-.02Z"/>
      <path class="cls-1" d="M47.61,17.21c-.12,0-.24.01-.34-.06-.28-.18-.91-.87-1.19-1.14-.22-.22-.48-.43-.67-.68-.07-.09-.11-.18-.14-.29-.04-.16-.02-.31.07-.44.19-.29.57-.6.82-.86.29-.29.55-.64.88-.89.11-.09.21-.13.35-.17.13-.01.25,0,.36.06.12.06,1.67,1.59,1.82,1.79.06.08.11.16.13.26.04.17.01.34-.08.49-.21.35-.72.75-1.02,1.05-.24.25-.47.53-.73.75-.09.07-.16.11-.27.14ZM47.32,13.23c-.15.07-.25.15-.31.31,0,.02,0,.03-.01.05,0,.02,0,.03,0,.05,0,.02,0,.03,0,.05,0,.02,0,.03,0,.05,0,.02,0,.03,0,.05,0,.02,0,.03.01.05,0,.02,0,.03.02.05,0,.02.01.03.02.04.05.1.15.19.26.22.09.03.19.01.29,0,.15-.08.26-.16.32-.33,0-.01,0-.03.01-.04,0-.01,0-.03,0-.04,0-.01,0-.03,0-.04,0-.01,0-.03,0-.04,0-.01,0-.03,0-.04,0-.01,0-.03-.01-.04,0-.01,0-.03-.01-.04,0-.01-.01-.03-.02-.04-.06-.12-.17-.2-.3-.23-.09-.02-.17-.02-.26,0ZM46.16,14.46c-.16.05-.28.12-.36.28,0,.01-.01.03-.02.05,0,.02-.01.03-.02.05,0,.02,0,.03-.01.05,0,.02,0,.03,0,.05,0,.02,0,.03,0,.05,0,.02,0,.03,0,.05,0,.02,0,.03,0,.05,0,.02,0,.03.01.05.04.11.13.2.24.25.09.04.18.04.28.04.15-.05.27-.11.35-.26.06-.12.06-.25.01-.38-.05-.13-.15-.23-.28-.28-.07-.03-.14-.04-.22-.04ZM48.56,14.49c-.15.06-.26.13-.33.28,0,.01-.01.03-.01.04,0,.01,0,.03-.01.04,0,.01,0,.03,0,.04,0,.02,0,.03,0,.05,0,.02,0,.03,0,.05,0,.01,0,.03,0,.04,0,.01,0,.03.01.04,0,.01,0,.03.02.04.05.12.15.21.27.25.1.04.2.03.31.03.14-.05.25-.13.31-.27,0-.01.01-.03.02-.04,0-.01,0-.03.01-.04,0-.01,0-.03,0-.04,0-.01,0-.03,0-.04,0-.01,0-.03,0-.04,0-.01,0-.03,0-.04,0-.01,0-.03-.01-.04,0-.01,0-.03-.02-.04,0-.02-.01-.03-.02-.05,0-.02-.02-.03-.03-.04,0-.01-.02-.03-.03-.04-.01-.01-.02-.03-.04-.04-.01-.01-.03-.02-.04-.03-.01-.01-.03-.02-.04-.03-.01,0-.03-.02-.05-.03-.02,0-.03-.01-.05-.02-.1-.04-.18-.03-.28-.02ZM47.37,15.74c-.15.07-.27.14-.33.3,0,.02-.01.03-.02.05,0,.02,0,.03-.01.05,0,.02,0,.03,0,.05,0,.02,0,.03,0,.05,0,.02,0,.03,0,.05,0,.02,0,.03,0,.05,0,.02,0,.03.01.05s.01.03.02.05c.05.11.15.19.27.22.08.02.15.02.24,0,.16-.06.29-.14.36-.31.05-.12.04-.26-.02-.37-.05-.11-.15-.2-.27-.24-.08-.03-.16-.02-.25,0Z"/>
      <path class="cls-1" d="M32.3,29.37c-2.11.06-4.24-.67-5.82-2.1-.05-.05-.1-.09-.15-.14-.05-.05-.1-.1-.15-.15-.05-.05-.1-.1-.15-.15-.05-.05-.1-.1-.14-.15-.05-.05-.09-.1-.14-.16-.05-.05-.09-.11-.14-.16-.04-.05-.09-.11-.13-.16-.04-.06-.09-.11-.13-.17-.04-.06-.08-.11-.12-.17s-.08-.11-.12-.17c-.04-.06-.08-.12-.11-.18-.04-.06-.07-.12-.11-.18-.04-.06-.07-.12-.11-.18-.03-.06-.07-.12-.1-.18-.03-.06-.06-.12-.1-.19-.03-.06-.06-.13-.09-.19-.03-.06-.06-.13-.09-.19-.03-.06-.06-.13-.08-.19-.03-.06-.05-.13-.08-.2-.02-.07-.05-.13-.07-.2-.02-.07-.05-.13-.07-.2-.02-.07-.04-.13-.06-.2-.02-.07-.04-.13-.06-.2-.02-.07-.04-.14-.05-.2-.02-.07-.03-.14-.05-.2-.01-.07-.03-.14-.04-.21-.01-.07-.03-.14-.04-.21-.01-.07-.02-.14-.03-.21,0-.07-.02-.14-.03-.21,0-.07-.02-.14-.02-.21,0-.07-.01-.14-.02-.21,0-.07,0-.14-.01-.21,0-.07,0-.13,0-.2,0-.07,0-.13,0-.2,0-.07,0-.13,0-.2,0-.07,0-.13,0-.2,0-.07,0-.13.01-.2,0-.07.01-.13.02-.2,0-.07.01-.13.02-.2,0-.07.02-.13.03-.2.01-.07.02-.13.03-.2.01-.07.02-.13.04-.2.01-.07.03-.13.04-.2.01-.07.03-.13.05-.2.02-.07.03-.13.05-.19.02-.06.04-.13.06-.19.02-.06.04-.13.06-.19.02-.06.04-.13.07-.19.02-.06.05-.13.07-.19.02-.06.05-.12.07-.19.03-.06.05-.12.08-.18.03-.06.05-.12.08-.18.03-.06.06-.12.09-.18.03-.06.06-.12.09-.18.03-.06.06-.12.1-.18.03-.06.07-.12.1-.17.03-.06.07-.11.11-.17.04-.06.07-.11.11-.17.04-.06.07-.11.11-.17.04-.05.08-.11.12-.16.04-.05.08-.11.12-.16.04-.05.08-.11.13-.16.04-.05.09-.1.13-.15.04-.05.09-.1.13-.15,1.55-1.69,3.62-2.62,5.91-2.72,2.08-.1,4.25.66,5.8,2.05.05.05.1.09.15.14.05.05.1.09.15.14.05.05.1.1.14.15.05.05.09.1.14.15.05.05.09.1.14.15.05.05.09.1.13.16.04.05.09.11.13.16.04.05.08.11.13.16.04.05.08.11.12.17.04.06.08.11.12.17.04.06.08.11.11.17s.07.12.11.17c.04.06.07.12.1.18.03.06.07.12.1.18.03.06.06.12.1.18.03.06.06.12.09.18.03.06.06.12.09.19.03.06.06.12.08.19.03.06.05.13.08.19.03.06.05.13.07.19.02.06.05.13.07.19.02.06.04.13.06.2.02.07.04.13.06.2.02.07.04.13.05.2.02.07.03.13.05.2.02.07.03.13.04.2.01.07.03.13.04.2.01.07.02.13.03.2.01.07.02.14.03.2,0,.07.02.14.02.2,0,.07.01.14.02.2,0,.07,0,.14.01.2.12,2.17-.59,4.37-2.05,5.99-1.56,1.74-3.62,2.71-5.95,2.84ZM31.77,13.35c-.41.02-.82.06-1.22.13-.05,0-.1.02-.15.03-.05.01-.1.02-.15.03-.05.01-.1.02-.15.04-.05.01-.1.03-.15.04-.05.01-.1.03-.15.04-.05.02-.1.03-.15.05-.05.02-.1.03-.15.05-.05.02-.1.03-.15.05-.05.02-.1.04-.15.06-.05.02-.1.04-.15.06-.05.02-.1.04-.15.06-.05.02-.1.04-.14.06-.05.02-.1.04-.14.07-.05.02-.09.05-.14.07-.05.02-.09.05-.14.07-.05.02-.09.05-.14.08s-.09.05-.14.08c-.05.03-.09.05-.13.08-.04.03-.09.06-.13.08-.04.03-.09.06-.13.09-.04.03-.09.06-.13.09-.04.03-.09.06-.13.09-.04.03-.08.06-.13.09-.04.03-.08.06-.12.1-.04.03-.08.07-.12.1-.04.03-.08.07-.12.1-.04.03-.08.07-.12.1-.04.04-.08.07-.12.11-.04.04-.08.07-.11.11-.04.04-.07.07-.11.11-.04.04-.07.08-.11.11-.04.04-.07.08-.11.12-.04.05-.08.09-.12.14-.04.05-.08.1-.12.15-.04.05-.08.1-.11.15-.04.05-.07.1-.11.15-.04.05-.07.1-.11.15-.04.05-.07.1-.1.16-.03.05-.07.11-.1.16-.03.05-.06.11-.1.16-.03.05-.06.11-.09.16-.03.05-.06.11-.09.17-.03.06-.06.11-.08.17-.03.06-.05.11-.08.17-.03.06-.05.11-.08.17-.02.06-.05.12-.07.17-.02.06-.05.12-.07.18-.02.06-.04.12-.06.18-.02.06-.04.12-.06.18-.02.06-.04.12-.05.18-.02.06-.03.12-.05.18-.02.06-.03.12-.04.18-.01.06-.03.12-.04.18-.01.06-.02.12-.04.18-.01.06-.02.12-.03.18,0,.06-.02.12-.03.19,0,.06-.02.12-.02.19s-.01.12-.02.19c0,.06,0,.12-.01.19,0,.06,0,.12,0,.19,0,.06,0,.12,0,.19,0,.06,0,.12,0,.19,0,.06,0,.12,0,.19,0,.06,0,.12,0,.19,0,.06,0,.13.01.19,0,.06.01.13.02.19,0,.06.01.13.02.19,0,.06.02.13.03.19,0,.06.02.13.03.19.01.06.02.12.04.19.01.06.03.12.04.19.01.06.03.12.04.18.02.06.03.12.05.18.02.06.04.12.05.18.02.06.04.12.06.18.02.06.04.12.06.18.02.06.04.12.07.18.02.06.05.12.07.18.02.06.05.12.08.17.03.06.05.12.08.17.03.06.06.11.08.17.03.06.06.11.09.17.03.06.06.11.09.17.03.05.06.11.1.16.03.05.07.11.1.16.03.05.07.11.1.16.04.05.07.1.11.16.04.05.07.1.11.15.04.05.08.1.12.15.04.05.08.1.12.15.04.05.08.1.12.14.04.05.08.09.13.14.04.05.09.09.13.14.04.05.09.09.13.14.04.04.09.09.14.13.05.04.09.09.14.13,1.49,1.33,3.38,1.98,5.37,1.94.06,0,.13,0,.19-.01.06,0,.13,0,.19-.02.06,0,.13-.01.19-.02.06,0,.13-.02.19-.02.06,0,.13-.02.19-.03.06-.01.13-.02.19-.03.06-.01.13-.03.19-.04.06-.01.13-.03.19-.04.06-.02.12-.03.19-.05.06-.02.12-.03.18-.05.06-.02.12-.04.18-.06.06-.02.12-.04.18-.06.06-.02.12-.04.18-.07.06-.02.12-.05.18-.07.06-.02.12-.05.18-.08.06-.03.12-.05.18-.08.06-.03.12-.06.17-.08.06-.03.11-.06.17-.09.06-.03.11-.06.17-.09.06-.03.11-.06.17-.1.06-.03.11-.07.16-.1.05-.03.11-.07.16-.11.05-.04.11-.07.16-.11.05-.04.1-.07.16-.11.05-.04.1-.08.15-.12.05-.04.1-.08.15-.12.05-.04.1-.08.15-.12.05-.04.1-.08.14-.13.05-.04.09-.09.14-.13.05-.04.09-.09.14-.13.05-.05.09-.09.13-.14.04-.05.09-.09.13-.14.04-.05.08-.09.12-.14.04-.05.08-.09.12-.14.04-.05.08-.1.12-.15.04-.05.08-.1.11-.15.04-.05.07-.1.11-.15.04-.05.07-.1.11-.15.03-.05.07-.1.1-.16.03-.05.07-.11.1-.16.03-.05.06-.11.09-.16.03-.05.06-.11.09-.16.03-.05.06-.11.09-.17.03-.06.06-.11.08-.17.03-.06.05-.11.08-.17.03-.06.05-.11.07-.17.02-.06.05-.11.07-.17.02-.06.04-.12.07-.17.02-.06.04-.12.06-.18.02-.06.04-.12.06-.18.02-.06.04-.12.05-.18.02-.06.03-.12.05-.18.02-.06.03-.12.04-.18.01-.06.03-.12.04-.18.01-.06.02-.12.03-.18.01-.06.02-.12.03-.18,0-.06.02-.12.03-.18,0-.06.02-.12.02-.19,0-.06.01-.12.02-.19,0-.06,0-.12.01-.19,0-.06,0-.12,0-.19,0-.06,0-.12,0-.19,0-.06,0-.12,0-.19,0-.06,0-.12,0-.19-.09-1.97-.93-3.97-2.41-5.31-1.48-1.34-3.44-2.15-5.45-2.06-.02,0-.04,0-.05,0Z"/>
      <path class="cls-1" d="M14.87,16.64c-.01-1.15-.01-2.3,0-3.45h3.55c.02,1.15,0,2.3-.01,3.44-.29.05-.75,0-1.07,0h-2.47ZM16.48,13.82c-.11.05-.18.1-.22.21-.03.08-.02.19-.01.28-.11-.05-.25-.13-.37-.08-.05.02-.07.05-.08.1-.05.13.08.31.06.38,0,0-.05.04-.05.05-.02.01-.04.02-.06.03-.1.06-.14.14-.16.25-.02.08-.02.16.02.23.05.09.16.14.26.16.13.03.26,0,.38-.02,0,.15,0,.33.12.44.07.06.17.08.26.07.05,0,.1-.01.15-.03.08-.05.15-.1.17-.2.02-.09,0-.2,0-.29.19.03.37.07.54-.04.07-.05.13-.13.15-.22.02-.09-.01-.17-.07-.24-.09-.12-.19-.15-.33-.18.07-.13.16-.24.11-.4-.02-.06-.04-.08-.09-.12-.14-.03-.36.13-.4.06-.1-.16.05-.32-.22-.4-.06-.02-.12-.02-.18-.02Z"/>
      <path class="cls-1" d="M21.16,17.21c.1-.27.22-.54.33-.81.31.09.61.23.9.36l1.46.6c-.09.25-.17.57-.3.81-.25-.09-.5-.2-.74-.3-.55-.23-1.09-.45-1.65-.66Z"/>
      <path class="cls-1" d="M40.13,17.32c.29-.09.56-.21.85-.31.52-.18,1.04-.35,1.56-.55h.03c.1.28.2.54.31.81-.4.15-.8.29-1.21.43-.4.14-.81.29-1.21.41h-.04c-.12-.25-.21-.53-.29-.79Z"/>
      <path class="cls-1" d="M28.32,17.23c-.29,0-.57,0-.86,0-.21,0-.45.04-.66,0-.09-.02-.16-.06-.21-.13-.05-.08-.06-.2-.04-.3.03-.11.12-.16.21-.22.33-.01.66,0,.99,0,.23,0,.49-.02.72.01.1.01.19.05.27.1.26.18.3.87.36,1.18h4.92c.55,0,1.11,0,1.66,0,.32,0,.64-.02.96,0,.09,0,.21.02.28.08.06.05.09.13.1.21,0,.1-.02.21-.09.28-.05.06-.11.08-.18.09-.23.02-.46,0-.69,0h-1.33s-2.77,0-2.77,0c-.91,0-1.82-.02-2.72.01.18,1.06.43,2.11.64,3.17.06.32.13.64.18.95,1.28.01,2.57-.01,3.85-.01.6,0,1.21-.02,1.81.03-.23.22-.44.46-.67.69-.99.01-1.97-.01-2.96,0-.68,0-1.39.05-2.07,0-.13,0-.33-.03-.43-.11-.07-.06-.12-.15-.14-.24-.06-.23-.08-.48-.13-.72l-.31-1.6c-.22-1.16-.47-2.31-.67-3.47Z"/>
      <path class="cls-1" d="M18.29,17.38c-.11.1-.2.14-.35.14-.54.01-1.09,0-1.63,0-.33,0-.68.02-1.01-.02-.1-.01-.21-.03-.28-.1-.14-.14-.14-.32-.15-.51,1.18,0,2.36,0,3.54,0,0,.2,0,.32-.12.48Z"/>
      <path class="cls-1" d="M32.26,20.36c-.03-.48-.06-.98-.06-1.46.75-.03,1.52-.02,2.27,0-.05.42-.1.84-.16,1.27,0,.06,0,.13-.03.18-.22.02-.46,0-.69,0h-1.33Z"/>
      <path class="cls-1" d="M34.7,20.36c.02-.41.12-1.06.19-1.47h1.79c-.13.44-.22.91-.33,1.36l-.02.07s-.02.02-.03.03c-.06.03-1.4,0-1.6,0Z"/>
      <path class="cls-1" d="M30.04,20.36c-.1-.48-.23-.97-.28-1.45.69,0,1.37,0,2.06,0,.01.48.03.96.05,1.45-.61.01-1.22,0-1.83,0Z"/>
      <path class="cls-1" d="M32.32,22.28c0-.51-.07-1.04-.03-1.55.2.02.43,0,.63,0h1.32c-.06.46-.11.92-.17,1.38,0,.06,0,.11-.04.16-.2.03-.43.01-.64,0h-1.07Z"/>
      <path class="cls-1" d="M30.11,20.75c.51-.01,1.02,0,1.53,0h.24c0,.5.05,1.01.04,1.52h-1.53c-.09-.5-.18-1.01-.28-1.51Z"/>
      <path class="cls-1" d="M34.46,22.28c.03-.51.11-1.03.17-1.54h1.6c-.12.46-.22.93-.35,1.39-.01.05-.03.1-.04.15-.46,0-.93,0-1.39,0Z"/>
      <path class="cls-1" d="M16.94,31.74c-1.1.1-2.39-.27-3.24-.98-.98-.8-1.56-1.88-1.68-3.14-.12-1.19.31-2.41,1.07-3.32.75-.9,1.9-1.49,3.07-1.6,0,0,.01,0,.02,0,1.17-.11,2.39.31,3.28,1.05.92.76,1.5,1.94,1.6,3.12.11,1.23-.27,2.41-1.07,3.35-.76.9-1.91,1.41-3.07,1.51ZM16.47,23.31c-1.1.04-2.08.47-2.84,1.28-.02.02-.04.05-.06.07-.02.02-.04.05-.06.07-.02.02-.04.05-.06.07-.02.03-.04.05-.06.08-.02.03-.04.05-.06.08-.02.03-.04.05-.06.08-.02.03-.04.05-.05.08-.02.03-.03.05-.05.08-.02.03-.03.05-.05.08-.02.03-.03.06-.05.08-.02.03-.03.06-.05.09-.01.03-.03.06-.04.09-.01.03-.03.06-.04.09-.01.03-.03.06-.04.09s-.02.06-.04.09c-.01.03-.02.06-.03.09-.01.03-.02.06-.03.09-.01.03-.02.06-.03.09,0,.03-.02.06-.03.09,0,.03-.02.06-.03.09,0,.03-.02.06-.02.09,0,.03-.01.06-.02.09,0,.03-.01.06-.02.09,0,.03-.01.06-.02.09,0,.03,0,.06-.01.1,0,.03,0,.06-.01.1,0,.03,0,.06,0,.1,0,.03,0,.06,0,.1,0,.03,0,.06,0,.1,0,.03,0,.06,0,.1,0,.03,0,.06,0,.1,0,.03,0,.06,0,.1.04,1.04.51,2.01,1.28,2.72.74.68,1.75,1.02,2.74,1.03,1.11-.05,2.11-.42,2.87-1.26.02-.02.04-.05.06-.07.02-.02.04-.05.06-.07.02-.02.04-.05.06-.07.02-.02.04-.05.06-.07.02-.03.04-.05.06-.08.02-.03.04-.05.05-.08.02-.03.03-.05.05-.08.02-.03.03-.05.05-.08.02-.03.03-.05.05-.08.02-.03.03-.05.05-.08.01-.03.03-.06.04-.08.01-.03.03-.06.04-.08.01-.03.03-.06.04-.09.01-.03.02-.06.04-.09.01-.03.02-.06.03-.09.01-.03.02-.06.03-.09.01-.03.02-.06.03-.09,0-.03.02-.06.03-.09,0-.03.02-.06.03-.09,0-.03.02-.06.02-.09,0-.03.01-.06.02-.09,0-.03.01-.06.02-.09,0-.03.01-.06.02-.09,0-.03.01-.06.01-.09,0-.03,0-.06.01-.09,0-.03,0-.06.01-.09,0-.03,0-.06,0-.09s0-.06,0-.09c0-.03,0-.06,0-.09,0-.03,0-.06,0-.09,0-.03,0-.06,0-.09,0-.03,0-.06,0-.09-.05-1.08-.46-2.05-1.26-2.78-.8-.72-1.67-1.02-2.74-1.04Z"/>
      <path class="cls-1" d="M47.84,31.72c-.34.03-.67.04-1.01,0-.79-.09-1.65-.46-2.27-.97-.94-.77-1.49-1.85-1.61-3.05-.12-1.26.25-2.43,1.06-3.41.76-.91,1.91-1.47,3.08-1.58,0,0,0,0,.01,0,1.16-.09,2.29.22,3.2.95.03.02.06.05.09.07.03.02.06.05.08.07.03.02.06.05.08.08.03.03.05.05.08.08.03.03.05.05.08.08.03.03.05.05.08.08.03.03.05.05.08.08.02.03.05.06.07.08.02.03.05.06.07.09.02.03.05.06.07.09.02.03.04.06.07.09.02.03.04.06.06.09.02.03.04.06.06.09.02.03.04.06.06.09.02.03.04.06.06.1.02.03.04.06.06.1.02.03.04.07.05.1.02.03.03.07.05.1.02.03.03.07.05.1.02.03.03.07.05.1.01.03.03.07.04.1.01.03.03.07.04.1.01.04.03.07.04.11.01.04.02.07.03.11.01.04.02.07.03.11.01.04.02.07.03.11,0,.04.02.07.03.11,0,.04.02.07.02.11,0,.04.01.07.02.11,0,.04.01.07.02.11,0,.04.01.07.02.11,0,.04,0,.07.01.11.13,1.18-.19,2.38-.94,3.3-.79.98-1.95,1.56-3.2,1.69ZM47.05,23.33c-1,.1-2,.65-2.63,1.43-.02.02-.04.05-.06.07-.02.03-.04.05-.06.08-.02.03-.04.05-.06.08-.02.03-.04.05-.05.08-.02.03-.04.05-.05.08-.02.03-.03.05-.05.08-.02.03-.03.06-.05.08-.02.03-.03.06-.05.08-.02.03-.03.06-.04.09-.01.03-.03.06-.04.09-.01.03-.03.06-.04.09-.01.03-.03.06-.04.09-.01.03-.02.06-.04.09-.01.03-.02.06-.03.09-.01.03-.02.06-.03.09,0,.03-.02.06-.03.09,0,.03-.02.06-.03.09,0,.03-.02.06-.02.09,0,.03-.02.06-.02.09,0,.03-.01.06-.02.09,0,.03-.01.06-.02.09,0,.03-.01.06-.01.09,0,.03,0,.06-.01.1,0,.03,0,.06-.01.1,0,.03,0,.06,0,.1s0,.06,0,.1c0,.03,0,.06,0,.1,0,.03,0,.06,0,.1,0,.03,0,.06,0,.1,0,.03,0,.06,0,.1s0,.06,0,.1c0,.03,0,.06,0,.1,0,.03,0,.07.01.1,0,.03,0,.06.01.1,0,.03.01.06.02.1,0,.03.01.06.02.1,0,.03.01.06.02.1,0,.03.02.06.02.1,0,.03.02.06.03.09,0,.03.02.06.03.09,0,.03.02.06.03.09.01.03.02.06.03.09.01.03.02.06.03.09.01.03.02.06.04.09.01.03.03.06.04.09.01.03.03.06.04.09.01.03.03.06.04.09.01.03.03.06.05.09.02.03.03.06.05.09.02.03.03.06.05.08.02.03.03.06.05.08.02.03.04.05.05.08.02.03.04.05.06.08.02.03.04.05.06.08.02.03.04.05.06.08.02.03.04.05.06.08.02.03.04.05.06.07.02.02.04.05.07.07.02.02.04.05.07.07.02.02.05.05.07.07.02.02.05.05.07.07.02.02.05.04.07.07.02.02.05.04.07.06.03.02.05.04.08.06.78.62,1.85.88,2.83.77.02,0,.04,0,.06,0,1.04-.11,1.95-.61,2.61-1.41.02-.02.04-.05.06-.07.02-.02.04-.05.06-.07.02-.02.04-.05.05-.07.02-.03.04-.05.05-.08.02-.03.03-.05.05-.08s.03-.05.05-.08c.02-.03.03-.05.05-.08.02-.03.03-.05.05-.08.01-.03.03-.05.04-.08.01-.03.03-.06.04-.08.01-.03.03-.06.04-.08.01-.03.03-.06.04-.08.01-.03.02-.06.04-.09.01-.03.02-.06.03-.09.01-.03.02-.06.03-.09,0-.03.02-.06.03-.09,0-.03.02-.06.03-.09,0-.03.02-.06.02-.09,0-.03.02-.06.02-.09,0-.03.01-.06.02-.09,0-.03.01-.06.02-.09,0-.03.01-.06.02-.09,0-.03,0-.06.01-.09,0-.03,0-.06.01-.09,0-.03,0-.06,0-.09,0-.03,0-.06,0-.09,0-.03,0-.06,0-.09,0-.03,0-.06,0-.09,0-.03,0-.06,0-.09,0-.03,0-.06,0-.09,0-.03,0-.06,0-.09,0-.03,0-.06,0-.09-.11-1.06-.6-2.09-1.44-2.76-.8-.65-1.85-.92-2.88-.82,0,0-.01,0-.02,0Z"/>
      <path class="cls-1" d="M30.56,25.71c-.25,0-.47-.06-.67-.21-.01,0-.02-.02-.04-.03-.01-.01-.02-.02-.03-.03-.01-.01-.02-.02-.03-.03-.01-.01-.02-.02-.03-.04,0-.01-.02-.02-.03-.04,0-.01-.02-.03-.03-.04,0-.01-.02-.03-.03-.04,0-.01-.02-.03-.02-.04,0-.01-.01-.03-.02-.04,0-.01-.01-.03-.02-.04,0-.01-.01-.03-.02-.04,0-.01-.01-.03-.01-.04,0-.01,0-.03-.01-.05,0-.02,0-.03-.01-.05,0-.02,0-.03,0-.05,0-.02,0-.03,0-.05-.03-.27.07-.54.24-.74.19-.22.42-.31.7-.33.21,0,.4.05.58.17.01,0,.03.02.04.03.01,0,.02.02.04.03.01.01.02.02.04.03.01.01.02.02.03.03.01.01.02.02.03.04.01.01.02.02.03.04,0,.01.02.03.03.04,0,.01.02.03.03.04,0,.01.02.03.02.04,0,.01.02.03.02.04,0,.01.01.03.02.04,0,.01.01.03.02.04,0,.01.01.03.02.05,0,.02,0,.03.01.05,0,.02,0,.03.01.05,0,.02,0,.03,0,.05,0,.02,0,.03,0,.05,0,.02,0,.03,0,.05,0,.02,0,.03,0,.05,0,.02,0,.03,0,.05,0,.02,0,.03,0,.05,0,.02,0,.03,0,.05,0,.02,0,.03,0,.05,0,.02,0,.03-.01.05,0,.02,0,.03-.01.05,0,.02,0,.03-.02.05,0,.02-.01.03-.02.05,0,.02-.01.03-.02.05,0,.01-.01.03-.02.04,0,.01-.02.03-.02.04,0,.01-.02.03-.03.04,0,.01-.02.03-.03.04-.18.24-.43.35-.72.39Z"/>
      <path class="cls-1" d="M34.57,25.72c-.22.02-.42,0-.62-.1-.24-.12-.43-.34-.51-.6,0-.02,0-.03-.01-.05,0-.02,0-.03,0-.05,0-.02,0-.03,0-.05,0-.02,0-.03,0-.05,0-.02,0-.03,0-.05,0-.02,0-.03,0-.05,0-.02,0-.03,0-.05,0-.02,0-.03,0-.05,0-.02,0-.03,0-.05,0-.02,0-.03.01-.05,0-.02,0-.03.01-.05,0-.02,0-.03.02-.05,0-.02.01-.03.02-.05,0-.02.01-.03.02-.05,0-.02.01-.03.02-.04,0-.01.02-.03.02-.04.16-.28.4-.4.7-.47.23-.01.45,0,.66.11.23.12.38.33.45.57.07.26.04.55-.09.79-.15.27-.4.4-.69.48Z"/>
      <path class="cls-1" d="M21.13,24.91c.29-.18.65-.3.96-.43.48-.2.97-.4,1.45-.61.07.07.28.67.33.81-.31.15-.64.27-.95.4-.48.2-.96.4-1.44.61-.11-.26-.23-.52-.35-.78Z"/>
      <path class="cls-1" d="M40.18,24.69c.09-.27.19-.54.29-.81.25.07.52.21.77.3.56.22,1.13.43,1.67.69-.09.27-.22.53-.29.81,0,0,0,0,0,0-.09,0-2.18-.87-2.42-.99Z"/>
      <path class="cls-1" d="M16.9,30.23c-.76.09-1.51-.17-2.11-.63-.61-.46-1.04-1.17-1.14-1.93-.11-.79.07-1.54.56-2.17.52-.67,1.2-1.06,2.04-1.17.64-.08,1.35.1,1.88.46.67.45,1.17,1.14,1.32,1.94.14.75-.06,1.57-.49,2.2-.48.7-1.23,1.14-2.06,1.29ZM17.44,29.67h0s0,0,0,0c.27-.1.72-.33.87-.59v-.03c-.16-.02-.31-.04-.46-.05-.1.25-.25.46-.41.68ZM16.72,24.8c0,.32,0,.64,0,.96.28,0,.56,0,.84-.03-.1-.35-.37-.68-.69-.86-.05-.03-.1-.05-.15-.07ZM16.3,24.85c-.26.13-.69.5-.78.78-.01.03,0,.03-.01.06l.02.02.14.02c.23.02.46.04.69.02.02-.17.05-.76-.01-.89h-.05ZM17.55,24.92c.14.25.28.49.4.75.15-.02.3-.04.45-.07v-.03c-.15-.27-.58-.51-.85-.65ZM15.55,24.94c-.19.09-.74.38-.81.59-.01.03,0,.02.01.05l.07.03.33.07c.11-.27.24-.49.41-.72h-.02ZM14.41,25.85c-.26.38-.43.84-.43,1.3h.64s.22,0,.22,0c.03-.41.09-.78.2-1.17-.21-.05-.42-.1-.63-.14ZM18.61,25.89c-.19.04-.38.08-.57.1.05.21.09.41.12.63.02.18.02.37.06.54h.34s.54,0,.54,0c-.02-.36-.16-1.01-.42-1.27-.02,0-.04,0-.06,0ZM15.39,26.02c-.11.37-.2.75-.2,1.14h.99c.05,0,.14,0,.18-.02.02-.36,0-.72,0-1.07-.33,0-.65-.01-.98-.05ZM17.44,26.05c-.24.02-.47.03-.71.04,0,.36,0,.71,0,1.07h.43s.7,0,.7,0c-.02-.38-.05-.76-.19-1.12h-.23ZM15.19,27.48c0,.37.1.78.23,1.13.32,0,.64,0,.96-.02.04-.36,0-.75,0-1.11h-1.2ZM13.99,27.49c.05.48.22.89.51,1.27.16-.03.33-.07.5-.09l.06-.02c.01-.1-.06-.27-.09-.37-.03-.13-.06-.26-.07-.4-.02-.13-.03-.27-.03-.4h-.87ZM16.72,27.49v1.1c.3.01.59.04.89.04l.06-.16c.09-.32.14-.65.17-.98h-1.12ZM18.19,27.49c-.03.42-.1.77-.22,1.17.21.03.43.06.64.11.04-.05.07-.1.11-.15.2-.37.34-.72.38-1.14-.3,0-.6,0-.91,0ZM15.6,28.93c-.02.08.05.17.1.24.17.25.4.49.68.62.03-.29.02-.58.02-.87-.26,0-.53,0-.79.01ZM16.72,28.92c0,.29,0,.59,0,.88.18-.08.31-.19.44-.33.13-.17.24-.33.33-.52-.26-.02-.51-.03-.77-.02ZM15.1,28.99c-.14.02-.27.04-.41.07.1.09.21.17.32.25.11.08.23.15.35.21.09.04.17.08.26.11-.09-.11-.38-.62-.46-.65h-.05Z"/>
      <path class="cls-1" d="M44.98,25.93c-.09,0-.18,0-.28,0-.04,0-.1,0-.13-.03,0-.02,0-.02.01-.04.05-.12.57-.79.69-.89.04-.03.08-.05.13-.07.13,0,.26,0,.39.02-.09.35-.25.67-.33,1.02h-.48Z"/>
      <path class="cls-1" d="M45.78,25.94c.06-.2.2-.85.3-.99.02-.03.05-.03.09-.03.87-.04,1.75-.01,2.62-.01.16.33.27.68.38,1.03h-.43c-.99,0-1.97,0-2.96,0Z"/>
      <path class="cls-1" d="M49.46,25.95c-.1-.35-.27-.68-.34-1.04.13,0,.27,0,.4,0,.14.09.25.23.36.35.12.14.38.43.42.61,0,.02,0,.07,0,.09h-.84Z"/>
      <path class="cls-1" d="M49.46,29.38c-.02-.35,0-.72,0-1.07,0-.71,0-1.42,0-2.14h.85s0,1.61,0,1.61c0,.32.04.7-.04,1.01-.04.14-.12.25-.22.35-.19.16-.36.21-.6.24Z"/>
      <path class="cls-1" d="M45.48,29.35s-.05,0-.07,0c-.22,0-.42-.12-.57-.28-.11-.11-.2-.25-.24-.41-.07-.29-.03-.65-.03-.95v-1.55s.92,0,.92,0c.03,1.05,0,2.11,0,3.17Z"/>
      <path class="cls-1" d="M45.72,29.37v-3.19s3.53,0,3.53,0c0,1.06.04,2.13,0,3.2-.41-.03-.83-.02-1.23-.02h-2.3ZM46.07,26.72c-.02.06-.04.14,0,.2.01.02.01.02.04.02.21.04.64,0,.88,0,.63,0,1.27.01,1.91-.01,0-.08,0-.16,0-.24-.93,0-1.9-.03-2.82.01ZM46.06,27.56v.25c.94,0,1.88,0,2.82-.01,0-.08,0-.16,0-.24h-2.83ZM47.39,28.4h-1.33c0,.08,0,.15,0,.22.48,0,.95,0,1.43,0,.24,0,1.19.04,1.35-.03.04-.05.03-.05.03-.11-.04-.05-.06-.07-.13-.08-.12-.02-.26,0-.39,0h-.97Z"/>
      <path class="cls-1" d="M27.39,31.58c.15-.46.34-.9.51-1.35.14-.37.26-.74.41-1.1.25.09.5.19.75.3-.31.83-.58,1.68-.93,2.48-.24-.11-.49-.22-.73-.33Z"/>
      <path class="cls-1" d="M34.95,29.48c.25-.13.52-.23.78-.34.09.08.9,2.19.99,2.44-.26.11-.53.21-.79.32h-.04c-.14-.25-.22-.56-.33-.83-.21-.53-.45-1.06-.62-1.6Z"/>
      <path class="cls-1" d="M38.44,41.03c-1.17.04-2.32-.33-3.21-1.11-.03-.02-.06-.05-.08-.07-.03-.02-.05-.05-.08-.08-.03-.03-.05-.05-.08-.08-.03-.03-.05-.05-.08-.08-.03-.03-.05-.05-.08-.08-.02-.03-.05-.06-.07-.08-.02-.03-.05-.06-.07-.09-.02-.03-.05-.06-.07-.09-.02-.03-.05-.06-.07-.09-.02-.03-.04-.06-.06-.09-.02-.03-.04-.06-.06-.09-.02-.03-.04-.06-.06-.09-.02-.03-.04-.06-.06-.09-.02-.03-.04-.06-.06-.1-.02-.03-.04-.06-.05-.1-.02-.03-.03-.07-.05-.1-.02-.03-.03-.07-.05-.1-.02-.03-.03-.07-.05-.1-.01-.03-.03-.07-.04-.1-.01-.03-.03-.07-.04-.1-.01-.03-.03-.07-.04-.1-.01-.03-.02-.07-.04-.11-.01-.04-.02-.07-.03-.11-.01-.04-.02-.07-.03-.11,0-.04-.02-.07-.03-.11,0-.04-.02-.07-.03-.11,0-.04-.02-.07-.02-.11,0-.04-.01-.07-.02-.11,0-.04-.01-.07-.02-.11,0-.04,0-.07-.01-.11,0-.04,0-.07-.01-.11,0-.04,0-.07,0-.11,0-.04,0-.08,0-.11,0-.04,0-.08,0-.11,0-.04,0-.08,0-.11,0-.04,0-.08,0-.11,0-.04,0-.08,0-.11,0-.04,0-.08,0-.11,0-.04,0-.08.01-.11,0-.04,0-.08.01-.11,0-.04.01-.07.02-.11,0-.04.01-.07.02-.11,0-.04.01-.07.02-.11,0-.04.02-.07.02-.11,0-.04.02-.07.03-.11,0-.04.02-.07.03-.11.01-.04.02-.07.03-.11.01-.04.02-.07.04-.11.01-.04.02-.07.04-.11.01-.04.03-.07.04-.11.01-.04.03-.07.04-.1.01-.03.03-.07.05-.1.02-.03.03-.07.05-.1.02-.03.03-.07.05-.1.02-.03.03-.07.05-.1.02-.03.04-.07.06-.1.02-.03.04-.07.06-.1.02-.03.04-.06.06-.1.02-.03.04-.06.06-.09.02-.03.04-.06.06-.09.02-.03.04-.06.07-.09.02-.03.05-.06.07-.09.02-.03.05-.06.07-.09.02-.03.05-.06.07-.09.83-.93,2.04-1.48,3.28-1.55,1.05-.04,2.19.32,3.01.98.03.02.06.05.09.07.03.02.06.05.09.07.03.03.06.05.08.08.03.03.05.05.08.08.03.03.05.05.08.08.03.03.05.05.08.08.03.03.05.06.08.08.02.03.05.06.07.09.02.03.05.06.07.09.02.03.05.06.07.09.02.03.05.06.07.09.02.03.04.06.06.09.02.03.04.06.06.09.02.03.04.06.06.1.02.03.04.06.06.1.02.03.04.07.06.1.02.03.04.07.05.1.02.03.03.07.05.1.02.03.03.07.05.1.02.03.03.07.05.1.01.03.03.07.04.11.01.04.03.07.04.11.01.04.03.07.04.11.01.04.02.07.03.11.01.04.02.07.03.11.01.04.02.07.03.11,0,.04.02.07.03.11,0,.04.02.07.02.11,0,.04.01.07.02.11,0,.04.01.07.02.11,0,.04.01.07.02.11,0,.04,0,.08.01.11.12,1.16-.27,2.41-1,3.31-.88,1.07-2,1.57-3.36,1.7ZM38.06,32.56c-1.04.07-2.07.53-2.76,1.32-.02.02-.04.05-.06.07-.02.03-.04.05-.06.08-.02.03-.04.05-.06.08-.02.03-.04.05-.06.08-.02.03-.04.05-.06.08-.02.03-.04.05-.06.08-.02.03-.04.06-.05.08-.02.03-.03.06-.05.08-.02.03-.03.06-.05.09-.02.03-.03.06-.05.09-.02.03-.03.06-.04.09-.01.03-.03.06-.04.09-.01.03-.03.06-.04.09-.01.03-.03.06-.04.09-.01.03-.02.06-.04.09-.01.03-.02.06-.03.09-.01.03-.02.06-.03.09,0,.03-.02.06-.03.09,0,.03-.02.06-.03.1,0,.03-.02.06-.02.1s-.01.06-.02.1c0,.03-.01.06-.02.1,0,.03-.01.07-.02.1,0,.03-.01.07-.01.1,0,.03,0,.07-.01.1,0,.03,0,.07,0,.1,0,.03,0,.07,0,.1,0,.03,0,.07,0,.1,0,.03,0,.07,0,.1,0,.03,0,.07,0,.1,0,.03,0,.07,0,.1,0,.03,0,.07,0,.1.07.99.55,1.98,1.3,2.63.82.71,1.78.99,2.84.97,1.15-.12,2.16-.59,2.9-1.5.62-.77.93-1.87.82-2.85-.11-1.03-.61-1.98-1.42-2.63-.74-.59-1.72-.93-2.68-.86Z"/>
      <path class="cls-1" d="M26.09,41.03c-1.21.06-2.23-.22-3.18-1-.95-.79-1.5-1.89-1.61-3.12,0-.04,0-.07,0-.11,0-.04,0-.07,0-.11,0-.04,0-.07,0-.11,0-.04,0-.07,0-.11,0-.04,0-.07,0-.11,0-.04,0-.07,0-.11,0-.04,0-.07,0-.11,0-.04,0-.07,0-.11,0-.04,0-.07.01-.11s0-.07.02-.11c0-.04.01-.07.02-.11,0-.04.01-.07.02-.11,0-.04.02-.07.02-.11,0-.04.02-.07.03-.11,0-.04.02-.07.03-.11.01-.04.02-.07.03-.11.01-.04.02-.07.03-.11.01-.04.02-.07.04-.1.01-.03.03-.07.04-.1.01-.03.03-.07.04-.1.01-.03.03-.07.04-.1.02-.03.03-.07.05-.1.02-.03.03-.07.05-.1.02-.03.03-.07.05-.1.02-.03.04-.06.05-.1.02-.03.04-.06.06-.1s.04-.06.06-.09c.02-.03.04-.06.06-.09.02-.03.04-.06.06-.09.02-.03.04-.06.07-.09.02-.03.04-.06.07-.09.02-.03.05-.06.07-.09.59-.71,1.43-1.26,2.33-1.49.3-.08.6-.11.91-.13,1.06-.13,2.28.33,3.11.97.03.02.06.04.08.07.03.02.05.05.08.07.03.02.05.05.08.07.03.02.05.05.08.07.03.02.05.05.08.08.03.03.05.05.07.08.02.03.05.05.07.08s.05.05.07.08c.02.03.05.05.07.08.02.03.04.06.07.08.02.03.04.06.06.09.02.03.04.06.06.09.02.03.04.06.06.09.02.03.04.06.06.09.02.03.04.06.06.09.02.03.04.06.05.09.02.03.03.06.05.09.02.03.03.06.05.1.02.03.03.06.05.1.02.03.03.06.04.1.01.03.03.07.04.1.01.03.03.07.04.1.01.03.03.07.04.1.01.03.02.07.03.1.01.03.02.07.03.1.01.03.02.07.03.1,0,.03.02.07.03.1,0,.03.02.07.02.1,0,.03.02.07.02.1,0,.03.01.07.02.11,0,.04.01.07.02.11,0,.04.01.07.01.11,0,.04,0,.07.01.11,0,.04,0,.07.01.11,0,.04,0,.07,0,.11,0,.04,0,.07,0,.11,0,.04,0,.07,0,.11,0,.04,0,.07,0,.11,0,.04,0,.07,0,.11,0,.04,0,.07,0,.11,0,.04,0,.07,0,.11,0,.04,0,.07-.01.11,0,.04,0,.07-.01.11,0,.04-.01.07-.02.11,0,.04-.01.07-.02.11,0,.04-.01.07-.02.11,0,.04-.02.07-.03.11,0,.04-.02.07-.03.11,0,.04-.02.07-.03.11-.01.04-.02.07-.03.11-.01.04-.02.07-.04.11-.01.04-.03.07-.04.11-.01.03-.03.07-.04.1-.01.03-.03.07-.04.1-.01.03-.03.07-.05.1-.02.03-.03.07-.05.1-.02.03-.03.07-.05.1-.02.03-.04.07-.05.1-.02.03-.04.07-.06.1-.02.03-.04.06-.06.1-.02.03-.04.06-.06.09-.02.03-.04.06-.06.09-.02.03-.04.06-.07.09-.02.03-.04.06-.07.09-.87,1.11-1.9,1.62-3.3,1.79ZM25.65,32.6c-1.12.07-2.05.5-2.79,1.34-.69.78-1.02,1.85-.96,2.88,0,.03,0,.06,0,.09,0,.03,0,.06,0,.09,0,.03,0,.06.01.09,0,.03,0,.06.01.09,0,.03.01.06.02.09,0,.03.01.06.02.09s.01.06.02.09c0,.03.02.06.02.09,0,.03.02.06.03.09,0,.03.02.06.03.09,0,.03.02.06.03.09.01.03.02.06.03.09.01.03.02.06.03.09.01.03.02.06.04.09.01.03.03.06.04.09.01.03.03.06.04.09.01.03.03.06.04.08.01.03.03.06.04.08.02.03.03.05.05.08.02.03.03.05.05.08.02.03.03.05.05.08.02.03.03.05.05.08.02.03.04.05.05.08.02.03.04.05.06.08.02.02.04.05.06.07.02.02.04.05.06.07.02.02.04.05.06.07.02.02.04.05.06.07.02.02.04.05.07.07.02.02.04.04.07.07.02.02.05.04.07.06.02.02.05.04.07.06.79.69,1.74.96,2.77.95.96-.03,1.96-.46,2.62-1.16.75-.8,1.17-1.8,1.14-2.9-.03-1.02-.45-1.99-1.2-2.68-.75-.69-1.81-1.11-2.83-1.07-.02,0-.03,0-.05,0Z"/>
      <path class="cls-1" d="M18.05,37.97c-.79.02-1.46-.13-2.08-.65-.58-.49-.9-1.14-.97-1.89-.06-.73.17-1.52.65-2.08.52-.62,1.22-.94,2.02-1.01.66-.06,1.35.17,1.87.57.59.45,1.02,1.11,1.12,1.85.1.76-.09,1.49-.56,2.09-.51.65-1.24,1.02-2.05,1.12ZM16.18,33.89l-.04.02c-.01.07-.01.11,0,.18.03.02.04.02.07.02.38,0,.76,0,1.14,0,.69,0,1.39,0,2.08,0,.05-.01.05-.01.07-.06,0-.06,0-.07-.02-.12-.04-.03-.06-.05-.11-.05-.31-.03-.66,0-.98,0h-2.22ZM16.41,34.33c.45.36.98.65,1.4,1.02.26-.19.53-.38.78-.58.19-.14.38-.27.56-.42-.37-.03-.75-.02-1.12-.02h-1.62ZM19.48,34.45c-.52.38-1.14.87-1.69,1.19-.36-.27-.73-.53-1.1-.79-.19-.13-.37-.28-.56-.4,0,.29,0,.58,0,.88,0,.26-.06.8.02,1.03.06.04.14.04.21.04.5.03,1.01,0,1.5,0,.49,0,1.17.05,1.65-.02,0-.23.04-1.85-.02-1.93Z"/>
      <path class="cls-1" d="M46.55,37.99c-.74.05-1.46-.11-2.06-.56-.04-.03-.08-.06-.11-.09-.04-.03-.07-.06-.11-.09-.03-.03-.07-.07-.1-.1-.03-.03-.07-.07-.1-.1-.03-.04-.06-.07-.09-.11-.03-.04-.06-.07-.09-.11-.03-.04-.05-.08-.08-.12-.03-.04-.05-.08-.07-.12-.02-.04-.05-.08-.07-.12-.02-.04-.04-.08-.06-.13-.02-.04-.04-.09-.06-.13-.02-.04-.03-.09-.05-.13-.02-.04-.03-.09-.04-.14-.01-.05-.02-.09-.04-.14-.01-.05-.02-.09-.03-.14,0-.05-.02-.09-.02-.14-.1-.75.13-1.47.59-2.06.5-.64,1.23-1,2.03-1.09.05,0,.09,0,.14,0,.05,0,.09,0,.14,0,.05,0,.09,0,.14,0,.05,0,.09,0,.14.01.05,0,.09.01.14.02.04,0,.09.01.13.02.04,0,.09.02.13.03.04.01.09.02.13.04.04.01.09.03.13.04.04.01.09.03.13.05.04.02.08.03.13.05.04.02.08.04.12.06.04.02.08.04.12.06.04.02.08.05.12.07.04.02.08.05.11.08.04.03.07.05.11.08.59.45.96,1.11,1.06,1.85,0,.05.01.09.01.14,0,.05,0,.09,0,.14,0,.05,0,.09,0,.14,0,.05,0,.09,0,.14,0,.05,0,.09-.01.14,0,.05-.01.09-.02.14,0,.05-.02.09-.03.14-.01.05-.02.09-.03.14-.01.04-.03.09-.04.13-.01.04-.03.09-.05.13-.02.04-.03.09-.05.13-.02.04-.04.08-.06.13-.02.04-.04.08-.07.12-.02.04-.05.08-.07.12-.03.04-.05.08-.08.12-.03.04-.05.08-.08.11-.5.64-1.17.98-1.96,1.08ZM46.05,33.47c-.35.1-.65.26-.82.59-.14.25-.19.59-.1.86.12.4.88,1.46,1.16,1.83l.09-.12.57-.88c.17-.26.38-.52.48-.82.06-.19.05-.39.01-.58,0-.02,0-.03-.01-.05,0-.02,0-.03-.01-.05,0-.02-.01-.03-.02-.05,0-.02-.01-.03-.02-.05,0-.02-.01-.03-.02-.05,0-.02-.02-.03-.02-.05,0-.02-.02-.03-.03-.05,0-.02-.02-.03-.03-.04,0-.01-.02-.03-.03-.04-.01-.01-.02-.03-.03-.04-.01-.01-.02-.03-.03-.04-.01-.01-.02-.03-.04-.04-.01-.01-.03-.02-.04-.04-.01-.01-.03-.02-.04-.03-.01-.01-.03-.02-.04-.03-.01-.01-.03-.02-.04-.03-.27-.17-.59-.23-.9-.2Z"/>
      <path class="cls-1" d="M38.28,39.57c-.71-.89-1.3-1.8-1.68-2.88-.1-.28-.19-.57-.23-.86-.07-.49.09-.99.38-1.38.32-.42.79-.65,1.3-.72.5-.05.96.07,1.37.37.4.29.64.71.72,1.19.16,1.03-.55,2.39-1.1,3.24-.21.32-.45.63-.67.94l-.08.1ZM38.15,34.49c-.31.05-.59.16-.78.42-.17.23-.24.54-.2.82.05.28.22.53.45.68.23.16.46.19.73.19.28-.03.54-.16.72-.38.17-.21.27-.49.24-.75,0-.02,0-.04,0-.05,0-.02,0-.04-.01-.05,0-.02,0-.04-.01-.05,0-.02,0-.04-.02-.05,0-.02-.01-.04-.02-.05,0-.02-.01-.03-.02-.05,0-.02-.01-.03-.02-.05,0-.02-.02-.03-.03-.05,0-.02-.02-.03-.03-.05,0-.02-.02-.03-.03-.05-.01-.02-.02-.03-.03-.04-.01-.01-.02-.03-.03-.04-.01-.01-.02-.03-.04-.04-.01-.01-.03-.03-.04-.04-.01-.01-.03-.03-.04-.04-.01-.01-.03-.02-.04-.04-.2-.16-.48-.26-.74-.22Z"/>
      <path class="cls-1" d="M22.97,35.27c.05-.18.34-1.26.41-1.38.02-.04.03-.03.07-.04.89-.04,1.79-.01,2.68-.01.66,0,1.41-.04,2.06.02.17.46.3.93.43,1.41h-.51s-5.14,0-5.14,0Z"/>
      <path class="cls-1" d="M46.4,35.3c-.13.02-.27,0-.38-.06-.15-.07-.27-.21-.33-.38,0-.02-.01-.04-.02-.06,0-.02,0-.04-.01-.06,0-.02,0-.04,0-.06,0-.02,0-.04,0-.06,0-.02,0-.04,0-.06,0-.02,0-.04.01-.06,0-.02.01-.04.02-.06,0-.02.02-.04.03-.06.09-.18.24-.27.42-.33.11,0,.21,0,.32.03.17.05.3.16.38.32,0,.02.02.04.02.06,0,.02.01.04.02.06,0,.02,0,.04.01.06,0,.02,0,.04,0,.06,0,.02,0,.04,0,.06,0,.02,0,.04,0,.06,0,.02,0,.04-.01.06,0,.02-.01.04-.02.06-.09.21-.25.33-.46.42Z"/>
      <path class="cls-1" d="M23.41,35.56h.6c1.43-.02,2.86-.03,4.28,0,0,1.27,0,2.54.01,3.81h-.58c-1.45.03-2.9,0-4.35,0l.03-3.81ZM23.85,36.12v.64s.74,0,.74,0c0-.21,0-.42,0-.64-.25,0-.49,0-.74,0ZM24.84,36.12c0,.21,0,.43,0,.64.26,0,.52,0,.78,0v-.64s-.78,0-.78,0ZM26.18,36.68v2.49c.54,0,1.07.02,1.61.01v-2.49c-.53-.01-1.07-.03-1.61-.01ZM23.85,36.98v.62s.76,0,.76,0v-.62s-.76,0-.76,0ZM24.83,36.99v.61c.26,0,.51,0,.77,0v-.6s-.77,0-.77,0ZM23.84,37.82c0,.21,0,.42,0,.63h.76s0-.63,0-.63h-.76ZM24.83,37.82v.62c.26,0,.52,0,.78,0v-.62s-.78,0-.78,0Z"/>
    </g>
    <rect class="cls-2" width="64" height="42"/>
  </g>
</svg>