<?xml version="1.0" encoding="UTF-8"?>
<svg id="Layer_2" xmlns="http://www.w3.org/2000/svg" viewBox="0 0 65 28.77">
  <defs>
    <style>
      .cls-1 {
        fill: none;
        stroke: #fff;
        stroke-linecap: round;
        stroke-linejoin: round;
      }
    </style>
  </defs>
  <g id="Layer_1-2" data-name="Layer_1">
    <g>
      <g>
        <polyline class="cls-1" points="14.45 22.85 14.45 .5 46.84 .5 46.84 22.85"/>
        <polyline class="cls-1" points="46.85 4.22 55.31 4.22 62.32 13 62.32 22.86"/>
        <line class="cls-1" x1="49.98" y1="22.85" x2="26.95" y2="22.85"/>
        <line class="cls-1" x1="64.5" y1="22.85" x2="59.16" y2="22.85"/>
        <line class="cls-1" x1="17.77" y1="22.85" x2="10.95" y2="22.85"/>
        <polygon class="cls-1" points="49.69 7.26 53.74 7.26 57.09 11.54 49.69 11.54 49.69 7.26"/>
        <line class="cls-1" x1="49.71" y1="14.66" x2="53.39" y2="14.66"/>
        <path class="cls-1" d="M62.32,19.91h-1.21c-1.03,0-1.86-.82-1.86-1.83,0-.51.21-.96.54-1.29.34-.33.8-.54,1.31-.54h1.21"/>
        <circle class="cls-1" cx="22.36" cy="23.62" r="4.65" transform="translate(-6.6 38.41) rotate(-73.63)"/>
        <circle class="cls-1" cx="54.57" cy="23.62" r="4.65" transform="translate(-4.89 24.43) rotate(-24.18)"/>
        <path class="cls-1" d="M23.87,23.62c0,.83-.68,1.51-1.51,1.51s-1.51-.68-1.51-1.51.68-1.51,1.51-1.51,1.51.68,1.51,1.51Z"/>
        <circle class="cls-1" cx="54.57" cy="23.62" r="1.51" transform="translate(26.53 76.05) rotate(-85.27)"/>
      </g>
      <g>
        <line class="cls-1" x1="4.04" y1="6.23" x2="10.95" y2="6.23"/>
        <line class="cls-1" x1=".5" y1="9.86" x2="7.41" y2="9.86"/>
        <line class="cls-1" x1=".52" y1="13.49" x2="7.43" y2="13.49"/>
        <line class="cls-1" x1="4.11" y1="17.12" x2="11.02" y2="17.12"/>
      </g>
    </g>
  </g>
</svg>