<?xml version="1.0" encoding="UTF-8"?>
<svg xmlns="http://www.w3.org/2000/svg" viewBox="0 0 979.12 665">
  <defs>
    <style>
      /* Default/Light mode - dark icon */
      .icon-path {
        fill: #1b2c4e;
      }

      /* Dark mode - white icon */
      @media (prefers-color-scheme: dark) {
        .icon-path {
          fill: #ffffff;
        }
      }
    </style>
  </defs>

  <g>
    <path class="icon-path" d="M608.62,221.69h37.29c26.42,0,51.71-10.49,70.32-29.2l63.97-64.29.04.04c10.1-10.5,24.3-17.03,40.06-17.03,20.42,0,38.24,11.01,47.87,27.39.04.04.09.13.09.22,4.01,8.68,6.47,18.02,7.21,27.65.09.78.13,1.55.17,2.32.04.04,0,.09,0,.09.04.13.04.3,0,.43.04,1.16.09,2.36.09,3.53v24.13c0,13.68,11.14,24.73,24.82,24.73h53.74c13.73,0,24.82-11.05,24.82-24.73v-53.59c0-13.63-11.09-24.73-24.82-24.73h-17.65v-.04c-43.68,0-79.17-35.05-79.68-78.44v-.94c-.52-21.76-18.35-39.22-40.32-39.22h-21.8c-26.42,0-51.8,10.54-70.4,29.24l-70.06,70.44c-6.04,6.06-13.21,10.79-20.98,14.02-7.77,3.23-16.19,4.94-24.78,4.94-13.68,0-24.82,11.1-24.82,24.73v53.59c0,13.68,11.14,24.73,24.82,24.73Z"/>
    <path class="icon-path" d="M316.71,443.39h37.29c26.42,0,51.71-10.49,70.32-29.2l63.97-64.29.04.04c10.1-10.49,24.3-17.03,40.06-17.03,20.42,0,38.24,11.01,47.87,27.39.04.04.09.13.09.22,4.01,8.69,6.47,18.02,7.21,27.65.09.77.13,1.55.17,2.32.04.04,0,.08,0,.08.04.13.04.3,0,.43.04,1.16.09,2.37.09,3.53v24.13c0,13.67,11.14,24.73,24.82,24.73h37.29c10.88,0,21.58-1.76,31.64-5.16,14.46-4.86,27.71-13.03,38.68-24.04l63.97-64.29.04.04c10.1-10.49,24.3-17.03,40.06-17.03,20.42,0,38.24,11.01,47.87,27.39.04.04.09.13.09.22,4.01,8.69,6.47,18.02,7.21,27.65.09.77.13,1.55.17,2.32.04.04,0,.08,0,.08.04.13.04.3,0,.43.04,1.16.09,2.37.09,3.53v24.13c0,13.67,11.14,24.73,24.82,24.73h53.74c13.73,0,24.82-11.05,24.82-24.73v-53.59c0-13.63-11.09-24.73-24.82-24.73h-17.65v-.04c-43.68,0-79.17-35.05-79.68-78.44v-.95c-.52-21.76-18.34-39.22-40.32-39.22h-21.8c-26.42,0-51.8,10.54-70.4,29.24l-70.06,70.44c-6.04,6.06-13.21,10.79-20.98,14.02-7.77,3.23-16.19,4.95-24.78,4.95-13.68,0-24.82,11.1-24.82,24.73v53.59c0,13.67,11.14,24.73,24.82,24.73Z"/>
    <path class="icon-path" d="M488.29,571.5l.04.04c10.1-10.5,24.3-17.03,40.06-17.03,20.42,0,38.24,11.01,47.87,27.39.04.04.09.13.09.22,4.01,8.69,6.47,18.02,7.21,27.65.09.77.13,1.55.17,2.32.04.04,0,.09,0,.09.04.13.04.3,0,.43.04,1.16.09,2.36.09,3.53v24.13c0,13.67,11.14,24.73,24.82,24.73h37.29c10.88,0,21.58-1.76,31.64-5.16,14.46-4.86,27.71-13.03,38.68-24.04l63.97-64.29.04.04c10.1-10.5,24.3-17.03,40.06-17.03,20.42,0,38.24,11.01,47.87,27.39.04.04.09.13.09.22,4.01,8.69,6.47,18.02,7.21,27.65.09.77.13,1.55.17,2.32.04.04,0,.09,0,.09.04.13.04.3,0,.43.04,1.16.09,2.36.09,3.53v24.13c0,13.67,11.14,24.73,24.82,24.73h53.74c13.73,0,24.82-11.05,24.82-24.73v-53.59c0-13.63-11.09-24.73-24.82-24.73h-17.65v-.04c-43.68,0-79.17-35.05-79.68-78.44v-.94c-.52-21.76-18.34-39.22-40.32-39.22h-21.8c-26.42,0-51.8,10.54-70.4,29.24l-70.06,70.44c-6.04,6.06-13.21,10.79-20.98,14.02-2.5,1.03-5.05,1.94-7.68,2.62-34.53-8.43-60.26-39.27-60.69-76.17v-.94c-.52-21.76-18.35-39.22-40.32-39.22h-21.8c-26.42,0-51.8,10.54-70.4,29.24l-70.06,70.44c-6.04,6.06-13.21,10.79-20.98,14.02-2.5,1.03-5.05,1.94-7.68,2.62-34.53-8.43-60.22-39.31-60.65-76.17v-.94c-.52-21.76-18.35-39.22-40.32-39.22h-21.8c-26.42,0-51.8,10.54-70.4,29.24l-70.06,70.44c-6.04,6.06-13.21,10.79-20.98,14.02-7.77,3.23-16.19,4.95-24.78,4.95-13.68,0-24.82,11.1-24.82,24.73v53.59c0,13.67,11.14,24.73,24.82,24.73h37.29c26.42,0,51.71-10.49,70.32-29.2l63.97-64.29.04.04c10.1-10.5,24.3-17.03,40.06-17.03,20.42,0,38.24,11.01,47.87,27.39.04.04.09.13.09.22,4.01,8.69,6.47,18.02,7.21,27.65.09.77.13,1.55.17,2.32.04.04,0,.09,0,.09.04.04.04.13.04.22s0,.17-.04.21c.04.56.04,1.16.04,1.76v25.89c0,3.44.69,6.71,1.99,9.63.95,2.24,2.2,4.3,3.76,6.11,1.51,1.85,3.28,3.44,5.27,4.77.65.43,1.34.86,2.07,1.25.69.39,1.42.73,2.16,1.03.73.3,1.51.6,2.29.82,1.3.43,2.63.73,4.06.86.39.09.78.13,1.21.17.69.04,1.38.09,2.07.09h37.25c10.92,0,21.58-1.81,31.68-5.21t.04,0c14.46-4.86,27.67-13.03,38.59-23.99l63.97-64.29Z"/>
  </g>
</svg>
