<?xml version="1.0" encoding="UTF-8"?>
<svg id="Layer_2" xmlns="http://www.w3.org/2000/svg" viewBox="0 0 1685.9 1685.9">
  <defs>
    <style>
      .cls-1 {
        fill: #fff;
        stroke: #fff;
        stroke-miterlimit: 10;
      }
    </style>
  </defs>
  <g id="Layer_1-2" data-name="Layer_1">
    <g>
      <g>
        <path class="cls-1" d="M1168.37,1231.61h-31.68c-22.44,0-43.93,8.95-59.73,24.9l-54.34,54.82-.04-.04c-8.58,8.95-20.64,14.52-34.03,14.52-17.34,0-32.49-9.39-40.67-23.36-.04-.04-.07-.11-.07-.18-3.41-7.41-5.5-15.36-6.12-23.58-.07-.66-.11-1.32-.15-1.98-.04-.04,0-.07,0-.07-.04-.11-.04-.26,0-.37-.04-.99-.07-2.02-.07-3.01v-20.57c0-11.66-9.46-21.09-21.08-21.09h-45.65c-11.66,0-21.08,9.42-21.08,21.09v45.69c0,11.62,9.42,21.09,21.08,21.09h15v.04c37.11,0,67.25,29.89,67.69,66.89v.81c.44,18.55,15.58,33.44,34.25,33.44h18.52c22.44,0,44-8.98,59.81-24.93l59.51-60.07c5.13-5.17,11.22-9.2,17.82-11.95,6.6-2.75,13.75-4.22,21.05-4.22,11.62,0,21.09-9.46,21.09-21.09v-45.69c0-11.66-9.46-21.09-21.09-21.09Z"/>
        <path class="cls-1" d="M874.71,1130.44h15v.04c37.11,0,67.25,29.89,67.69,66.88v.81c.44,18.55,15.58,33.44,34.25,33.44h18.52c22.44,0,44-8.98,59.81-24.93l59.51-60.06c5.13-5.17,11.22-9.2,17.82-11.95,2.13-.88,4.29-1.65,6.53-2.24,29.34,7.19,51.19,33.48,51.56,64.94v.81c.44,18.55,15.58,33.44,34.25,33.44h18.52c22.44,0,44-8.98,59.81-24.93l59.51-60.06c5.13-5.17,11.22-9.2,17.82-11.95,6.6-2.75,13.75-4.22,21.05-4.22,11.62,0,21.08-9.46,21.08-21.08v-45.69c0-11.66-9.46-21.08-21.08-21.08h-31.68c-22.44,0-43.93,8.95-59.73,24.9l-54.34,54.82-.04-.04c-8.58,8.95-20.65,14.52-34.03,14.52-17.34,0-32.49-9.39-40.67-23.36-.04-.04-.07-.11-.07-.18-3.41-7.41-5.5-15.36-6.12-23.58-.07-.66-.11-1.32-.15-1.98-.04-.04,0-.07,0-.07-.04-.11-.04-.26,0-.37-.04-.99-.07-2.02-.07-3.01v-20.57c0-11.66-9.46-21.08-21.08-21.08h-31.68c-9.24,0-18.34,1.5-26.88,4.4-12.28,4.14-23.54,11.11-32.86,20.5l-54.34,54.82-.04-.04c-8.58,8.95-20.65,14.52-34.03,14.52-17.34,0-32.49-9.39-40.67-23.36-.04-.04-.07-.11-.07-.18-3.41-7.41-5.5-15.36-6.12-23.58-.07-.66-.11-1.32-.15-1.98-.04-.04,0-.07,0-.07-.04-.11-.04-.26,0-.37-.04-.99-.07-2.02-.07-3.01v-20.57c0-11.66-9.46-21.08-21.08-21.08h-45.65c-11.66,0-21.08,9.43-21.08,21.08v45.69c0,11.62,9.42,21.08,21.08,21.08Z"/>
        <path class="cls-1" d="M874.71,941.49h15v.04c37.11,0,67.25,29.89,67.69,66.89v.81c.44,18.56,15.58,33.44,34.25,33.44h18.52c22.44,0,44-8.98,59.81-24.94l59.51-60.06c5.13-5.17,11.22-9.2,17.82-11.95,2.13-.88,4.29-1.65,6.53-2.24,29.34,7.19,51.19,33.48,51.56,64.94v.81c.44,18.56,15.58,33.44,34.25,33.44h18.52c22.44,0,44-8.98,59.81-24.94l59.51-60.06c5.13-5.17,11.22-9.2,17.82-11.95,2.13-.88,4.29-1.65,6.53-2.24,29.34,7.19,51.15,33.52,51.52,64.94v.81c.44,18.56,15.58,33.44,34.25,33.44h18.52c22.44,0,44-8.98,59.81-24.94l59.51-60.06c5.13-5.17,11.22-9.2,17.82-11.95,6.6-2.75,13.75-4.22,21.05-4.22,11.62,0,21.09-9.46,21.09-21.08v-45.69c0-11.66-9.46-21.09-21.09-21.09h-31.68c-22.44,0-43.93,8.95-59.73,24.9l-54.34,54.82-.04-.04c-8.58,8.95-20.64,14.52-34.03,14.52-17.34,0-32.49-9.39-40.67-23.36-.04-.04-.07-.11-.07-.18-3.41-7.41-5.5-15.36-6.12-23.58-.07-.66-.11-1.32-.15-1.98-.04-.04,0-.07,0-.07-.04-.04-.04-.11-.04-.18s0-.15.04-.18c-.04-.48-.04-.99-.04-1.5v-22.08c0-2.93-.59-5.72-1.69-8.21-.81-1.91-1.87-3.67-3.19-5.21-1.28-1.58-2.79-2.93-4.47-4.07-.55-.37-1.14-.73-1.76-1.06-.59-.33-1.21-.62-1.83-.88-.62-.26-1.28-.51-1.94-.7-1.1-.37-2.24-.62-3.45-.73-.33-.07-.66-.11-1.03-.15-.59-.04-1.17-.07-1.76-.07h-31.65c-9.28,0-18.33,1.54-26.92,4.44t-.04,0c-12.28,4.14-23.5,11.11-32.78,20.46l-54.34,54.82-.04-.04c-8.58,8.95-20.65,14.52-34.03,14.52-17.34,0-32.49-9.39-40.67-23.36-.04-.04-.07-.11-.07-.18-3.41-7.41-5.5-15.36-6.12-23.58-.07-.66-.11-1.32-.15-1.98-.04-.04,0-.07,0-.07-.04-.11-.04-.26,0-.37-.04-.99-.07-2.02-.07-3.01v-20.57c0-11.66-9.46-21.09-21.08-21.09h-31.68c-9.24,0-18.34,1.5-26.88,4.4-12.28,4.14-23.54,11.11-32.86,20.5l-54.34,54.82-.04-.04c-8.58,8.95-20.65,14.52-34.03,14.52-17.34,0-32.49-9.39-40.67-23.36-.04-.04-.07-.11-.07-.18-3.41-7.41-5.5-15.36-6.12-23.58-.07-.66-.11-1.32-.15-1.98-.04-.04,0-.07,0-.07-.04-.11-.04-.26,0-.37-.04-.99-.07-2.02-.07-3.01v-20.57c0-11.66-9.46-21.09-21.08-21.09h-45.65c-11.66,0-21.08,9.43-21.08,21.09v45.69c0,11.62,9.42,21.08,21.08,21.08Z"/>
      </g>
      <g>
        <path class="cls-1" d="M454.29,1168.37v-31.68c0-22.44-8.95-43.93-24.9-59.73l-54.82-54.34.04-.04c-8.95-8.58-14.52-20.64-14.52-34.03,0-17.34,9.39-32.49,23.36-40.67.04-.04.11-.07.18-.07,7.41-3.41,15.36-5.5,23.58-6.12.66-.07,1.32-.11,1.98-.15.04-.04.07,0,.07,0,.11-.04.26-.04.37,0,.99-.04,2.02-.07,3.01-.07h20.57c11.66,0,21.09-9.46,21.09-21.08v-45.65c0-11.66-9.42-21.08-21.09-21.08h-45.69c-11.62,0-21.09,9.42-21.09,21.08v15h-.04c0,37.11-29.89,67.25-66.89,67.69h-.81c-18.55.44-33.44,15.58-33.44,34.25v18.52c0,22.44,8.98,44,24.93,59.81l60.07,59.51c5.17,5.13,9.2,11.22,11.95,17.82,2.75,6.6,4.22,13.75,4.22,21.05,0,11.62,9.46,21.09,21.09,21.09h45.69c11.66,0,21.09-9.46,21.09-21.09Z"/>
        <path class="cls-1" d="M555.46,874.71v15h-.04c0,37.11-29.89,67.25-66.88,67.69h-.81c-18.55.44-33.44,15.58-33.44,34.25v18.52c0,22.44,8.98,44,24.93,59.81l60.06,59.51c5.17,5.13,9.2,11.22,11.95,17.82.88,2.13,1.65,4.29,2.24,6.53-7.19,29.34-33.48,51.19-64.94,51.56h-.81c-18.55.44-33.44,15.58-33.44,34.25v18.52c0,22.44,8.98,44,24.93,59.81l60.06,59.51c5.17,5.13,9.2,11.22,11.95,17.82,2.75,6.6,4.22,13.75,4.22,21.05,0,11.62,9.46,21.08,21.08,21.08h45.69c11.66,0,21.08-9.46,21.08-21.08v-31.68c0-22.44-8.95-43.93-24.9-59.73l-54.82-54.34.04-.04c-8.95-8.58-14.52-20.65-14.52-34.03,0-17.34,9.39-32.49,23.36-40.67.04-.04.11-.07.18-.07,7.41-3.41,15.36-5.5,23.58-6.12.66-.07,1.32-.11,1.98-.15.04-.04.07,0,.07,0,.11-.04.26-.04.37,0,.99-.04,2.02-.07,3.01-.07h20.57c11.66,0,21.08-9.46,21.08-21.08v-31.68c0-9.24-1.5-18.34-4.4-26.88-4.14-12.28-11.11-23.54-20.5-32.86l-54.82-54.34.04-.04c-8.95-8.58-14.52-20.65-14.52-34.03,0-17.34,9.39-32.49,23.36-40.67.04-.04.11-.07.18-.07,7.41-3.41,15.36-5.5,23.58-6.12.66-.07,1.32-.11,1.98-.15.04-.04.07,0,.07,0,.11-.04.26-.04.37,0,.99-.04,2.02-.07,3.01-.07h20.57c11.66,0,21.08-9.46,21.08-21.08v-45.65c0-11.66-9.43-21.08-21.08-21.08h-45.69c-11.62,0-21.08,9.42-21.08,21.08Z"/>
        <path class="cls-1" d="M744.41,874.71v15h-.04c0,37.11-29.89,67.25-66.89,67.69h-.81c-18.56.44-33.44,15.58-33.44,34.25v18.52c0,22.44,8.98,44,24.94,59.81l60.06,59.51c5.17,5.13,9.2,11.22,11.95,17.82.88,2.13,1.65,4.29,2.24,6.53-7.19,29.34-33.48,51.19-64.94,51.56h-.81c-18.56.44-33.44,15.58-33.44,34.25v18.52c0,22.44,8.98,44,24.94,59.81l60.06,59.51c5.17,5.13,9.2,11.22,11.95,17.82.88,2.13,1.65,4.29,2.24,6.53-7.19,29.34-33.52,51.15-64.94,51.52h-.81c-18.56.44-33.44,15.58-33.44,34.25v18.52c0,22.44,8.98,44,24.94,59.81l60.06,59.51c5.17,5.13,9.2,11.22,11.95,17.82,2.75,6.6,4.22,13.75,4.22,21.05,0,11.62,9.46,21.09,21.08,21.09h45.69c11.66,0,21.09-9.46,21.09-21.09v-31.68c0-22.44-8.95-43.93-24.9-59.73l-54.82-54.34.04-.04c-8.95-8.58-14.52-20.64-14.52-34.03,0-17.34,9.39-32.49,23.36-40.67.04-.04.11-.07.18-.07,7.41-3.41,15.36-5.5,23.58-6.12.66-.07,1.32-.11,1.98-.15.04-.04.07,0,.07,0,.04-.04.11-.04.18-.04s.15,0,.18.04c.48-.04.99-.04,1.5-.04h22.08c2.93,0,5.72-.59,8.21-1.69,1.91-.81,3.67-1.87,5.21-3.19,1.58-1.28,2.93-2.79,4.07-4.47.37-.55.73-1.14,1.06-1.76.33-.59.62-1.21.88-1.83.26-.62.51-1.28.7-1.94.37-1.1.62-2.24.73-3.45.07-.33.11-.66.15-1.03.04-.59.07-1.17.07-1.76v-31.65c0-9.28-1.54-18.33-4.44-26.92t0-.04c-4.14-12.28-11.11-23.5-20.46-32.78l-54.82-54.34.04-.04c-8.95-8.58-14.52-20.65-14.52-34.03,0-17.34,9.39-32.49,23.36-40.67.04-.04.11-.07.18-.07,7.41-3.41,15.36-5.5,23.58-6.12.66-.07,1.32-.11,1.98-.15.04-.04.07,0,.07,0,.11-.04.26-.04.37,0,.99-.04,2.02-.07,3.01-.07h20.57c11.66,0,21.09-9.46,21.09-21.08v-31.68c0-9.24-1.5-18.34-4.4-26.88-4.14-12.28-11.11-23.54-20.5-32.86l-54.82-54.34.04-.04c-8.95-8.58-14.52-20.65-14.52-34.03,0-17.34,9.39-32.49,23.36-40.67.04-.04.11-.07.18-.07,7.41-3.41,15.36-5.5,23.58-6.12.66-.07,1.32-.11,1.98-.15.04-.04.07,0,.07,0,.11-.04.26-.04.37,0,.99-.04,2.02-.07,3.01-.07h20.57c11.66,0,21.09-9.46,21.09-21.08v-45.65c0-11.66-9.43-21.08-21.09-21.08h-45.69c-11.62,0-21.08,9.42-21.08,21.08Z"/>
      </g>
      <g>
        <path class="cls-1" d="M517.53,454.29h31.68c22.44,0,43.93-8.95,59.73-24.9l54.34-54.82.04.04c8.58-8.95,20.64-14.52,34.03-14.52,17.34,0,32.49,9.39,40.67,23.36.04.04.07.11.07.18,3.41,7.41,5.5,15.36,6.12,23.58.07.66.11,1.32.15,1.98.04.04,0,.07,0,.07.04.11.04.26,0,.37.04.99.07,2.02.07,3.01v20.57c0,11.66,9.46,21.09,21.08,21.09h45.65c11.66,0,21.08-9.42,21.08-21.09v-45.69c0-11.62-9.42-21.09-21.08-21.09h-15v-.04c-37.11,0-67.25-29.89-67.69-66.89v-.81c-.44-18.55-15.58-33.44-34.25-33.44h-18.52c-22.44,0-44,8.98-59.81,24.93l-59.51,60.07c-5.13,5.17-11.22,9.2-17.82,11.95-6.6,2.75-13.75,4.22-21.05,4.22-11.62,0-21.09,9.46-21.09,21.09v45.69c0,11.66,9.46,21.09,21.09,21.09Z"/>
        <path class="cls-1" d="M811.19,555.46h-15v-.04c-37.11,0-67.25-29.89-67.69-66.88v-.81c-.44-18.55-15.58-33.44-34.25-33.44h-18.52c-22.44,0-44,8.98-59.81,24.93l-59.51,60.06c-5.13,5.17-11.22,9.2-17.82,11.95-2.13.88-4.29,1.65-6.53,2.24-29.34-7.19-51.19-33.48-51.56-64.94v-.81c-.44-18.55-15.58-33.44-34.25-33.44h-18.52c-22.44,0-44,8.98-59.81,24.93l-59.51,60.06c-5.13,5.17-11.22,9.2-17.82,11.95-6.6,2.75-13.75,4.22-21.05,4.22-11.62,0-21.08,9.46-21.08,21.08v45.69c0,11.66,9.46,21.08,21.08,21.08h31.68c22.44,0,43.93-8.95,59.73-24.9l54.34-54.82.04.04c8.58-8.95,20.65-14.52,34.03-14.52,17.34,0,32.49,9.39,40.67,23.36.04.04.07.11.07.18,3.41,7.41,5.5,15.36,6.12,23.58.07.66.11,1.32.15,1.98.04.04,0,.07,0,.07.04.11.04.26,0,.37.04.99.07,2.02.07,3.01v20.57c0,11.66,9.46,21.08,21.08,21.08h31.68c9.24,0,18.34-1.5,26.88-4.4,12.28-4.14,23.54-11.11,32.86-20.5l54.34-54.82.04.04c8.58-8.95,20.65-14.52,34.03-14.52,17.34,0,32.49,9.39,40.67,23.36.04.04.07.11.07.18,3.41,7.41,5.5,15.36,6.12,23.58.07.66.11,1.32.15,1.98.04.04,0,.07,0,.07.04.11.04.26,0,.37.04.99.07,2.02.07,3.01v20.57c0,11.66,9.46,21.08,21.08,21.08h45.65c11.66,0,21.08-9.43,21.08-21.08v-45.69c0-11.62-9.42-21.08-21.08-21.08Z"/>
        <path class="cls-1" d="M811.19,744.41h-15v-.04c-37.11,0-67.25-29.89-67.69-66.89v-.81c-.44-18.56-15.58-33.44-34.25-33.44h-18.52c-22.44,0-44,8.98-59.81,24.94l-59.51,60.06c-5.13,5.17-11.22,9.2-17.82,11.95-2.13.88-4.29,1.65-6.53,2.24-29.34-7.19-51.19-33.48-51.56-64.94v-.81c-.44-18.56-15.58-33.44-34.25-33.44h-18.52c-22.44,0-44,8.98-59.81,24.94l-59.51,60.06c-5.13,5.17-11.22,9.2-17.82,11.95-2.13.88-4.29,1.65-6.53,2.24-29.34-7.19-51.15-33.52-51.52-64.94v-.81c-.44-18.56-15.58-33.44-34.25-33.44h-18.52c-22.44,0-44,8.98-59.81,24.94l-59.51,60.06c-5.13,5.17-11.22,9.2-17.82,11.95-6.6,2.75-13.75,4.22-21.05,4.22-11.62,0-21.09,9.46-21.09,21.08v45.69c0,11.66,9.46,21.09,21.09,21.09h31.68c22.44,0,43.93-8.95,59.73-24.9l54.34-54.82.04.04c8.58-8.95,20.64-14.52,34.03-14.52,17.34,0,32.49,9.39,40.67,23.36.04.04.07.11.07.18,3.41,7.41,5.5,15.36,6.12,23.58.07.66.11,1.32.15,1.98.04.04,0,.07,0,.07.04.04.04.11.04.18s0,.15-.04.18c.04.48.04.99.04,1.5v22.08c0,2.93.59,5.72,1.69,8.21.81,1.91,1.87,3.67,3.19,5.21,1.28,1.58,2.79,2.93,4.47,4.07.55.37,1.14.73,1.76,1.06.59.33,1.21.62,1.83.88.62.26,1.28.51,1.94.7,1.1.37,2.24.62,3.45.73.33.07.66.11,1.03.15.59.04,1.17.07,1.76.07h31.65c9.28,0,18.33-1.54,26.92-4.44t.04,0c12.28-4.14,23.5-11.11,32.78-20.46l54.34-54.82.04.04c8.58-8.95,20.65-14.52,34.03-14.52,17.34,0,32.49,9.39,40.67,23.36.04.04.07.11.07.18,3.41,7.41,5.5,15.36,6.12,23.58.07.66.11,1.32.15,1.98.04.04,0,.07,0,.07.04.11.04.26,0,.37.04.99.07,2.02.07,3.01v20.57c0,11.66,9.46,21.09,21.08,21.09h31.68c9.24,0,18.34-1.5,26.88-4.4,12.28-4.14,23.54-11.11,32.86-20.5l54.34-54.82.04.04c8.58-8.95,20.65-14.52,34.03-14.52,17.34,0,32.49,9.39,40.67,23.36.04.04.07.11.07.18,3.41,7.41,5.5,15.36,6.12,23.58.07.66.11,1.32.15,1.98.04.04,0,.07,0,.07.04.11.04.26,0,.37.04.99.07,2.02.07,3.01v20.57c0,11.66,9.46,21.09,21.08,21.09h45.65c11.66,0,21.08-9.43,21.08-21.09v-45.69c0-11.62-9.42-21.08-21.08-21.08Z"/>
      </g>
      <g>
        <path class="cls-1" d="M1231.61,517.53v31.68c0,22.44,8.95,43.93,24.9,59.73l54.82,54.34-.04.04c8.95,8.58,14.52,20.64,14.52,34.03,0,17.34-9.39,32.49-23.36,40.67-.04.04-.11.07-.18.07-7.41,3.41-15.36,5.5-23.58,6.12-.66.07-1.32.11-1.98.15-.04.04-.07,0-.07,0-.11.04-.26.04-.37,0-.99.04-2.02.07-3.01.07h-20.57c-11.66,0-21.09,9.46-21.09,21.08v45.65c0,11.66,9.42,21.08,21.09,21.08h45.69c11.62,0,21.09-9.42,21.09-21.08v-15h.04c0-37.11,29.89-67.25,66.89-67.69h.81c18.55-.44,33.44-15.58,33.44-34.25v-18.52c0-22.44-8.98-44-24.93-59.81l-60.07-59.51c-5.17-5.13-9.2-11.22-11.95-17.82-2.75-6.6-4.22-13.75-4.22-21.05,0-11.62-9.46-21.09-21.09-21.09h-45.69c-11.66,0-21.09,9.46-21.09,21.09Z"/>
        <path class="cls-1" d="M1130.44,811.19v-15h.04c0-37.11,29.89-67.25,66.88-67.69h.81c18.55-.44,33.44-15.58,33.44-34.25v-18.52c0-22.44-8.98-44-24.93-59.81l-60.06-59.51c-5.17-5.13-9.2-11.22-11.95-17.82-.88-2.13-1.65-4.29-2.24-6.53,7.19-29.34,33.48-51.19,64.94-51.56h.81c18.55-.44,33.44-15.58,33.44-34.25v-18.52c0-22.44-8.98-44-24.93-59.81l-60.06-59.51c-5.17-5.13-9.2-11.22-11.95-17.82-2.75-6.6-4.22-13.75-4.22-21.05,0-11.62-9.46-21.08-21.08-21.08h-45.69c-11.66,0-21.08,9.46-21.08,21.08v31.68c0,22.44,8.95,43.93,24.9,59.73l54.82,54.34-.04.04c8.95,8.58,14.52,20.65,14.52,34.03,0,17.34-9.39,32.49-23.36,40.67-.04.04-.11.07-.18.07-7.41,3.41-15.36,5.5-23.58,6.12-.66.07-1.32.11-1.98.15-.04.04-.07,0-.07,0-.11.04-.26.04-.37,0-.99.04-2.02.07-3.01.07h-20.57c-11.66,0-21.08,9.46-21.08,21.08v31.68c0,9.24,1.5,18.34,4.4,26.88,4.14,12.28,11.11,23.54,20.5,32.86l54.82,54.34-.04.04c8.95,8.58,14.52,20.65,14.52,34.03,0,17.34-9.39,32.49-23.36,40.67-.04.04-.11.07-.18.07-7.41,3.41-15.36,5.5-23.58,6.12-.66.07-1.32.11-1.98.15-.04.04-.07,0-.07,0-.11.04-.26.04-.37,0-.99.04-2.02.07-3.01.07h-20.57c-11.66,0-21.08,9.46-21.08,21.08v45.65c0,11.66,9.43,21.08,21.08,21.08h45.69c11.62,0,21.08-9.42,21.08-21.08Z"/>
        <path class="cls-1" d="M941.49,811.19v-15h.04c0-37.11,29.89-67.25,66.89-67.69h.81c18.56-.44,33.44-15.58,33.44-34.25v-18.52c0-22.44-8.98-44-24.94-59.81l-60.06-59.51c-5.17-5.13-9.2-11.22-11.95-17.82-.88-2.13-1.65-4.29-2.24-6.53,7.19-29.34,33.48-51.19,64.94-51.56h.81c18.56-.44,33.44-15.58,33.44-34.25v-18.52c0-22.44-8.98-44-24.94-59.81l-60.06-59.51c-5.17-5.13-9.2-11.22-11.95-17.82-.88-2.13-1.65-4.29-2.24-6.53,7.19-29.34,33.52-51.15,64.94-51.52h.81c18.56-.44,33.44-15.58,33.44-34.25v-18.52c0-22.44-8.98-44-24.94-59.81l-60.06-59.51c-5.17-5.13-9.2-11.22-11.95-17.82-2.75-6.6-4.22-13.75-4.22-21.05,0-11.62-9.46-21.09-21.08-21.09h-45.69c-11.66,0-21.09,9.46-21.09,21.09v31.68c0,22.44,8.95,43.93,24.9,59.73l54.82,54.34-.04.04c8.95,8.58,14.52,20.64,14.52,34.03,0,17.34-9.39,32.49-23.36,40.67-.04.04-.11.07-.18.07-7.41,3.41-15.36,5.5-23.58,6.12-.66.07-1.32.11-1.98.15-.04.04-.07,0-.07,0-.04.04-.11.04-.18.04s-.15,0-.18-.04c-.48.04-.99.04-1.5.04h-22.08c-2.93,0-5.72.59-8.21,1.69-1.91.81-3.67,1.87-5.21,3.19-1.58,1.28-2.93,2.79-4.07,4.47-.37.55-.73,1.14-1.06,1.76-.33.59-.62,1.21-.88,1.83-.26.62-.51,1.28-.7,1.94-.37,1.1-.62,2.24-.73,3.45-.07.33-.11.66-.15,1.03-.04.59-.07,1.17-.07,1.76v31.65c0,9.28,1.54,18.33,4.44,26.92t0,.04c4.14,12.28,11.11,23.5,20.46,32.78l54.82,54.34-.04.04c8.95,8.58,14.52,20.65,14.52,34.03,0,17.34-9.39,32.49-23.36,40.67-.04.04-.11.07-.18.07-7.41,3.41-15.36,5.5-23.58,6.12-.66.07-1.32.11-1.98.15-.04.04-.07,0-.07,0-.11.04-.26.04-.37,0-.99.04-2.02.07-3.01.07h-20.57c-11.66,0-21.09,9.46-21.09,21.08v31.68c0,9.24,1.5,18.34,4.4,26.88,4.14,12.28,11.11,23.54,20.5,32.86l54.82,54.34-.04.04c8.95,8.58,14.52,20.65,14.52,34.03,0,17.34-9.39,32.49-23.36,40.67-.04.04-.11.07-.18.07-7.41,3.41-15.36,5.5-23.58,6.12-.66.07-1.32.11-1.98.15-.04.04-.07,0-.07,0-.11.04-.26.04-.37,0-.99.04-2.02.07-3.01.07h-20.57c-11.66,0-21.09,9.46-21.09,21.08v45.65c0,11.66,9.43,21.08,21.09,21.08h45.69c11.62,0,21.08-9.42,21.08-21.08Z"/>
      </g>
    </g>
  </g>
</svg>