<?xml version="1.0" encoding="UTF-8"?>
<svg id="Layer_2" xmlns="http://www.w3.org/2000/svg" viewBox="0 0 522.7 284.27">
  <defs>
    <style>
      .cls-1 {
        fill: #1b6b8e;
      }
    </style>
  </defs>
  <g id="Layer_1-2" data-name="Layer_1">
    <g>
      <path class="cls-1" d="M37.49,67.73h-10.37v-21.58h30.39c.14,3.69.28,11.22.28,21.16,0,23.57-1.7,29.39-4.97,35.07-3.69,6.67-10.08,8.8-23.71,8.8s-20.16-2.13-23.86-8.8c-3.69-6.53-5.25-13.06-5.25-47.71S1.56,15.05,5.25,8.52C8.95,2.13,15.62,0,29.11,0c15.62,0,23,3.69,26.13,13.35,1.28,4.12,1.85,9.37,1.85,15.76,0,2.7,0,3.69-.14,5.54h-20.73c.14-.57.14-1.28.14-1.85,0-4.69-.43-6.67-.85-8.09-.43-1.85-2.41-2.7-6.53-2.7-3.83,0-5.4.85-6.11,2.7-.85,2.84-1.28,6.39-1.28,29.68,0,24.57.28,27.41,1.14,29.96.85,2.27,3.12,3.12,6.82,3.12s5.25-.85,6.39-2.7c1.28-1.99,1.56-3.41,1.56-11.93v-5.11Z"/>
      <path class="cls-1" d="M104.23,109.34c-1.14-3.55-1.56-5.68-4.4-30.53-.99-9.94-2.27-11.36-5.11-11.36h-3.41v41.89h-22.29V1.85h32.52c19.31,0,24.28,8.24,24.28,28.97,0,22.15-3.12,23.71-9.23,27.26v.85c1.14.99,2.41,1.85,3.41,4.4,1.56,3.41,3.12,9.8,4.69,22.29,2.13,17.47,2.27,19.88,3.27,23v.71h-23.71ZM97.55,47.43c4.12,0,5.68-2.84,5.68-12.78,0-8.52-1.85-10.65-6.25-10.65h-5.68v23.43h6.25Z"/>
      <path class="cls-1" d="M164.29,111.19c-13.77,0-20.16-2.13-23.86-8.8-3.69-6.53-5.25-13.06-5.25-46.86s1.56-40.04,5.25-46.72c3.69-6.53,10.08-8.8,23.86-8.8s20.02,2.27,23.71,8.8c3.69,6.67,5.25,12.92,5.25,46.72s-1.56,40.33-5.25,46.86c-3.69,6.67-10.08,8.8-23.71,8.8ZM171.11,54.95c0-23.71-.43-27.55-1.28-30.25-.71-1.85-1.99-2.7-5.54-2.7s-4.97.85-5.54,2.7c-.99,2.7-1.42,6.53-1.42,30.25s.43,26.84,1.42,29.68c.57,1.85,1.99,2.56,5.54,2.56s4.83-.71,5.54-2.56c.85-2.84,1.28-6.67,1.28-29.68Z"/>
      <path class="cls-1" d="M258.44,109.34l-7.38-65.89h-1.56l-7.95,65.89h-31.52L200.5,1.85h22.58l4.83,73.13h1.56L239.27,1.85h22.44l9.94,73.13h1.56l4.69-73.13h21.3l-9.23,107.49h-31.52Z"/>
    </g>
    <g>
      <path class="cls-1" d="M335.11,84.57v-30.08l-15.04-51.88v-.55h17.66c4.69,20.6,5.23,23.22,5.89,26.7h1.09c.65-3.49,1.2-6.1,6.1-26.7h17.11v.55l-14.39,51.66v30.3h-18.42Z"/>
      <path class="cls-1" d="M393.32,85.99c-10.57,0-15.48-1.63-18.31-6.76-2.83-5.01-4.03-10.03-4.03-35.97s1.2-30.74,4.03-35.86c2.83-5.01,7.74-6.76,18.31-6.76s15.37,1.74,18.2,6.76c2.83,5.12,4.03,9.92,4.03,35.86s-1.2,30.95-4.03,35.97c-2.83,5.12-7.74,6.76-18.2,6.76ZM398.55,42.82c0-18.2-.33-21.14-.98-23.22-.54-1.42-1.53-2.07-4.25-2.07s-3.81.65-4.25,2.07c-.76,2.07-1.09,5.01-1.09,23.22s.33,20.6,1.09,22.78c.44,1.42,1.53,1.96,4.25,1.96s3.71-.54,4.25-1.96c.65-2.18.98-5.12.98-22.78Z"/>
      <path class="cls-1" d="M451.08,2.06h17v57.11c-.33,13.62-1.63,17.11-3.92,20.82-2.83,4.58-7.74,5.99-18.2,5.99s-15.48-1.42-18.31-5.99c-2.4-3.71-4.03-7.19-4.03-20.82V2.06h17.55v57.11c0,7.74.76,8.39,5.01,8.39s4.9-.65,4.9-8.39V2.06Z"/>
      <path class="cls-1" d="M504.49,84.57c-.87-2.72-1.2-4.36-3.38-23.43-.76-7.63-1.74-8.72-3.92-8.72h-2.62v32.15h-17.11V2.06h24.96c14.82,0,18.64,6.32,18.64,22.23,0,17-2.4,18.2-7.08,20.93v.65c.87.76,1.85,1.42,2.62,3.38,1.2,2.62,2.4,7.52,3.6,17.11,1.63,13.41,1.74,15.26,2.51,17.66v.54h-18.2ZM499.37,37.05c3.16,0,4.36-2.18,4.36-9.81,0-6.54-1.42-8.17-4.8-8.17h-4.36v17.98h4.8Z"/>
    </g>
    <g>
      <path class="cls-1" d="M134.35,240.54c.29,3.46.43,6.78.43,9.81,0,23.23-3.75,33.91-28.14,33.91-14.43,0-21.21-2.31-24.96-8.95-3.75-6.35-5.34-14.72-5.34-48.49s1.59-40.26,5.34-46.9c3.75-6.49,10.53-8.66,24.24-8.66,24.53,0,28.57,8.95,28.57,32.18,0,2.74-.14,6.06-.29,9.67h-21.21c0-11.54-.43-14.72-1.01-16.74-.43-1.88-2.31-2.74-6.06-2.74s-5.05.87-5.63,2.74c-1.01,2.89-1.44,6.49-1.44,30.16s.43,27.56,1.44,30.74c.58,1.88,2.02,2.6,6.35,2.6,3.03,0,4.62-.72,5.19-2.45,1.44-4.04,1.59-7.94,1.59-16.88h20.92Z"/>
      <path class="cls-1" d="M179.37,282.39l-1.88-25.25h-10.97l-1.73,25.25h-22.8l11.69-109.24h38.1l10.97,109.24h-23.38ZM172.73,195.95h-1.59l-3.61,39.11h8.95l-3.75-39.11Z"/>
      <path class="cls-1" d="M248.78,282.39c-1.15-3.61-1.59-5.77-4.47-31.03-1.01-10.1-2.31-11.54-5.19-11.54h-3.46v42.57h-22.66v-109.24h33.04c19.62,0,24.68,8.37,24.68,29.44,0,22.51-3.17,24.1-9.38,27.71v.87c1.15,1.01,2.45,1.88,3.46,4.47,1.59,3.46,3.17,9.96,4.76,22.66,2.17,17.75,2.31,20.2,3.32,23.38v.72h-24.1ZM242,219.47c4.18,0,5.77-2.89,5.77-12.99,0-8.66-1.88-10.82-6.35-10.82h-5.77v23.81h6.35Z"/>
      <path class="cls-1" d="M283.27,282.39v-109.24h48.34v23.09h-25.69v19.19h25.25v22.08h-25.25v20.63h25.54v24.24h-48.2Z"/>
      <path class="cls-1" d="M344.31,282.39v-109.24h48.34v23.09h-25.69v19.19h25.25v22.08h-25.25v20.63h25.54v24.24h-48.2Z"/>
      <path class="cls-1" d="M441.13,282.39c-1.15-3.61-1.59-5.77-4.47-31.03-1.01-10.1-2.31-11.54-5.19-11.54h-3.46v42.57h-22.66v-109.24h33.04c19.62,0,24.68,8.37,24.68,29.44,0,22.51-3.17,24.1-9.38,27.71v.87c1.15,1.01,2.45,1.88,3.46,4.47,1.59,3.46,3.17,9.96,4.76,22.66,2.17,17.75,2.31,20.2,3.32,23.38v.72h-24.1ZM434.35,219.47c4.18,0,5.77-2.89,5.77-12.99,0-8.66-1.88-10.82-6.35-10.82h-5.77v23.81h6.35Z"/>
    </g>
    <rect class="cls-1" x="324.95" y="96.93" width="197.75" height="15"/>
  </g>
</svg>